<?xml version="1.0" encoding="utf-8"?>
<!-- Generator: Adobe Illustrator 25.0.1, SVG Export Plug-In . SVG Version: 6.00 Build 0)  -->
<svg version="1.1" baseProfile="tiny" id="Layer_1" xmlns="http://www.w3.org/2000/svg" xmlns:xlink="http://www.w3.org/1999/xlink"
	 x="0px" y="0px" width="150px" height="200px" viewBox="0 0 150 200" overflow="visible" xml:space="preserve">
<path fill="#FFA300" d="M88.1,178.9c-0.3-0.9-1.1-1.6-2-1.7l-5.5-0.8l-2.4-5c-0.4-0.9-1.3-1.4-2.2-1.4c-1,0-1.8,0.5-2.2,1.4l-2.4,5
	l-5.5,0.8c-0.9,0.1-1.7,0.8-2,1.7c-0.3,0.9,0,1.9,0.6,2.6l4,3.9l-0.9,5.5c-0.2,0.9,0.2,1.9,1,2.5s1.8,0.6,2.6,0.2l4.9-2.6l4.9,2.6
	c0.4,0.2,0.8,0.3,1.2,0.3c0.5,0,1-0.2,1.5-0.5c0.8-0.6,1.2-1.5,1-2.5l-0.9-5.5l4-3.9C88.2,180.8,88.4,179.8,88.1,178.9z"/>
<path fill="#FFA300" d="M58.1,178.9c-0.3-0.9-1.1-1.6-2-1.7l-5.5-0.8l-2.4-5c-0.4-0.9-1.3-1.4-2.2-1.4c-1,0-1.8,0.5-2.2,1.4l-2.4,5
	l-5.5,0.8c-0.9,0.1-1.7,0.8-2,1.7s0,1.9,0.6,2.6l4,3.9l-0.9,5.5c-0.2,0.9,0.2,1.9,1,2.5s1.8,0.6,2.6,0.2l4.9-2.6l4.9,2.6
	c0.4,0.2,0.8,0.3,1.2,0.3c0.5,0,1-0.2,1.5-0.5c0.8-0.6,1.2-1.5,1-2.5l-0.9-5.5l4-3.9C58.1,180.8,58.4,179.8,58.1,178.9z"/>
<path fill="#333333" d="M118.2,178.9c-0.3-0.9-1.1-1.6-2-1.7l-5.5-0.8l-2.4-5c-0.4-0.9-1.3-1.4-2.2-1.4s-1.8,0.5-2.2,1.4l-2.4,5
	l-5.5,0.8c-0.9,0.1-1.7,0.8-2,1.7s0,1.9,0.6,2.6l4,3.9l-0.9,5.5c-0.2,0.9,0.2,1.9,1,2.5s1.8,0.6,2.6,0.2l4.9-2.6l4.9,2.6
	c0.4,0.2,0.8,0.3,1.2,0.3c0.5,0,1-0.2,1.5-0.5c0.8-0.6,1.2-1.5,1-2.5l-0.9-5.5l4-3.9C118.2,180.8,118.5,179.8,118.2,178.9z"/>
<g>
	<path fill="#808080" d="M70,155.2c-1.5,0-2.7-0.3-3.8-0.9c-1-0.6-1.9-1.4-2.4-2.5c-0.6-1.1-0.8-2.4-0.8-3.8c0-1.5,0.3-2.8,0.8-3.8
		s1.4-1.9,2.4-2.5s2.3-0.9,3.8-0.9c0.7,0,1.5,0.1,2.2,0.3s1.3,0.5,1.9,0.8c0.3,0.2,0.6,0.5,0.6,0.8c0.1,0.3,0,0.6-0.1,0.9
		c-0.1,0.3-0.4,0.4-0.7,0.5c-0.3,0.1-0.6,0-1-0.2c-0.4-0.3-0.9-0.5-1.3-0.6s-1-0.2-1.5-0.2c-1.4,0-2.5,0.4-3.3,1.3
		c-0.7,0.9-1.1,2.1-1.1,3.7s0.4,2.8,1.1,3.7s1.8,1.3,3.3,1.3c0.5,0,1-0.1,1.5-0.2c0.5-0.1,1-0.3,1.4-0.6c0.4-0.2,0.7-0.3,1-0.2
		s0.5,0.2,0.6,0.5c0.1,0.2,0.2,0.5,0.1,0.8s-0.2,0.6-0.5,0.8c-0.5,0.4-1.2,0.7-1.9,0.9C71.5,155.1,70.8,155.2,70,155.2z"/>
	<path fill="#808080" d="M78,155.2c-0.3,0-0.5-0.1-0.6-0.3s-0.1-0.4-0.1-0.7l0.5-2.6h-0.6c-0.6,0-0.9-0.3-0.9-0.8s0.3-0.8,0.9-0.8
		h0.9l0.8-4.2h-1.3c-0.6,0-0.9-0.3-0.9-0.8s0.3-0.8,0.9-0.8h1.6l0.5-2.6c0.1-0.6,0.5-0.8,1-0.8c0.3,0,0.5,0.1,0.6,0.3
		s0.2,0.4,0.1,0.8l-0.5,2.4h2.5l0.5-2.6c0.1-0.6,0.5-0.8,1-0.8c0.3,0,0.5,0.1,0.6,0.3s0.2,0.4,0.1,0.8l-0.5,2.4h0.6
		c0.6,0,0.9,0.3,0.9,0.8s-0.3,0.8-0.9,0.8h-0.9l-0.8,4.2h1.3c0.6,0,0.9,0.3,0.9,0.8s-0.3,0.8-0.9,0.8h-1.6l-0.6,2.8
		c-0.1,0.6-0.4,0.8-1,0.8c-0.3,0-0.5-0.1-0.6-0.3s-0.2-0.4-0.1-0.8l0.5-2.6h-2.5l-0.5,2.8C78.9,154.9,78.6,155.2,78,155.2z
		 M79.8,150h2.5l0.8-4.2h-2.5L79.8,150z"/>
</g>
<g>
	<rect x="104.1" y="65.2" fill="#CCCCCC" width="3.3" height="3.2"/>
	<path fill="#CCCCCC" d="M123,67.3c0-7,0-14,0-21c0-4.1-1.6-7.1-5.2-9.2C105.9,30.3,94,23.5,82.2,16.6c-4.2-2.5-8.1-2.5-12.3,0
		c-11.7,6.9-23.5,13.6-35.3,20.3c-3.6,2-5.4,5.1-5.4,9.1c0,14,0,28,0,42c0,4.1,1.8,7.2,5.6,9.3c12,6.8,23.9,13.7,35.9,20.6
		c3.7,2.1,7.2,2.1,10.8-0.1c11.8-6.9,23.7-13.7,35.6-20.5c4.1-2.3,5.9-5.6,5.8-10.1C122.9,80.7,123,74,123,67.3z M64.5,95.4
		C50.7,89.5,43.3,75.8,46,61c2.5-13.6,14.5-24.2,29-24.6c10.8-0.3,19.5,4.1,26,12.8c1.1,1.5,1.2,2.5-0.6,3.5
		c-2.9,1.5-5.7,3.2-8.5,4.9c-1.6,1-2.6,0.9-4-0.7c-4.7-5.5-11.8-7-18.2-4.2c-6.1,2.8-9.9,9.2-9.2,15.7c0.8,7.2,5.8,12.6,12.9,13.9
		c5.8,1.1,10.7-0.9,14.5-5.3c1.6-1.8,2.7-1.8,4.5-0.7c3.2,2,6.5,3.9,9.9,5.9C95.6,95.3,78.1,101.2,64.5,95.4z M111.7,68.3
		c1.2,0,2.3,0.2,2.3,1.4c0,1.2-1.1,1.4-2.3,1.4h-1v2.8c0,0.9-0.1,1.9-1.7,1.9c-1.5,0-1.7-1-1.7-1.9v-2.8H104v2.8
		c0,0.9-0.1,1.9-1.7,1.9c-1.5,0-1.7-1-1.7-1.9v-2.8h-1c-1.2,0-2.3-0.2-2.3-1.4c0-1.2,1.1-1.4,2.3-1.4h1v-3.2h-1
		c-1.2,0-2.3-0.2-2.3-1.4c0-1.2,1.1-1.4,2.3-1.4h1v-2.8c0-0.9,0.1-1.9,1.7-1.9c1.5,0,1.7,1,1.7,1.9v2.8h3.3v-2.8
		c0-0.9,0.1-1.9,1.7-1.9c1.5,0,1.7,1,1.7,1.9v2.8h1c1.2,0,2.3,0.2,2.3,1.4c0,1.2-1.1,1.4-2.3,1.4h-1v3.2H111.7z"/>
</g>
</svg>
