<?xml version="1.0" encoding="utf-8"?>
<!-- Generator: Adobe Illustrator 25.0.1, SVG Export Plug-In . SVG Version: 6.00 Build 0)  -->
<svg version="1.1" baseProfile="tiny" id="Layer_1" xmlns="http://www.w3.org/2000/svg" xmlns:xlink="http://www.w3.org/1999/xlink"
	 x="0px" y="0px" width="150px" height="200px" viewBox="0 0 150 200" overflow="visible" xml:space="preserve">
<path fill="#FFA300" d="M88.1,178.9c-0.3-0.9-1.1-1.6-2-1.7l-5.5-0.8l-2.4-5c-0.4-0.9-1.3-1.4-2.2-1.4c-1,0-1.8,0.5-2.2,1.4l-2.4,5
	l-5.5,0.8c-0.9,0.1-1.7,0.8-2,1.7c-0.3,0.9,0,1.9,0.6,2.6l4,3.9l-0.9,5.5c-0.2,0.9,0.2,1.9,1,2.5c0.8,0.6,1.8,0.6,2.6,0.2l4.9-2.6
	l4.9,2.6c0.4,0.2,0.8,0.3,1.2,0.3c0.5,0,1-0.2,1.5-0.5c0.8-0.6,1.2-1.5,1-2.5l-0.9-5.5l4-3.9C88.2,180.8,88.4,179.8,88.1,178.9z"/>
<path fill="#FFA300" d="M58.1,178.9c-0.3-0.9-1.1-1.6-2-1.7l-5.5-0.8l-2.4-5c-0.4-0.9-1.3-1.4-2.2-1.4c-1,0-1.8,0.5-2.2,1.4l-2.4,5
	l-5.5,0.8c-0.9,0.1-1.7,0.8-2,1.7c-0.3,0.9,0,1.9,0.6,2.6l4,3.9l-0.9,5.5c-0.2,0.9,0.2,1.9,1,2.5c0.8,0.6,1.8,0.6,2.6,0.2l4.9-2.6
	l4.9,2.6c0.4,0.2,0.8,0.3,1.2,0.3c0.5,0,1-0.2,1.5-0.5c0.8-0.6,1.2-1.5,1-2.5l-0.9-5.5l4-3.9C58.1,180.8,58.4,179.8,58.1,178.9z"/>
<path fill="#FFA300" d="M118.2,178.9c-0.3-0.9-1.1-1.6-2-1.7l-5.5-0.8l-2.4-5c-0.4-0.9-1.3-1.4-2.2-1.4s-1.8,0.5-2.2,1.4l-2.4,5
	l-5.5,0.8c-0.9,0.1-1.7,0.8-2,1.7c-0.3,0.9,0,1.9,0.6,2.6l4,3.9l-0.9,5.5c-0.2,0.9,0.2,1.9,1,2.5c0.8,0.6,1.8,0.6,2.6,0.2l4.9-2.6
	l4.9,2.6c0.4,0.2,0.8,0.3,1.2,0.3c0.5,0,1-0.2,1.5-0.5c0.8-0.6,1.2-1.5,1-2.5l-0.9-5.5l4-3.9C118.2,180.8,118.5,179.8,118.2,178.9z"
	/>
<g>
	<path fill="#808080" d="M63.5,155.2c-1.5,0-2.7-0.3-3.8-0.9c-1-0.6-1.9-1.4-2.4-2.5c-0.6-1.1-0.8-2.4-0.8-3.8
		c0-1.5,0.3-2.8,0.8-3.8s1.4-1.9,2.4-2.5c1-0.6,2.3-0.9,3.8-0.9c0.7,0,1.5,0.1,2.2,0.3c0.7,0.2,1.3,0.5,1.9,0.8
		c0.3,0.2,0.6,0.5,0.6,0.8c0.1,0.3,0,0.6-0.1,0.9c-0.1,0.3-0.4,0.4-0.7,0.5c-0.3,0.1-0.6,0-1-0.2c-0.4-0.3-0.9-0.5-1.3-0.6
		s-1-0.2-1.5-0.2c-1.4,0-2.5,0.4-3.3,1.3c-0.7,0.9-1.1,2.1-1.1,3.7s0.4,2.8,1.1,3.7c0.7,0.9,1.8,1.3,3.3,1.3c0.5,0,1-0.1,1.5-0.2
		c0.5-0.1,1-0.3,1.4-0.6c0.4-0.2,0.7-0.3,1-0.2c0.3,0.1,0.5,0.2,0.6,0.5c0.1,0.2,0.2,0.5,0.1,0.8c-0.1,0.3-0.2,0.6-0.5,0.8
		c-0.5,0.4-1.2,0.7-1.9,0.9C65,155.1,64.3,155.2,63.5,155.2z"/>
	<path fill="#808080" d="M75.1,155.2c-0.9,0-1.8-0.1-2.6-0.3s-1.6-0.5-2.2-0.9c-0.3-0.2-0.5-0.4-0.6-0.7c-0.1-0.3,0-0.6,0.1-0.8
		c0.1-0.3,0.3-0.4,0.5-0.5c0.2-0.1,0.5-0.1,0.9,0.1c0.6,0.3,1.2,0.6,1.9,0.8c0.7,0.2,1.3,0.2,2.1,0.2c1.1,0,1.8-0.2,2.3-0.5
		c0.5-0.4,0.7-0.8,0.7-1.4c0-0.5-0.2-0.8-0.5-1.1s-0.9-0.5-1.8-0.7l-2.2-0.5c-2.5-0.5-3.8-1.8-3.8-3.9c0-0.9,0.2-1.6,0.7-2.3
		c0.5-0.7,1.1-1.2,1.9-1.5s1.8-0.5,2.9-0.5c0.8,0,1.6,0.1,2.3,0.3c0.7,0.2,1.4,0.5,1.9,0.9c0.3,0.2,0.4,0.4,0.5,0.7
		c0.1,0.3,0,0.5-0.1,0.8c-0.1,0.2-0.3,0.4-0.6,0.5s-0.6,0-0.9-0.2c-0.5-0.3-1-0.5-1.5-0.6s-1.1-0.2-1.6-0.2c-0.9,0-1.6,0.2-2.2,0.6
		s-0.8,0.9-0.8,1.5c0,0.5,0.2,0.9,0.5,1.2c0.3,0.3,0.9,0.5,1.6,0.7l2.2,0.5c1.3,0.3,2.3,0.7,3,1.3c0.6,0.6,1,1.4,1,2.4
		c0,0.8-0.2,1.6-0.7,2.2c-0.5,0.6-1.1,1.1-1.9,1.5C77.3,155.1,76.3,155.2,75.1,155.2z"/>
	<path fill="#808080" d="M87.8,155.2c-0.9,0-1.8-0.1-2.6-0.3s-1.6-0.5-2.2-0.9c-0.3-0.2-0.5-0.4-0.6-0.7c-0.1-0.3,0-0.6,0.1-0.8
		c0.1-0.3,0.3-0.4,0.5-0.5c0.2-0.1,0.5-0.1,0.9,0.1c0.6,0.3,1.2,0.6,1.9,0.8c0.7,0.2,1.3,0.2,2.1,0.2c1.1,0,1.8-0.2,2.3-0.5
		c0.5-0.4,0.7-0.8,0.7-1.4c0-0.5-0.2-0.8-0.5-1.1s-0.9-0.5-1.8-0.7l-2.2-0.5c-2.5-0.5-3.8-1.8-3.8-3.9c0-0.9,0.2-1.6,0.7-2.3
		c0.5-0.7,1.1-1.2,1.9-1.5c0.8-0.4,1.8-0.5,2.9-0.5c0.8,0,1.6,0.1,2.3,0.3c0.7,0.2,1.4,0.5,1.9,0.9c0.3,0.2,0.4,0.4,0.5,0.7
		c0.1,0.3,0,0.5-0.1,0.8c-0.1,0.2-0.3,0.4-0.6,0.5s-0.6,0-0.9-0.2c-0.5-0.3-1-0.5-1.5-0.6s-1.1-0.2-1.6-0.2c-0.9,0-1.6,0.2-2.2,0.6
		c-0.5,0.4-0.8,0.9-0.8,1.5c0,0.5,0.2,0.9,0.5,1.2c0.3,0.3,0.9,0.5,1.6,0.7l2.2,0.5c1.3,0.3,2.3,0.7,3,1.3c0.6,0.6,1,1.4,1,2.4
		c0,0.8-0.2,1.6-0.7,2.2c-0.5,0.6-1.1,1.1-1.9,1.5C89.9,155.1,88.9,155.2,87.8,155.2z"/>
</g>
<g id="_x32_ECBMF_1_">
	<g>
		<g>
			<path fill="#CCCCCC" d="M27.8,13c31.4,0,62.8,0,94.2,0c-0.1,1-0.2,2-0.2,2.9c-0.7,7.7-1.3,15.4-2,23.1
				c-0.7,8.4-1.5,16.7-2.2,25.1c-0.7,7.9-1.4,15.9-2.1,23.8c-0.7,7.8-1.4,15.5-2,23.3c0,0.5-0.2,0.7-0.7,0.8
				c-12.5,3.5-25,7.1-37.4,10.6c-0.3,0.1-0.7,0.1-1,0c-12.5-3.6-25-7.1-37.5-10.7c-0.5-0.1-0.6-0.4-0.6-0.8c-1-11.4-2-22.8-2.9-34.1
				c-0.8-9.3-1.6-18.6-2.4-27.9c-0.8-8.8-1.5-17.6-2.3-26.4c-0.3-3.1-0.6-6.3-0.8-9.4C27.8,13.3,27.8,13.2,27.8,13z M49.1,76.1
				c0,0.2,0,0.4,0,0.6c0.1,1.6,0.3,3.1,0.4,4.7c0.4,4.4,0.8,8.8,1.1,13.1c0,0.4,0.2,0.7,0.6,0.8c7.7,2.2,15.5,4.4,23.2,6.6
				c0.2,0.1,0.5,0.1,0.8,0c7.8-2.2,15.5-4.4,23.3-6.6c0.4-0.1,0.5-0.3,0.6-0.7c0.8-9.1,1.6-18.1,2.4-27.2c1-11.1,1.9-22.2,2.9-33.3
				c0-0.2,0-0.4,0-0.7c-19.7,0-39.3,0-58.9,0c0,0.2,0,0.4,0,0.6c0.3,3.5,0.6,7,0.9,10.4c0.1,1,0.1,1,1.1,1c14.5,0,28.9,0,43.4,0
				c0.2,0,0.5,0,0.8,0c0,0.2,0,0.4,0,0.5c-0.3,3.8-0.7,7.5-1,11.3c0,0.6-0.3,0.7-0.8,0.7c-9.3,0-18.7,0-28,0c-0.2,0-0.5,0-0.8,0
				c0.3,4.1,0.7,8.2,1,12.3c9.2,0,18.4,0,27.5,0c0,0.1,0,0.2,0,0.3c-0.4,5-0.9,10-1.3,15.1c0,0.3-0.2,0.5-0.5,0.5
				c-4.1,1.1-8.1,2.3-12.2,3.4c-0.2,0.1-0.5,0.1-0.7,0c-4.1-1.2-8.2-2.3-12.4-3.5c-0.4-0.1-0.6-0.3-0.6-0.7
				c-0.2-2.9-0.5-5.7-0.7-8.6c0-0.4-0.1-0.6-0.6-0.6c-3.6,0-7.3,0-10.9,0C49.4,76.1,49.3,76.1,49.1,76.1z"/>
		</g>
	</g>
</g>
</svg>
