<?xml version="1.0" encoding="utf-8"?>
<!-- Generator: Adobe Illustrator 25.0.1, SVG Export Plug-In . SVG Version: 6.00 Build 0)  -->
<svg version="1.1" baseProfile="tiny" id="Layer_1" xmlns="http://www.w3.org/2000/svg" xmlns:xlink="http://www.w3.org/1999/xlink"
	 x="0px" y="0px" width="150px" height="200px" viewBox="0 0 150 200" overflow="visible" xml:space="preserve">
<g id="_x33_9qbID_1_">
	<g>
		<g>
			<path fill="#CCCCCC" d="M40.9,97.1c-3.1,2.6-6.4,4-10.4,2.8c-4.1-1.2-7-4.6-7.4-8.5c-0.4-4.5,1.5-8.5,5.6-10.3c2-0.9,2.5-2,2.4-4
				c-0.1-7.6-0.1-15.1,0-22.7c0-1.8-0.5-2.6-2.2-3.4c-5.5-2.5-7.6-9.1-4.7-14.1c3.1-5.3,9.6-6.9,14.7-3.3c1.4,1,2.4,1.2,4,0.2
				c6.8-4,13.6-7.9,20.5-11.9c1.1-0.7,1.7-1.2,1.5-2.9c-0.6-4.2,1.1-7.7,4.8-9.9C73.3,6.9,77,7,80.5,9.2c3.5,2.3,5.1,5.7,4.6,9.8
				c-0.2,1.4,0,2.1,1.2,2.7c7.1,4,14.2,8.1,21.2,12.2c1.2,0.7,1.9,0.6,3-0.2c5.5-3.8,12-2.4,15.2,3c3,5.2,0.8,11.4-5.1,14.4
				c-0.8,0.4-1.6,1.7-1.6,2.5c-0.1,8.1-0.1,16.2,0,24.3c0,0.9,0.8,2.1,1.6,2.5c6,3.1,8.1,9.3,4.9,14.7c-3.2,5.3-9.8,6.5-15.3,2.7
				c-0.7-0.5-2.2-0.6-2.9-0.2c-7,3.9-13.9,7.9-20.8,11.9c-1.3,0.7-1.8,1.4-1.5,3.1c0.7,4.1-1,7.5-4.4,9.8c-3.6,2.4-7.4,2.4-11,0.1
				c-3.5-2.2-5-5.6-4.8-9.8c0-0.9-0.3-2.2-0.8-2.6C56.3,105.9,48.6,101.5,40.9,97.1z M74.9,87.8c8.9,0,17.8-0.1,26.7,0.1
				c3.2,0.1,5.7,0,7.1-3.6c0.6-1.5,0.9-2.4,0-3.8c-9.8-16.9-19.5-33.8-29.3-50.7c-1.8-3.1-7-3.1-8.8,0
				c-9.8,16.9-19.5,33.8-29.3,50.7c-1.5,2.7,1.1,7.3,4.2,7.3C55.3,87.8,65.1,87.8,74.9,87.8z M42.7,92.6c0.8,0.7,1.1,1,1.3,1.1
				c7.4,4.3,14.7,8.6,22.1,12.8c0.7,0.4,2,0.1,2.7-0.4c4.1-2.7,8.5-2.7,12.4,0.3c1.2,1,2.1,0.9,3.3,0.2c6.8-4,13.7-7.9,20.5-11.9
				c0.7-0.4,1.3-1,1.9-1.5c-0.1-0.2-0.2-0.4-0.3-0.6C85.6,92.6,64.5,92.6,42.7,92.6z M35.6,80c0.2,0.1,0.5,0.1,0.7,0.2
				c10.6-18.3,21.1-36.6,32-55.5c-1.2,0.3-1.6,0.3-1.9,0.4c-7.4,4.2-14.8,8.5-22.1,12.8c-0.8,0.5-1.3,2-1.2,3c0.2,4.6-1.7,8-5.8,9.9
				c-1.7,0.8-2.2,1.8-2.1,3.4c0,7.7,0,15.5,0,23.2C35.4,78.4,35.5,79.2,35.6,80z M82.6,24.8c-0.2,0.2-0.4,0.4-0.6,0.6
				c10.6,18.3,21.1,36.6,31.8,55c0.5-0.6,0.6-0.6,0.6-0.7c0.1-8.9,0.2-17.7,0.1-26.6c0-0.6-0.7-1.4-1.3-1.7
				c-4.7-2.1-6.7-5.7-6.5-10.8c0-0.9-0.8-2.3-1.7-2.8c-3.8-2.4-7.8-4.6-11.7-6.8C89.8,28.9,86.2,26.8,82.6,24.8z"/>
		</g>
	</g>
</g>
<path fill="#333333" d="M88.1,178.9c-0.3-0.9-1.1-1.6-2-1.7l-5.5-0.8l-2.4-5c-0.4-0.9-1.3-1.4-2.2-1.4c-1,0-1.8,0.5-2.2,1.4l-2.4,5
	l-5.5,0.8c-0.9,0.1-1.7,0.8-2,1.7c-0.3,0.9,0,1.9,0.6,2.6l4,3.9l-0.9,5.5c-0.2,0.9,0.2,1.9,1,2.5c0.8,0.6,1.8,0.6,2.6,0.2l4.9-2.6
	l4.9,2.6c0.4,0.2,0.8,0.3,1.2,0.3c0.5,0,1-0.2,1.5-0.5c0.8-0.6,1.2-1.5,1-2.5l-0.9-5.5l4-3.9C88.2,180.8,88.4,179.8,88.1,178.9z"/>
<path fill="#FFA300" d="M58.1,178.9c-0.3-0.9-1.1-1.6-2-1.7l-5.5-0.8l-2.4-5c-0.4-0.9-1.3-1.4-2.2-1.4c-1,0-1.8,0.5-2.2,1.4l-2.4,5
	l-5.5,0.8c-0.9,0.1-1.7,0.8-2,1.7c-0.3,0.9,0,1.9,0.6,2.6l4,3.9l-0.9,5.5c-0.2,0.9,0.2,1.9,1,2.5c0.8,0.6,1.8,0.6,2.6,0.2l4.9-2.6
	l4.9,2.6c0.4,0.2,0.8,0.3,1.2,0.3c0.5,0,1-0.2,1.5-0.5c0.8-0.6,1.2-1.5,1-2.5l-0.9-5.5l4-3.9C58.1,180.8,58.4,179.8,58.1,178.9z"/>
<path fill="#333333" d="M118.2,178.9c-0.3-0.9-1.1-1.6-2-1.7l-5.5-0.8l-2.4-5c-0.4-0.9-1.3-1.4-2.2-1.4s-1.8,0.5-2.2,1.4l-2.4,5
	l-5.5,0.8c-0.9,0.1-1.7,0.8-2,1.7c-0.3,0.9,0,1.9,0.6,2.6l4,3.9l-0.9,5.5c-0.2,0.9,0.2,1.9,1,2.5c0.8,0.6,1.8,0.6,2.6,0.2l4.9-2.6
	l4.9,2.6c0.4,0.2,0.8,0.3,1.2,0.3c0.5,0,1-0.2,1.5-0.5c0.8-0.6,1.2-1.5,1-2.5l-0.9-5.5l4-3.9C118.2,180.8,118.5,179.8,118.2,178.9z"
	/>
<g>
	<path fill="#808080" d="M33.8,155.2c-1.6,0-2.9-0.3-3.9-0.9c-1.1-0.6-1.9-1.4-2.5-2.5s-0.8-2.4-0.8-3.8c0-1.5,0.3-2.8,0.9-3.9
		s1.4-1.9,2.5-2.5c1.1-0.6,2.4-0.9,3.9-0.9c0.7,0,1.5,0.1,2.2,0.3c0.8,0.2,1.5,0.5,2.1,0.9c0.3,0.2,0.5,0.4,0.5,0.7
		c0,0.3,0,0.6-0.1,0.8c-0.1,0.3-0.3,0.4-0.6,0.5s-0.6,0.1-0.9-0.1c-0.5-0.3-1-0.5-1.5-0.6c-0.5-0.1-1.1-0.2-1.7-0.2
		c-1.5,0-2.6,0.4-3.4,1.3c-0.8,0.9-1.2,2.1-1.2,3.7c0,1.6,0.4,2.9,1.2,3.7c0.8,0.9,2,1.3,3.5,1.3c0.4,0,0.9,0,1.4-0.1
		s0.9-0.2,1.4-0.3v-3.3h-2.2c-0.7,0-1-0.3-1-1c0-0.6,0.3-0.9,1-0.9h3.3c0.7,0,1,0.3,1,1v4.9c0,0.6-0.2,1-0.7,1.2
		c-0.6,0.2-1.3,0.4-2,0.5C35.3,155.2,34.5,155.2,33.8,155.2z"/>
	<path fill="#808080" d="M43,155.2c-0.9,0-1.3-0.4-1.3-1.3v-11.6c0-0.9,0.4-1.3,1.3-1.3h4.8c1.5,0,2.7,0.4,3.6,1.1
		c0.8,0.7,1.3,1.8,1.3,3.1c0,1.1-0.3,1.9-0.8,2.6c-0.5,0.7-1.3,1.1-2.4,1.4c0.7,0.2,1.2,0.7,1.7,1.5l1.5,2.8
		c0.2,0.4,0.3,0.8,0.1,1.2c-0.1,0.4-0.5,0.5-1,0.5c-0.4,0-0.7-0.1-0.9-0.2c-0.2-0.2-0.4-0.4-0.6-0.7l-2-3.7
		c-0.2-0.5-0.5-0.8-0.9-0.9c-0.3-0.2-0.7-0.2-1.2-0.2h-1.9v4.5C44.3,154.8,43.9,155.2,43,155.2z M44.3,147.5h3.1
		c1.9,0,2.8-0.8,2.8-2.3c0-1.5-0.9-2.3-2.8-2.3h-3.1V147.5z"/>
	<path fill="#808080" d="M55.3,155.2c-0.5,0-0.8-0.2-1-0.5c-0.2-0.3-0.2-0.7,0-1.2l5.3-11.7c0.2-0.4,0.4-0.7,0.6-0.8
		s0.5-0.2,0.9-0.2c0.3,0,0.6,0.1,0.8,0.2c0.2,0.2,0.5,0.4,0.6,0.8l5.3,11.7c0.2,0.5,0.2,0.9,0,1.2c-0.2,0.3-0.5,0.5-1,0.5
		c-0.4,0-0.7-0.1-0.9-0.3c-0.2-0.2-0.4-0.5-0.6-0.8l-1-2.3h-6.9l-1,2.3c-0.2,0.4-0.4,0.7-0.5,0.8C55.9,155.1,55.7,155.2,55.3,155.2z
		 M61.1,143.7l-2.5,6h5.1L61.1,143.7L61.1,143.7z"/>
	<path fill="#808080" d="M71.3,155.2c-0.9,0-1.3-0.4-1.3-1.3v-11.6c0-0.9,0.4-1.3,1.3-1.3h4.8c1.5,0,2.7,0.4,3.6,1.2
		s1.3,1.9,1.3,3.2c0,1.4-0.4,2.5-1.3,3.2c-0.8,0.8-2,1.2-3.6,1.2h-3.6v4.1C72.6,154.8,72.2,155.2,71.3,155.2z M72.6,147.7h3.2
		c1.8,0,2.8-0.8,2.8-2.4c0-1.6-0.9-2.4-2.8-2.4h-3.2V147.7z"/>
	<path fill="#808080" d="M84.4,155.2c-0.9,0-1.3-0.4-1.3-1.3v-11.8c0-0.9,0.4-1.3,1.3-1.3s1.3,0.4,1.3,1.3v4.7h7.3v-4.7
		c0-0.9,0.4-1.3,1.3-1.3c0.9,0,1.3,0.4,1.3,1.3v11.8c0,0.9-0.4,1.3-1.3,1.3c-0.9,0-1.3-0.4-1.3-1.3V149h-7.3v4.9
		C85.7,154.8,85.2,155.2,84.4,155.2z"/>
	<path fill="#808080" d="M110.3,157.3c0.2,0.4,0.3,0.7,0.2,1c-0.1,0.3-0.3,0.5-0.6,0.6s-0.6,0.2-0.9,0.1c-0.3-0.1-0.6-0.3-0.8-0.6
		l-1.4-2.2c-0.4-0.6-1-0.9-1.9-0.9c-1.4,0-2.5-0.3-3.6-0.9c-1-0.6-1.8-1.4-2.4-2.5c-0.6-1.1-0.8-2.4-0.8-3.8c0-1.5,0.3-2.8,0.8-3.8
		c0.6-1.1,1.3-1.9,2.4-2.5c1-0.6,2.2-0.9,3.6-0.9c1.4,0,2.6,0.3,3.6,0.9c1,0.6,1.8,1.4,2.4,2.5c0.6,1.1,0.8,2.4,0.8,3.8
		c0,1.6-0.3,3-1,4.1c-0.7,1.1-1.6,2-2.7,2.5c0.3,0.1,0.6,0.3,0.8,0.5s0.5,0.5,0.7,0.9L110.3,157.3z M104.9,153c1.3,0,2.3-0.4,3-1.3
		c0.7-0.9,1.1-2.1,1.1-3.7c0-1.6-0.4-2.8-1.1-3.7c-0.7-0.9-1.7-1.3-3-1.3c-1.3,0-2.3,0.4-3,1.3c-0.7,0.9-1.1,2.1-1.1,3.7
		c0,1.6,0.4,2.8,1.1,3.7C102.6,152.6,103.6,153,104.9,153z"/>
	<path fill="#808080" d="M115.6,155c-0.9,0-1.3-0.4-1.3-1.3v-11.5c0-0.9,0.4-1.3,1.3-1.3c0.9,0,1.3,0.4,1.3,1.3v10.7h5.8
		c0.7,0,1.1,0.4,1.1,1.1c0,0.7-0.4,1.1-1.1,1.1H115.6z"/>
</g>
</svg>
