<?xml version="1.0" encoding="utf-8"?>
<!-- Generator: Adobe Illustrator 25.0.1, SVG Export Plug-In . SVG Version: 6.00 Build 0)  -->
<svg version="1.1" baseProfile="tiny" id="Layer_1" xmlns="http://www.w3.org/2000/svg" xmlns:xlink="http://www.w3.org/1999/xlink"
	 x="0px" y="0px" width="150px" height="200px" viewBox="0 0 150 200" overflow="visible" xml:space="preserve">
<path fill="#FFA300" d="M88.1,178.9c-0.3-0.9-1.1-1.6-2-1.7l-5.5-0.8l-2.4-5c-0.4-0.9-1.3-1.4-2.2-1.4c-1,0-1.8,0.5-2.2,1.4l-2.4,5
	l-5.5,0.8c-0.9,0.1-1.7,0.8-2,1.7c-0.3,0.9,0,1.9,0.6,2.6l4,3.9l-0.9,5.5c-0.2,0.9,0.2,1.9,1,2.5c0.8,0.6,1.8,0.6,2.6,0.2l4.9-2.6
	l4.9,2.6c0.4,0.2,0.8,0.3,1.2,0.3c0.5,0,1-0.2,1.5-0.5c0.8-0.6,1.2-1.5,1-2.5l-0.9-5.5l4-3.9C88.2,180.8,88.4,179.8,88.1,178.9z"/>
<path fill="#FFA300" d="M58.1,178.9c-0.3-0.9-1.1-1.6-2-1.7l-5.5-0.8l-2.4-5c-0.4-0.9-1.3-1.4-2.2-1.4c-1,0-1.8,0.5-2.2,1.4l-2.4,5
	l-5.5,0.8c-0.9,0.1-1.7,0.8-2,1.7c-0.3,0.9,0,1.9,0.6,2.6l4,3.9l-0.9,5.5c-0.2,0.9,0.2,1.9,1,2.5c0.8,0.6,1.8,0.6,2.6,0.2l4.9-2.6
	l4.9,2.6c0.4,0.2,0.8,0.3,1.2,0.3c0.5,0,1-0.2,1.5-0.5c0.8-0.6,1.2-1.5,1-2.5l-0.9-5.5l4-3.9C58.1,180.8,58.4,179.8,58.1,178.9z"/>
<path fill="#FFA300" d="M118.2,178.9c-0.3-0.9-1.1-1.6-2-1.7l-5.5-0.8l-2.4-5c-0.4-0.9-1.3-1.4-2.2-1.4s-1.8,0.5-2.2,1.4l-2.4,5
	l-5.5,0.8c-0.9,0.1-1.7,0.8-2,1.7c-0.3,0.9,0,1.9,0.6,2.6l4,3.9l-0.9,5.5c-0.2,0.9,0.2,1.9,1,2.5c0.8,0.6,1.8,0.6,2.6,0.2l4.9-2.6
	l4.9,2.6c0.4,0.2,0.8,0.3,1.2,0.3c0.5,0,1-0.2,1.5-0.5c0.8-0.6,1.2-1.5,1-2.5l-0.9-5.5l4-3.9C118.2,180.8,118.5,179.8,118.2,178.9z"
	/>
<g>
	<path fill="#808080" d="M49.3,155.2c-0.9,0-1.3-0.4-1.3-1.3v-11.8c0-0.9,0.4-1.3,1.3-1.3c0.9,0,1.3,0.4,1.3,1.3v4.7h7.3v-4.7
		c0-0.9,0.4-1.3,1.3-1.3c0.9,0,1.3,0.4,1.3,1.3v11.8c0,0.9-0.4,1.3-1.3,1.3c-0.9,0-1.3-0.4-1.3-1.3V149h-7.3v4.9
		C50.6,154.8,50.1,155.2,49.3,155.2z"/>
	<path fill="#808080" d="M68.1,155.2c-0.9,0-1.3-0.4-1.3-1.3v-10.8H63c-0.7,0-1.1-0.4-1.1-1.1c0-0.7,0.4-1.1,1.1-1.1h10.4
		c0.7,0,1.1,0.4,1.1,1.1c0,0.7-0.4,1.1-1.1,1.1h-3.9v10.8C69.4,154.8,69,155.2,68.1,155.2z"/>
	<path fill="#808080" d="M77.1,155.2c-0.8,0-1.2-0.4-1.2-1.2v-12c0-0.8,0.4-1.2,1.2-1.2c0.3,0,0.6,0.1,0.8,0.2
		c0.2,0.1,0.4,0.3,0.5,0.6l4.6,8.5l4.6-8.5c0.2-0.3,0.3-0.5,0.5-0.6c0.2-0.1,0.4-0.2,0.8-0.2c0.8,0,1.2,0.4,1.2,1.2v12
		c0,0.8-0.4,1.2-1.2,1.2c-0.8,0-1.2-0.4-1.2-1.2v-8.5l-3.8,6.9c-0.1,0.2-0.3,0.4-0.4,0.5c-0.1,0.1-0.3,0.2-0.6,0.2s-0.5-0.1-0.6-0.2
		s-0.3-0.3-0.4-0.5l-3.8-6.8v8.4C78.2,154.8,77.9,155.2,77.1,155.2z"/>
	<path fill="#808080" d="M94.5,155c-0.9,0-1.3-0.4-1.3-1.3v-11.5c0-0.9,0.4-1.3,1.3-1.3c0.9,0,1.3,0.4,1.3,1.3v10.7h5.8
		c0.7,0,1.1,0.4,1.1,1.1c0,0.7-0.4,1.1-1.1,1.1H94.5z"/>
</g>
<g id="f23qXb_1_">
	<g>
		<g>
			<path fill="#CCCCCC" d="M75.5,13.8c14.7,0,29.3,0,44,0c2.8,0,4.1,1.4,3.9,4.2c-0.6,7.4-1.2,14.9-1.8,22.3
				c-0.7,8.8-1.3,17.6-2,26.4c-0.7,8.8-1.4,17.5-2.1,26.3c-0.4,5-0.8,9.9-1.1,14.9c-0.2,2.2-0.9,3.1-3,3.8
				c-12.1,3.8-24.2,7.7-36.3,11.5c-1.1,0.4-2.2,0.4-3.3,0c-12.1-3.9-24.2-7.7-36.3-11.5c-2-0.6-2.7-1.6-2.9-3.7
				c-0.6-7.4-1.2-14.8-1.7-22.2c-0.5-5.9-0.9-11.7-1.3-17.6c-0.6-7.9-1.3-15.8-1.9-23.7c-0.4-5-0.8-10.1-1.1-15.1
				c-0.3-3.8-0.6-7.7-0.9-11.5c-0.2-2.8,1.1-4.2,3.9-4.2C46.1,13.8,60.8,13.8,75.5,13.8z M58.8,45.8c0.5,0,0.9,0,1.3,0
				c10.3,0,20.5,0,30.8,0c4.5,0,8.9,0,13.4,0c0.7,0,1-0.1,1.1-0.9c0.2-3.4,0.5-6.7,0.8-10.1c0.1-0.9-0.2-1.1-1-1.1
				c-3.1,0-6.1,0-9.2,0c-16.6,0-33.3,0-49.9,0c-1.3,0-1.3,0-1.2,1.3c0.2,3.1,0.5,6.3,0.7,9.4c0.3,4.1,0.6,8.2,1,12.3
				c0.3,4.2,0.7,8.4,1,12.6c0.1,1.3,0.1,1.3,1.3,1.3c13.6,0,27.3,0,40.9,0c0.4,0,0.8,0,1.1,0c0,0.2,0.1,0.2,0.1,0.2
				c-0.3,4.8-0.7,9.5-1,14.3c0,0.2-0.4,0.5-0.6,0.6c-4.3,1.2-8.6,2.3-12.9,3.5c-0.4,0.1-0.8,0.1-1.1,0c-4.2-1.1-8.5-2.3-12.7-3.4
				c-0.6-0.2-0.8-0.4-0.8-1c0-2.5,0-5,0-7.6c0-0.8-0.2-1.1-1-1.1c-3.9,0-7.8,0-11.7,0c-0.8,0-1,0.2-0.9,1c0.5,5.9,0.9,11.7,1.4,17.6
				c0,0.5,0.2,0.8,0.7,1c8.2,2.6,16.5,5.2,24.7,7.8c0.3,0.1,0.8,0.1,1.1,0c8.2-2.6,16.5-5.2,24.7-7.8c0.5-0.2,0.7-0.4,0.7-1
				c0.3-4.5,0.7-8.9,1-13.4c0.6-7.4,1.2-14.8,1.7-22.2c0-0.2,0-0.4,0-0.7c-0.4,0-0.7,0-1,0c-3.6,0-7.2,0-10.8,0
				c-10.4,0-20.8,0-31.2,0c-0.6,0-1,0-1.1-0.8C59.6,53.8,59.2,49.9,58.8,45.8z"/>
		</g>
	</g>
</g>
</svg>
