<?xml version="1.0" encoding="utf-8"?>
<!-- Generator: Adobe Illustrator 25.0.1, SVG Export Plug-In . SVG Version: 6.00 Build 0)  -->
<svg version="1.1" baseProfile="tiny" id="Layer_1" xmlns="http://www.w3.org/2000/svg" xmlns:xlink="http://www.w3.org/1999/xlink"
	 x="0px" y="0px" width="100px" height="100px" viewBox="0 0 100 100" overflow="visible" xml:space="preserve">
<circle fill="#FFFFFF" cx="50" cy="50" r="48"/>
<g id="_x32_0s5hl_1_">
	<g>
		<g>
			<path fill="#333333" d="M36.8,46.7c1.1,0.9,1.7,2.1,1.7,3.5c0,1.4-0.8,2.5-1.8,3.3c1.5,0,3,0,4.5,0c0.8,0,1.3,0.6,1.4,1.4
				c0,0.7-0.6,1.3-1.3,1.4c-0.2,0-0.3,0-0.5,0c2.1,2.1,4.2,4.2,6.3,6.3c0.6-0.5,1.2-0.9,1.9-1.1c1.4-0.3,2.7,0,3.7,1
				c1,0.9,2,1.9,2.9,2.9c1.6,1.6,1.8,3.8,0.3,5.5c-1.1,1.3-2.4,2.5-3.7,3.6c-1.5,1.2-3.9,1-5.2-0.4c-1-1-2-2-3-3
				c-1.5-1.5-1.5-4.1-0.1-5.6c0.4-0.4,0.7-0.7,1.1-1.1c-2.1-2.1-4.2-4.2-6.3-6.3c0,0.2,0,0.3,0,0.5c0,0.8-0.6,1.4-1.4,1.4
				c-0.8,0-1.3-0.6-1.4-1.4c0-1.2,0-2.5,0-3.7c0-0.2,0.1-0.5,0.1-0.8c-0.5,0.5-1,1-1.5,1.5c-0.4,0.3-0.8,0.7-1.3,0.9
				c-1.5,0.8-3.4,0.5-4.6-0.7c-1-1-2-2-3-3c-1.5-1.5-1.5-4.1,0-5.6c1-1.1,2-2.1,3.1-3.1c1.6-1.5,4-1.5,5.6,0
				c0.2,0.2,0.3,0.3,0.5,0.5c2-2,3.9-3.9,5.8-5.8c-0.2,0-0.4,0-0.6,0c-0.7-0.1-1.2-0.6-1.2-1.3c0-0.7,0.5-1.3,1.2-1.4
				c1.4,0,2.7,0,4.1,0c0.7,0,1.2,0.5,1.3,1.2c0,1.4,0,2.8,0,4.2c0,0.7-0.7,1.2-1.4,1.2c-0.7,0-1.3-0.5-1.3-1.2c0-0.2,0-0.4,0-0.6
				C40.7,42.8,38.8,44.7,36.8,46.7z M52.3,66c-0.5-0.5-0.9-0.9-1.4-1.4c-0.6-0.6-1.4-0.6-2.1,0c-0.9,0.9-1.8,1.8-2.7,2.7
				c-0.6,0.6-0.7,1.4-0.1,2.1c0.9,1,1.9,1.9,2.8,2.8c0.6,0.6,1.4,0.6,2,0c1-0.9,1.9-1.9,2.9-2.9c0.6-0.6,0.5-1.4-0.1-2
				C53.2,66.9,52.7,66.4,52.3,66z M33.9,52.5c0.5-0.5,0.9-0.9,1.4-1.4c0.7-0.7,0.7-1.4,0-2.1c-0.9-0.9-1.8-1.8-2.7-2.7
				c-0.7-0.7-1.4-0.7-2.1,0c-0.9,0.9-1.8,1.8-2.7,2.7c-0.6,0.6-0.7,1.4,0,2.1c0.9,1,1.9,1.9,2.8,2.8c0.6,0.6,1.4,0.6,2.1,0
				C33,53.4,33.5,52.9,33.9,52.5z"/>
			<path fill="#333333" d="M54.7,35.5c2.1,2.1,4.2,4.2,6.3,6.3c0-0.2,0-0.4,0-0.5c0.1-0.8,0.6-1.4,1.4-1.4c0.7,0,1.3,0.6,1.3,1.4
				c0,1.2,0,2.5,0,3.7c0,0.2-0.1,0.5-0.1,0.8c0.6-0.6,1.1-1.2,1.7-1.7c1.2-1.1,2.7-1.4,4.2-0.8c0.6,0.2,1.1,0.6,1.5,1
				c1,0.9,1.9,1.8,2.8,2.7c1.7,1.7,1.7,4.2,0,5.9c-0.9,0.9-1.8,1.8-2.7,2.7c-1.8,1.8-4.2,1.8-6,0c-0.1-0.1-0.2-0.2-0.4-0.4
				c-2,2-3.9,3.9-5.9,5.9c0.2,0,0.4,0,0.5,0c0.8,0,1.3,0.6,1.3,1.4c0,0.7-0.6,1.3-1.4,1.3c-1.3,0-2.6,0-3.9,0
				c-0.8,0-1.4-0.6-1.4-1.4c0-1.3,0-2.6,0-3.9c0-0.8,0.6-1.4,1.4-1.4c0.8,0,1.3,0.6,1.4,1.3c0,0.2,0,0.3-0.1,0.5c0,0,0.1,0,0.1,0
				c1.9-1.9,3.8-3.8,5.8-5.8c-1-0.9-1.7-2-1.7-3.5c0-1.4,0.8-2.5,1.8-3.4c-1.5,0-2.9,0-4.4,0c-0.9,0-1.6-0.7-1.4-1.6
				c0.1-0.6,0.6-1,1.2-1.1c0.2,0,0.4,0,0.7,0c-2.1-2.1-4.2-4.2-6.2-6.2c-0.6,0.3-1.1,0.7-1.6,0.9c-1.5,0.5-2.9,0.2-4.1-0.9
				c-1-0.9-2-1.9-2.9-2.9c-1.6-1.6-1.8-3.8-0.3-5.5c1.1-1.3,2.3-2.5,3.6-3.5c1.5-1.3,3.6-1.3,5.1,0.1c1.3,1.1,2.5,2.3,3.6,3.6
				c1.3,1.4,1.1,3.8-0.2,5.2C55.5,34.8,55.1,35.1,54.7,35.5z M65.8,52.5c0.5,0.5,0.9,0.9,1.4,1.4c0.6,0.6,1.4,0.6,2,0
				c1-0.9,1.9-1.9,2.9-2.9c0.6-0.6,0.6-1.4,0-2c-0.9-1-1.9-1.9-2.8-2.8c-0.6-0.6-1.4-0.6-2,0c-0.9,0.9-1.9,1.9-2.8,2.8
				c-0.6,0.6-0.6,1.4,0,2C64.8,51.5,65.3,52,65.8,52.5z M47.5,34.1c0.5,0.5,0.9,0.9,1.4,1.4c0.6,0.6,1.4,0.6,2,0
				c1-0.9,1.9-1.9,2.8-2.8c0.6-0.6,0.6-1.4,0-2c-0.9-0.9-1.9-1.9-2.8-2.8c-0.6-0.6-1.4-0.6-2-0.1c-1,0.9-2,1.9-2.9,2.9
				c-0.6,0.6-0.5,1.4,0.1,2C46.5,33.2,47,33.6,47.5,34.1z"/>
		</g>
	</g>
</g>
</svg>
