<?xml version="1.0" encoding="utf-8"?>
<!-- Generator: Adobe Illustrator 25.0.1, SVG Export Plug-In . SVG Version: 6.00 Build 0)  -->
<svg version="1.1" baseProfile="tiny" id="Layer_1" xmlns="http://www.w3.org/2000/svg" xmlns:xlink="http://www.w3.org/1999/xlink"
	 x="0px" y="0px" width="100px" height="100px" viewBox="0 0 100 100" overflow="visible" xml:space="preserve">
<circle fill="#FFFFFF" cx="50" cy="50" r="48"/>
<g>
	<g>
		<path fill="#333333" d="M45.2,57.6c-0.6-0.2-1.2-0.4-1.8-0.7c-0.8-0.4-1.2-1.2-1.2-2.1c0-3.5,0-6.9,0-10.4c0-2.6,2.3-4.9,5-5
			c1.9-0.1,3.9-0.1,5.8,0c2.8,0.2,5,2.5,5.1,5.4c0.1,3.3,0,6.6,0,9.9c0,1.2-0.8,2.2-2,2.5c-0.3,0.1-0.6,0.1-1,0.2c0,0.2,0,0.4,0,0.6
			c0,2.4,0,4.7,0,7.1c0,1.8-0.9,2.9-2.6,3c-1.7,0.1-3.4,0-5-0.1c-1.1-0.1-2-1-2.2-2.1c-0.1-0.3-0.1-0.7-0.1-1c0-2.3,0-4.6,0-6.9
			C45.2,57.9,45.2,57.8,45.2,57.6z M48,65.5c1.3,0,2.5,0,3.8,0c0.5,0,0.7-0.2,0.6-0.7c0-3.2,0-6.4,0-9.6c0-0.5,0.2-0.6,0.6-0.6
			c0.6,0,1.2,0,1.8,0c0.5,0,0.6-0.1,0.6-0.6c0-2.3,0-4.7,0-7c0-0.8,0-1.6-0.1-2.4c-0.1-1.2-1.1-2.3-2.3-2.4c-1.8-0.1-3.7-0.1-5.5,0
			c-1.4,0.1-2.5,1.3-2.5,2.7c0,3.1,0,6.2,0,9.3c0,0.4,0.1,0.5,0.5,0.5c0.6,0,1.1,0,1.7,0c0.8,0,0.8,0,0.8,0.8c0,2.7,0,5.4,0,8.2
			C48,64.2,48,64.8,48,65.5z"/>
		<path fill="#333333" d="M36.6,65.7c1.2,0,2.4,0,3.5,0c0.4,0,0.3-0.3,0.3-0.5c0-2.7,0-5.5,0-8.2c0-0.3,0-0.5,0-0.8c0,0,0.1,0,0.1,0
			c0.1,0.1,0.1,0.2,0.2,0.3c0.4,1,1.1,1.7,1.9,2.2c0.2,0.1,0.3,0.4,0.3,0.6c0,2.1,0,4.3,0,6.4c0,1.7-1.1,2.6-2.8,2.6
			c-1.2,0-2.4,0-3.5,0c-1.6,0-2.6-1-2.6-2.6c0-2.2,0-4.3,0-6.5c0-0.4-0.1-0.6-0.5-0.7c-1.5-0.2-2.2-1.1-2.2-2.6c0-2.8,0.1-5.6,0-8.3
			c-0.1-2.4,1.7-4.9,4.3-5.2c1.7-0.2,3.4,0,5.1,0c-0.1,0.7-0.2,1.4-0.4,2.1c0,0.1-0.3,0.3-0.5,0.3c-1.1,0-2.3,0-3.4,0
			c-1.6,0-2.6,1-2.6,2.6c0,2.8,0,5.5,0,8.3c0,0.1,0,0.1,0,0.3c0.7,0,1.3,0,2,0c0.5,0,0.7,0.1,0.7,0.7c0,2.8,0,5.6,0,8.3
			C36.6,65.2,36.6,65.4,36.6,65.7z"/>
		<path fill="#333333" d="M60,56.2c0,3.1,0,6.3,0,9.5c1.3,0,2.5,0,3.9,0c0-0.2,0-0.4,0-0.6c0-2.8,0-5.6,0-8.3c0-0.7,0-0.7,0.7-0.7
			c0.6,0,1.2,0,1.9,0c0-0.2,0-0.4,0-0.6c0-2.6,0-5.2,0-7.7c0-1-0.2-1.9-1.1-2.4c-0.5-0.2-1-0.4-1.5-0.4c-1.1-0.1-2.2,0-3.3,0
			c-0.3,0-0.5-0.1-0.5-0.5c-0.1-0.7-0.2-1.3-0.4-2.1c0.3,0,0.6,0,0.8,0c1.5,0,3.1-0.1,4.6,0.2c2.2,0.3,3.9,2.3,4,4.6
			c0.1,3.1,0,6.2,0,9.2c0,1.1-0.8,2-2,2.2c-0.6,0.1-0.7,0.3-0.7,0.8c0,2,0,3.9,0,5.9c0,2.1-0.9,3-3,3c-1.1,0-2.2,0-3.3,0
			c-1.6,0-2.7-1-2.7-2.6c0-2.1,0-4.2,0-6.3c0-0.2,0.1-0.5,0.2-0.5c1-0.6,1.7-1.4,2.1-2.5c0,0,0.1-0.1,0.1-0.1
			C59.9,56.2,59.9,56.2,60,56.2z"/>
		<path fill="#333333" d="M23.8,57.4c0.6,0,1.1,0,1.6,0c0.7,0,0.7,0,0.7,0.8c0,2.4,0,4.8,0,7.3c0,0.4,0.1,0.6,0.6,0.6
			c0.7,0,1.5,0,2.2,0c0.4,0,0.6-0.1,0.5-0.5c0-2.5,0-5,0-7.5c0-0.2,0-0.4,0-0.5c0,0,0.1,0,0.1,0c0.1,0.1,0.1,0.2,0.2,0.3
			c0.3,0.8,0.9,1.5,1.6,2c0.2,0.1,0.3,0.4,0.3,0.6c0,1.8,0,3.7,0,5.5c0,1.6-0.9,2.5-2.5,2.5c-1,0-2,0-3,0c-1.7,0-2.5-0.9-2.5-2.5
			c0-1.8,0-3.7,0-5.5c0-0.4-0.1-0.5-0.5-0.6c-1.2-0.2-1.9-1-1.9-2.2c0-2.5,0-5.1,0-7.6c0-2.1,1.5-4.3,4.1-4.5c1.4-0.1,2.8,0,4.2,0
			c-0.1,0.7-0.2,1.5-0.3,2.2c-0.1,0-0.3,0-0.4,0c-1,0-1.9,0-2.9,0c-1.6,0-2.4,0.9-2.4,2.4c0,2.3,0,4.6,0,6.8
			C23.8,57,23.8,57.1,23.8,57.4z"/>
		<path fill="#333333" d="M70.9,57.3c0,0.3,0,0.5,0,0.7c0,2.5,0,4.9,0,7.4c0,0.5,0.1,0.6,0.6,0.6c0.7,0,1.4,0,2.1,0
			c0.5,0,0.6-0.1,0.6-0.6c0-2.5,0-4.9,0-7.4c0-0.5,0.1-0.7,0.6-0.6c0.6,0,1.1,0,1.7,0c0-0.2,0-0.3,0-0.5c0-2.3,0-4.6,0-6.9
			c0-1.5-0.9-2.4-2.4-2.4c-0.9,0-1.9,0-2.8,0c-0.2,0-0.3,0-0.5,0c0-0.4-0.1-0.8-0.1-1.2c0-0.4-0.1-0.7-0.2-1.1c0.6,0,1.1,0,1.6,0
			c1,0,2-0.1,3,0.1c2.4,0.4,3.7,2.1,3.8,4.6c0,2.4,0,4.9,0,7.3c0,1.4-0.6,2.1-2,2.3c-0.4,0.1-0.4,0.2-0.4,0.5c0,1.9,0,3.8,0,5.6
			c0,1.6-0.9,2.5-2.5,2.5c-1.1,0-2.1,0-3.2,0c-1.4,0-2.3-0.9-2.3-2.2c0-1.9,0-3.9,0-5.8c0-0.2,0.1-0.4,0.2-0.4
			c0.8-0.6,1.4-1.3,1.8-2.2C70.7,57.5,70.8,57.4,70.9,57.3z"/>
		<path fill="#333333" d="M50.2,37.6c-2.9,0.3-5.6-2.4-5.6-5.5c0-3.1,2.5-5.6,5.6-5.5c3.1,0,5.6,2.5,5.6,5.6
			C55.8,35.2,53.2,37.9,50.2,37.6z M50.2,29.3c-1.5,0-2.8,1.2-2.8,2.7c0,1.6,1.2,2.9,2.8,2.9c1.5,0,2.8-1.3,2.8-2.8
			C53,30.6,51.8,29.3,50.2,29.3z"/>
		<path fill="#333333" d="M61.9,40.6c-1.1,0-2.1,0-3-0.8C58,39,57.4,38.1,57,37c-0.3-1,0-2,0.3-3c0.3-1,0.8-1.7,1.6-2.2
			c1.7-1.2,3.5-1.4,5.3-0.4c1.8,1,2.8,2.6,2.7,4.7c-0.1,2-1.1,3.5-3,4.3C63.3,40.6,62.6,40.5,61.9,40.6z M59.5,35.8
			c0,1.4,1.1,2.5,2.4,2.5c1.3,0,2.5-1.1,2.5-2.4c0-1.3-1.1-2.5-2.4-2.5C60.6,33.3,59.5,34.4,59.5,35.8z"/>
		<path fill="#333333" d="M38.5,40.5c-1.2,0.2-2.3-0.1-3.2-0.9c-0.9-0.8-1.5-1.8-1.7-3c-0.4-2.3,1-4.6,3.2-5.5c2.2-0.8,4.8,0.1,6,2
			c1.5,2.5,0.7,5.6-1.8,7C40.2,40.6,39.3,40.4,38.5,40.5z M41,35.8c0-1.4-1.1-2.5-2.5-2.5c-1.3,0-2.4,1.1-2.4,2.5
			c0,1.4,1.1,2.5,2.5,2.5C39.9,38.2,41,37.1,41,35.8z"/>
		<path fill="#333333" d="M27.8,43.4c-0.4,0-0.8,0-1.2,0c-0.6,0.1-1.1-0.2-1.6-0.6c-1.5-1.2-2-3.3-1.3-5.1c0.7-1.8,2.5-2.9,4.5-2.8
			c1.8,0.1,3.5,1.5,3.9,3.4c0.5,1.9-0.3,3.8-2,4.8c-0.2,0.1-0.5,0.2-0.8,0.2C28.9,43.4,28.3,43.4,27.8,43.4z M25.7,39.5
			c0,1.2,1,2.1,2.1,2.1c1.2,0,2.1-1,2.1-2.1c0-1.2-1-2.2-2.1-2.1C26.6,37.3,25.7,38.3,25.7,39.5z"/>
		<path fill="#333333" d="M72.6,43.4c-0.5,0-0.9,0-1.4,0c-0.4-0.1-0.9-0.2-1.2-0.4c-1.6-1.1-2.2-3.1-1.7-4.9
			c0.6-1.8,2.3-3.1,4.2-3.1c1.9,0,3.6,1.2,4.2,3.1c0.6,1.8-0.1,3.8-1.6,4.9c-0.3,0.2-0.8,0.3-1.2,0.4C73.6,43.5,73.1,43.4,72.6,43.4
			z M74.7,39.5c0-1.2-0.9-2.2-2.1-2.2c-1.2,0-2.2,1-2.2,2.1c0,1.2,1,2.1,2.1,2.1C73.8,41.6,74.7,40.6,74.7,39.5z"/>
	</g>
</g>
</svg>
