<?xml version="1.0" encoding="utf-8"?>
<!-- Generator: Adobe Illustrator 25.0.1, SVG Export Plug-In . SVG Version: 6.00 Build 0)  -->
<svg version="1.1" baseProfile="tiny" id="Layer_1" xmlns="http://www.w3.org/2000/svg" xmlns:xlink="http://www.w3.org/1999/xlink"
	 x="0px" y="0px" width="150px" height="200px" viewBox="0 0 150 200" overflow="visible" xml:space="preserve">
<path fill="#FFA300" d="M88.1,178.9c-0.3-0.9-1.1-1.6-2-1.7l-5.5-0.8l-2.4-5c-0.4-0.9-1.3-1.4-2.2-1.4c-1,0-1.8,0.5-2.2,1.4l-2.4,5
	l-5.5,0.8c-0.9,0.1-1.7,0.8-2,1.7c-0.3,0.9,0,1.9,0.6,2.6l4,3.9l-0.9,5.5c-0.2,0.9,0.2,1.9,1,2.5s1.8,0.6,2.6,0.2l4.9-2.6l4.9,2.6
	c0.4,0.2,0.8,0.3,1.2,0.3c0.5,0,1-0.2,1.5-0.5c0.8-0.6,1.2-1.5,1-2.5l-0.9-5.5l4-3.9C88.2,180.8,88.4,179.8,88.1,178.9z"/>
<path fill="#FFA300" d="M58.1,178.9c-0.3-0.9-1.1-1.6-2-1.7l-5.5-0.8l-2.4-5c-0.4-0.9-1.3-1.4-2.2-1.4c-1,0-1.8,0.5-2.2,1.4l-2.4,5
	l-5.5,0.8c-0.9,0.1-1.7,0.8-2,1.7s0,1.9,0.6,2.6l4,3.9l-0.9,5.5c-0.2,0.9,0.2,1.9,1,2.5s1.8,0.6,2.6,0.2l4.9-2.6l4.9,2.6
	c0.4,0.2,0.8,0.3,1.2,0.3c0.5,0,1-0.2,1.5-0.5c0.8-0.6,1.2-1.5,1-2.5l-0.9-5.5l4-3.9C58.1,180.8,58.4,179.8,58.1,178.9z"/>
<path fill="#333333" d="M118.2,178.9c-0.3-0.9-1.1-1.6-2-1.7l-5.5-0.8l-2.4-5c-0.4-0.9-1.3-1.4-2.2-1.4s-1.8,0.5-2.2,1.4l-2.4,5
	l-5.5,0.8c-0.9,0.1-1.7,0.8-2,1.7s0,1.9,0.6,2.6l4,3.9l-0.9,5.5c-0.2,0.9,0.2,1.9,1,2.5s1.8,0.6,2.6,0.2l4.9-2.6l4.9,2.6
	c0.4,0.2,0.8,0.3,1.2,0.3c0.5,0,1-0.2,1.5-0.5c0.8-0.6,1.2-1.5,1-2.5l-0.9-5.5l4-3.9C118.2,180.8,118.5,179.8,118.2,178.9z"/>
<g id="Ca1Clp_1_">
	<g>
		<g>
			<path fill="#CCCCCC" d="M74.7,13.5c15.2,0,30.5,0,45.7,0c2,0,2.7,0.4,2.5,2.6c-1,10.6-1.9,21.3-2.9,31.9
				c-0.8,8.8-1.5,17.6-2.3,26.4c-1,11.6-2.1,23.2-3.1,34.9c-0.2,1.9-0.8,2.9-2.8,3.5c-12,3.3-23.9,6.7-35.8,10c-0.9,0.3-2,0.3-2.9,0
				c-12-3.3-24-6.8-36-10.1c-1.6-0.4-2.3-1.2-2.4-2.9c-0.7-9.2-1.6-18.3-2.4-27.5c-1.2-13.4-2.5-26.9-3.7-40.3
				c-0.8-9-1.6-18-2.5-26.9c-0.1-1.2,0.4-1.6,1.4-1.5c0.6,0,1.3,0,1.9,0C44.6,13.5,59.6,13.5,74.7,13.5z M78.6,55.7
				c0,6.2,0.1,12.3,0,18.5c0,2,0.6,2.4,2.5,2.1c4.7-0.9,9.5-1.8,14.2-2.6c2.2-0.4,2.5,0,2.3,2.2c-0.1,1.6-0.3,3.2-0.2,4.9
				c0,1.6-0.7,2.4-2.2,2.7c-4.5,1.1-9,2.4-13.6,3.5c-2.2,0.5-3.3,1.4-3,3.9c0.2,2,0.1,4,0,5.9c-0.1,1.8,0.5,2.4,2.4,1.9
				c6.6-1.8,13.1-3.5,19.7-5.2c4.1-1.1,4.1-1,4.4-5.1c0-0.6,0.1-1.1,0.2-1.7c0.6-7.6,1.3-15.2,1.9-22.8c0.2-2.8,0.1-2.8-2.5-2.5
				c-4.7,0.5-9.4,1.1-14.1,1.8c-1.9,0.3-2.5-0.2-2.5-2.1c0.1-4,0.1-8.1,0-12.1c-0.1-1.9,0.6-2.6,2.6-2.6c5.2,0.1,10.3,0,15.5,0.1
				c1.8,0,2.6-0.7,2.7-2.4c0.1-2.2,0.3-4.4,0.6-6.5c0.2-1.8-0.4-2.6-2.3-2.5c-8.6,0.1-17.3,0.1-25.9,0c-1.9,0-2.5,0.6-2.5,2.5
				C78.7,43.4,78.6,49.5,78.6,55.7z M70.6,98.9c0-1.4,0-2.3,0-3.2c0-18.2,0-36.5,0-54.7c0-6.2,0-6.2-6.1-6.2c-2.9,0-2.9,0-2.9,3
				c0,14.8,0,29.5,0,44.3c0,0.9-0.1,1.9-0.2,3c-1-0.2-1.7-0.4-2.3-0.6c-4.7-1.3-9.4-2.5-14.1-3.9c-1.8-0.5-2.3,0-2.2,1.7
				c0.1,2.3,0.1,4.5,0,6.8c0,1.4,0.5,2.2,1.9,2.5c6.2,1.6,12.3,3.4,18.4,5.1C65.4,97.5,67.8,98.1,70.6,98.9z"/>
		</g>
	</g>
</g>
<g>
	<path fill="#808080" d="M29,155.2c-0.7,0-1.2-0.3-1.5-1l-5.2-11.7c-0.2-0.5-0.2-0.9,0-1.2c0.2-0.3,0.6-0.5,1-0.5
		c0.4,0,0.7,0.1,0.9,0.2c0.2,0.2,0.4,0.4,0.5,0.8l4.3,10l4.3-10c0.1-0.3,0.3-0.6,0.5-0.7s0.5-0.2,0.8-0.2c0.4,0,0.8,0.2,1,0.5
		c0.2,0.3,0.2,0.7,0,1.2l-5.2,11.7c-0.1,0.3-0.3,0.6-0.6,0.8C29.7,155.1,29.4,155.2,29,155.2z"/>
	<path fill="#808080" d="M36.6,155.2c-0.5,0-0.8-0.2-1-0.5c-0.2-0.3-0.2-0.7,0-1.2l5.3-11.7c0.2-0.4,0.4-0.7,0.6-0.8
		s0.5-0.2,0.9-0.2c0.3,0,0.6,0.1,0.8,0.2c0.2,0.2,0.5,0.4,0.6,0.8l5.3,11.7c0.2,0.5,0.2,0.9,0,1.2c-0.2,0.3-0.5,0.5-1,0.5
		c-0.4,0-0.7-0.1-0.9-0.3c-0.2-0.2-0.4-0.5-0.6-0.8l-1-2.3h-6.9l-1,2.3c-0.2,0.4-0.4,0.7-0.5,0.8C37.2,155.1,36.9,155.2,36.6,155.2z
		 M42.3,143.7l-2.5,6h5.1L42.3,143.7L42.3,143.7z"/>
	<path fill="#808080" d="M52.5,155.2c-0.8,0-1.2-0.4-1.2-1.2v-11.9c0-0.4,0.1-0.7,0.3-1c0.2-0.2,0.5-0.3,0.8-0.3
		c0.3,0,0.5,0.1,0.7,0.2c0.2,0.1,0.3,0.3,0.5,0.6l7.1,9.3V142c0-0.8,0.4-1.2,1.2-1.2c0.8,0,1.2,0.4,1.2,1.2v12
		c0,0.4-0.1,0.7-0.3,0.9c-0.2,0.2-0.4,0.3-0.8,0.3c-0.3,0-0.5-0.1-0.7-0.2c-0.2-0.1-0.4-0.3-0.6-0.6l-7.1-9.3v8.8
		C53.7,154.8,53.3,155.2,52.5,155.2z"/>
	<path fill="#808080" d="M67.6,155.2c-0.9,0-1.3-0.4-1.3-1.3v-11.8c0-0.9,0.4-1.3,1.3-1.3c0.9,0,1.3,0.4,1.3,1.3v11.8
		C68.9,154.8,68.4,155.2,67.6,155.2z"/>
	<path fill="#808080" d="M73.2,155c-0.9,0-1.3-0.4-1.3-1.3v-11.5c0-0.9,0.4-1.3,1.3-1.3c0.9,0,1.3,0.4,1.3,1.3v10.7h5.8
		c0.7,0,1.1,0.4,1.1,1.1c0,0.7-0.4,1.1-1.1,1.1H73.2z"/>
	<path fill="#808080" d="M84.5,155c-0.9,0-1.3-0.4-1.3-1.3v-11.5c0-0.9,0.4-1.3,1.3-1.3s1.3,0.4,1.3,1.3v10.7h5.8
		c0.7,0,1.1,0.4,1.1,1.1c0,0.7-0.4,1.1-1.1,1.1H84.5z"/>
	<path fill="#808080" d="M94.3,155.2c-0.5,0-0.8-0.2-1-0.5c-0.2-0.3-0.2-0.7,0-1.2l5.3-11.7c0.2-0.4,0.4-0.7,0.6-0.8
		c0.2-0.2,0.5-0.2,0.9-0.2c0.3,0,0.6,0.1,0.8,0.2c0.2,0.2,0.5,0.4,0.6,0.8l5.3,11.7c0.2,0.5,0.2,0.9,0,1.2c-0.2,0.3-0.5,0.5-1,0.5
		c-0.4,0-0.7-0.1-0.9-0.3c-0.2-0.2-0.4-0.5-0.5-0.8l-1-2.3h-6.9l-1,2.3c-0.2,0.4-0.4,0.7-0.5,0.8S94.6,155.2,94.3,155.2z M100,143.7
		l-2.5,6h5.1L100,143.7L100,143.7z"/>
	<path fill="#808080" d="M108.8,155.2c-0.4,0-0.7-0.1-0.9-0.3c-0.2-0.2-0.3-0.5-0.3-0.8c0-0.3,0.1-0.5,0.2-0.7s0.4-0.3,0.7-0.3
		l0.6,0c1.2-0.1,1.8-0.7,1.8-2v-9c0-0.9,0.4-1.3,1.3-1.3s1.3,0.4,1.3,1.3v9c0,1.3-0.3,2.2-1,2.9c-0.7,0.7-1.7,1.1-3,1.2L108.8,155.2
		z"/>
	<path fill="#808080" d="M121.3,155.2c-0.9,0-1.8-0.1-2.6-0.3s-1.6-0.5-2.2-0.9c-0.3-0.2-0.5-0.4-0.6-0.7c-0.1-0.3,0-0.6,0.1-0.8
		c0.1-0.3,0.3-0.4,0.5-0.5c0.2-0.1,0.5-0.1,0.8,0.1c0.6,0.3,1.2,0.6,1.9,0.8c0.7,0.2,1.3,0.2,2.1,0.2c1.1,0,1.8-0.2,2.3-0.5
		c0.5-0.4,0.7-0.8,0.7-1.4c0-0.5-0.2-0.8-0.5-1.1c-0.3-0.3-0.9-0.5-1.8-0.7l-2.2-0.5c-2.5-0.5-3.8-1.8-3.8-3.9
		c0-0.9,0.2-1.6,0.7-2.3c0.5-0.7,1.1-1.2,1.9-1.5c0.8-0.4,1.8-0.5,2.9-0.5c0.8,0,1.6,0.1,2.3,0.3s1.4,0.5,1.9,0.9
		c0.3,0.2,0.4,0.4,0.5,0.7c0.1,0.3,0,0.5-0.1,0.8c-0.1,0.2-0.3,0.4-0.6,0.5c-0.3,0.1-0.6,0-0.9-0.2c-0.5-0.3-1-0.5-1.5-0.6
		s-1.1-0.2-1.6-0.2c-0.9,0-1.6,0.2-2.2,0.6c-0.5,0.4-0.8,0.9-0.8,1.5c0,0.5,0.2,0.9,0.5,1.2s0.9,0.5,1.6,0.7l2.2,0.5
		c1.3,0.3,2.3,0.7,3,1.3c0.6,0.6,1,1.4,1,2.4c0,0.8-0.2,1.6-0.7,2.2c-0.5,0.6-1.1,1.1-1.9,1.5C123.5,155.1,122.5,155.2,121.3,155.2z
		"/>
</g>
</svg>
