<?xml version="1.0" encoding="utf-8"?>
<!-- Generator: Adobe Illustrator 25.0.1, SVG Export Plug-In . SVG Version: 6.00 Build 0)  -->
<svg version="1.1" baseProfile="tiny" id="Layer_1" xmlns="http://www.w3.org/2000/svg" xmlns:xlink="http://www.w3.org/1999/xlink"
	 x="0px" y="0px" width="521px" height="100px" viewBox="0 0 521 100" overflow="visible" xml:space="preserve">
<path fill="#333333" d="M481.7,14.3c-0.3-0.9-1.1-1.6-2-1.7l-5.5-0.8l-2.4-5c-0.4-0.9-1.3-1.4-2.2-1.4s-1.8,0.5-2.2,1.4l-2.4,5
	l-5.5,0.8c-0.9,0.1-1.7,0.8-2,1.7c-0.3,0.9,0,1.9,0.6,2.6l4,3.9l-0.9,5.5c-0.2,0.9,0.2,1.9,1,2.5c0.8,0.6,1.8,0.6,2.6,0.2l4.9-2.6
	l4.9,2.6c0.4,0.2,0.8,0.3,1.2,0.3c0.5,0,1-0.2,1.5-0.5c0.8-0.6,1.2-1.5,1-2.5l-0.9-5.5l4-3.9C481.8,16.1,482,15.2,481.7,14.3z"/>
<path fill="#FFA300" d="M451.7,14.3c-0.3-0.9-1.1-1.6-2-1.7l-5.5-0.8l-2.4-5c-0.4-0.9-1.3-1.4-2.2-1.4c-1,0-1.8,0.5-2.2,1.4l-2.4,5
	l-5.5,0.8c-0.9,0.1-1.7,0.8-2,1.7c-0.3,0.9,0,1.9,0.6,2.6l4,3.9l-0.9,5.5c-0.2,0.9,0.2,1.9,1,2.5c0.8,0.6,1.8,0.6,2.6,0.2l4.9-2.6
	l4.9,2.6c0.4,0.2,0.8,0.3,1.2,0.3c0.5,0,1-0.2,1.5-0.5c0.8-0.6,1.2-1.5,1-2.5l-0.9-5.5l4-3.9C451.7,16.1,452,15.2,451.7,14.3z"/>
<path fill="#333333" d="M511.8,14.3c-0.3-0.9-1.1-1.6-2-1.7l-5.5-0.8l-2.4-5c-0.4-0.9-1.3-1.4-2.2-1.4c-1,0-1.8,0.5-2.2,1.4l-2.4,5
	l-5.5,0.8c-0.9,0.1-1.7,0.8-2,1.7c-0.3,0.9,0,1.9,0.6,2.6l4,3.9l-0.9,5.5c-0.2,0.9,0.2,1.9,1,2.5c0.8,0.6,1.8,0.6,2.6,0.2l4.9-2.6
	l4.9,2.6c0.4,0.2,0.8,0.3,1.2,0.3c0.5,0,1-0.2,1.5-0.5c0.8-0.6,1.2-1.5,1-2.5l-0.9-5.5l4-3.9C511.8,16.1,512.1,15.2,511.8,14.3z"/>
<g>
	<path fill="#808080" d="M201.7,25.3c-0.9,0-1.3-0.4-1.3-1.3V12.2c0-0.9,0.4-1.3,1.3-1.3c0.9,0,1.3,0.4,1.3,1.3V24
		C202.9,24.8,202.5,25.3,201.7,25.3z"/>
	<path fill="#808080" d="M212.4,25.3c-0.8,0-1.2-0.4-1.2-1.3V12.1c0-0.8,0.4-1.3,1.2-1.3c0.8,0,1.3,0.4,1.3,1.3v7.4h0L217,16
		c0.3-0.3,0.5-0.5,0.7-0.6c0.2-0.1,0.5-0.2,0.8-0.2c0.3,0,0.6,0.1,0.8,0.3c0.2,0.2,0.3,0.4,0.3,0.6c0,0.3-0.1,0.5-0.4,0.8l-3,3.2
		l3.3,3.6c0.2,0.3,0.3,0.5,0.3,0.8c0,0.3-0.1,0.5-0.3,0.6c-0.2,0.2-0.5,0.2-0.8,0.2c-0.4,0-0.7-0.1-0.9-0.2
		c-0.2-0.1-0.5-0.4-0.7-0.7l-3.5-3.6h0V24C213.7,24.9,213.3,25.3,212.4,25.3z"/>
	<path fill="#808080" d="M223.2,25.3c-0.8,0-1.2-0.4-1.2-1.3v-7.6c0-0.8,0.4-1.3,1.2-1.3c0.8,0,1.2,0.4,1.2,1.3v0.4
		c0.3-0.6,0.8-1,1.3-1.3c0.6-0.3,1.2-0.4,1.9-0.4c2.3,0,3.5,1.3,3.5,4V24c0,0.9-0.4,1.3-1.2,1.3c-0.8,0-1.3-0.4-1.3-1.3v-4.7
		c0-0.8-0.1-1.3-0.4-1.7s-0.7-0.5-1.3-0.5c-0.7,0-1.3,0.2-1.8,0.7c-0.4,0.5-0.7,1.1-0.7,1.8V24C224.4,24.9,224,25.3,223.2,25.3z"/>
	<path fill="#808080" d="M238.1,25.3c-1,0-1.9-0.2-2.6-0.6c-0.7-0.4-1.3-1-1.7-1.8s-0.6-1.7-0.6-2.7s0.2-1.9,0.6-2.7
		c0.4-0.8,1-1.3,1.7-1.8c0.7-0.4,1.6-0.6,2.6-0.6s1.9,0.2,2.6,0.6s1.3,1,1.7,1.8c0.4,0.8,0.6,1.7,0.6,2.7s-0.2,1.9-0.6,2.7
		c-0.4,0.8-1,1.4-1.7,1.8C240,25.1,239.1,25.3,238.1,25.3z M238.1,23.4c0.7,0,1.3-0.3,1.8-0.8c0.5-0.5,0.7-1.3,0.7-2.4
		c0-1.1-0.2-1.9-0.7-2.4c-0.5-0.5-1.1-0.8-1.8-0.8s-1.3,0.3-1.8,0.8c-0.5,0.5-0.7,1.3-0.7,2.4c0,1.1,0.2,1.9,0.7,2.4
		C236.7,23.2,237.3,23.4,238.1,23.4z"/>
	<path fill="#808080" d="M248.7,25.3c-0.7,0-1.2-0.3-1.4-1l-2.9-7.4c-0.2-0.5-0.2-0.9,0-1.2c0.2-0.3,0.5-0.5,1-0.5
		c0.3,0,0.5,0.1,0.7,0.2c0.2,0.1,0.3,0.4,0.5,0.8l2.2,6l2.3-6.2c0.2-0.6,0.6-0.8,1.1-0.8c0.6,0,0.9,0.3,1.1,0.8l2.3,6.2l2.2-6.1
		c0.1-0.4,0.3-0.6,0.5-0.7c0.2-0.1,0.4-0.2,0.7-0.2c0.5,0,0.8,0.2,0.9,0.5c0.1,0.3,0.1,0.7,0,1.2l-2.9,7.4c-0.3,0.7-0.8,1-1.4,1
		c-0.7,0-1.2-0.3-1.4-1l-2-5.4l-2,5.4C249.9,24.9,249.4,25.3,248.7,25.3z"/>
	<path fill="#808080" d="M271.2,25.3c-0.7,0-1.2-0.3-1.4-1l-2.9-7.4c-0.2-0.5-0.2-0.9,0-1.2c0.2-0.3,0.5-0.5,1-0.5
		c0.3,0,0.5,0.1,0.7,0.2c0.2,0.1,0.3,0.4,0.5,0.8l2.2,6l2.3-6.2c0.2-0.6,0.6-0.8,1.1-0.8c0.6,0,0.9,0.3,1.1,0.8l2.3,6.2l2.2-6.1
		c0.1-0.4,0.3-0.6,0.5-0.7c0.2-0.1,0.4-0.2,0.7-0.2c0.5,0,0.8,0.2,0.9,0.5c0.1,0.3,0.1,0.7,0,1.2l-2.9,7.4c-0.3,0.7-0.8,1-1.4,1
		c-0.7,0-1.2-0.3-1.4-1l-2-5.4l-2,5.4C272.4,24.9,271.9,25.3,271.2,25.3z"/>
	<path fill="#808080" d="M285.7,25.3c-0.8,0-1.2-0.4-1.2-1.3V12.1c0-0.8,0.4-1.3,1.2-1.3c0.8,0,1.3,0.4,1.3,1.3v4.6
		c0.3-0.5,0.8-0.9,1.3-1.2s1.2-0.4,1.9-0.4c2.3,0,3.5,1.3,3.5,4V24c0,0.9-0.4,1.3-1.2,1.3c-0.8,0-1.3-0.4-1.3-1.3v-4.7
		c0-0.8-0.1-1.3-0.4-1.7s-0.7-0.5-1.3-0.5c-0.7,0-1.3,0.2-1.8,0.7c-0.4,0.5-0.7,1.1-0.7,1.8V24C287,24.9,286.6,25.3,285.7,25.3z"/>
	<path fill="#808080" d="M299.4,25.3c-0.7,0-1.3-0.1-1.9-0.4s-1-0.6-1.3-1.1s-0.5-1-0.5-1.6c0-0.7,0.2-1.3,0.6-1.7
		c0.4-0.4,1-0.7,1.8-0.9c0.8-0.2,2-0.3,3.4-0.3h0.7v-0.4c0-0.7-0.1-1.1-0.4-1.4c-0.3-0.3-0.8-0.4-1.5-0.4c-0.4,0-0.8,0-1.2,0.1
		c-0.4,0.1-0.9,0.3-1.4,0.5c-0.3,0.1-0.6,0.2-0.8,0c-0.2-0.1-0.4-0.3-0.4-0.5c-0.1-0.2-0.1-0.5,0-0.8c0.1-0.3,0.3-0.4,0.6-0.6
		c0.6-0.3,1.2-0.4,1.8-0.5c0.6-0.1,1.1-0.2,1.5-0.2c1.4,0,2.5,0.3,3.2,1c0.7,0.7,1,1.7,1,3.1V24c0,0.9-0.4,1.3-1.2,1.3
		c-0.8,0-1.2-0.4-1.2-1.3v-0.4c-0.2,0.5-0.6,1-1.1,1.3C300.7,25.2,300.1,25.3,299.4,25.3z M299.9,23.6c0.7,0,1.2-0.2,1.6-0.7
		c0.4-0.5,0.6-1,0.6-1.7v-0.4h-0.7c-1.3,0-2.1,0.1-2.6,0.3c-0.5,0.2-0.7,0.5-0.7,1c0,0.4,0.2,0.8,0.5,1.1
		C298.9,23.5,299.4,23.6,299.9,23.6z"/>
	<path fill="#808080" d="M311.6,25.3c-2.6,0-3.9-1.3-3.9-3.8v-4.3h-1c-0.7,0-1-0.3-1-0.9s0.3-0.9,1-0.9h1v-1.8
		c0-0.8,0.4-1.3,1.3-1.3c0.8,0,1.2,0.4,1.2,1.3v1.8h2.1c0.7,0,1,0.3,1,0.9s-0.3,0.9-1,0.9h-2.1v4.1c0,0.6,0.1,1.1,0.4,1.4
		c0.3,0.3,0.7,0.5,1.4,0.5c0.2,0,0.4,0,0.6-0.1s0.3-0.1,0.5-0.1c0.2,0,0.3,0,0.4,0.1c0.1,0.1,0.2,0.3,0.2,0.7c0,0.3,0,0.5-0.1,0.7
		c-0.1,0.2-0.2,0.4-0.5,0.4c-0.2,0.1-0.4,0.1-0.7,0.1S311.8,25.3,311.6,25.3z"/>
	<path fill="#808080" d="M316.3,15.9c-0.2,0.2-0.4,0.3-0.5,0.4s-0.4,0-0.5-0.1c-0.1-0.1-0.2-0.2-0.2-0.4c0-0.2,0.1-0.4,0.3-0.6
		c0.2-0.2,0.3-0.4,0.4-0.6c0.1-0.2,0.2-0.4,0.2-0.6c-0.4,0-0.7-0.2-1-0.4c-0.3-0.3-0.4-0.6-0.4-1c0-0.4,0.1-0.8,0.4-1.1
		c0.3-0.3,0.6-0.4,1.1-0.4c0.5,0,0.8,0.2,1.1,0.5c0.3,0.3,0.4,0.8,0.4,1.4c0,0.5-0.1,1-0.2,1.5C317.1,14.8,316.8,15.3,316.3,15.9z"
		/>
	<path fill="#808080" d="M322.8,25.3c-0.6,0-1.2-0.1-1.8-0.2c-0.6-0.1-1.2-0.3-1.7-0.6c-0.3-0.2-0.5-0.4-0.5-0.6
		c-0.1-0.2-0.1-0.5,0-0.7c0.1-0.2,0.2-0.4,0.4-0.4s0.5-0.1,0.7,0.1c0.5,0.3,1,0.4,1.5,0.5c0.5,0.1,0.9,0.1,1.4,0.1
		c0.6,0,1.1-0.1,1.4-0.3c0.3-0.2,0.5-0.5,0.5-0.9c0-0.6-0.4-0.9-1.2-1.1l-2-0.4c-1.7-0.3-2.5-1.2-2.5-2.6c0-0.6,0.2-1.2,0.5-1.7
		c0.4-0.5,0.8-0.8,1.5-1.1c0.6-0.3,1.3-0.4,2.2-0.4c1.2,0,2.2,0.3,3.1,0.8c0.3,0.1,0.4,0.3,0.5,0.6c0,0.2,0,0.5-0.1,0.7
		c-0.1,0.2-0.3,0.4-0.5,0.4s-0.5,0.1-0.7-0.1c-0.4-0.2-0.8-0.4-1.2-0.5c-0.4-0.1-0.7-0.1-1.1-0.1c-0.7,0-1.1,0.1-1.5,0.3
		s-0.5,0.5-0.5,0.9c0,0.6,0.4,0.9,1.1,1.1l2,0.4c0.9,0.2,1.5,0.5,2,0.9c0.4,0.4,0.7,1,0.7,1.7c0,1-0.4,1.7-1.1,2.3
		C325.1,25,324,25.3,322.8,25.3z"/>
	<path fill="#808080" d="M338.9,28.9c-0.7,0-1.4-0.1-2.1-0.2c-0.7-0.1-1.3-0.3-1.8-0.6c-0.3-0.2-0.5-0.4-0.6-0.6
		c-0.1-0.2,0-0.5,0.1-0.7c0.1-0.2,0.3-0.4,0.5-0.5c0.2-0.1,0.5-0.1,0.7,0c0.6,0.3,1.1,0.5,1.7,0.6c0.5,0.1,1,0.1,1.4,0.1
		c1.8,0,2.7-0.9,2.7-2.6v-1.3c-0.3,0.5-0.7,1-1.3,1.3c-0.6,0.3-1.2,0.5-1.9,0.5c-0.9,0-1.6-0.2-2.3-0.6c-0.7-0.4-1.2-1-1.5-1.7
		c-0.4-0.7-0.5-1.6-0.5-2.6c0-1,0.2-1.8,0.5-2.5c0.4-0.7,0.9-1.3,1.5-1.7c0.7-0.4,1.4-0.6,2.3-0.6c0.7,0,1.3,0.2,1.9,0.5
		c0.6,0.3,1,0.7,1.3,1.3v-0.4c0-0.4,0.1-0.7,0.3-0.9c0.2-0.2,0.5-0.3,0.9-0.3c0.8,0,1.2,0.4,1.2,1.3v7.7c0,1.6-0.4,2.8-1.3,3.6
		C341.8,28.5,340.5,28.9,338.9,28.9z M338.9,23c0.8,0,1.4-0.3,1.8-0.8s0.7-1.3,0.7-2.2s-0.2-1.6-0.7-2.2c-0.5-0.5-1.1-0.8-1.8-0.8
		s-1.4,0.3-1.8,0.8c-0.5,0.5-0.7,1.2-0.7,2.2s0.2,1.6,0.7,2.2S338.1,23,338.9,23z"/>
	<path fill="#808080" d="M350.9,25.3c-1,0-1.9-0.2-2.6-0.6c-0.7-0.4-1.3-1-1.7-1.8c-0.4-0.8-0.6-1.7-0.6-2.7s0.2-1.9,0.6-2.7
		c0.4-0.8,1-1.3,1.7-1.8c0.7-0.4,1.6-0.6,2.6-0.6c1,0,1.9,0.2,2.6,0.6s1.3,1,1.7,1.8c0.4,0.8,0.6,1.7,0.6,2.7s-0.2,1.9-0.6,2.7
		c-0.4,0.8-1,1.4-1.7,1.8C352.8,25.1,351.9,25.3,350.9,25.3z M350.9,23.4c0.7,0,1.3-0.3,1.8-0.8c0.5-0.5,0.7-1.3,0.7-2.4
		c0-1.1-0.2-1.9-0.7-2.4c-0.5-0.5-1.1-0.8-1.8-0.8c-0.7,0-1.3,0.3-1.8,0.8c-0.5,0.5-0.7,1.3-0.7,2.4c0,1.1,0.2,1.9,0.7,2.4
		C349.6,23.2,350.2,23.4,350.9,23.4z"/>
	<path fill="#808080" d="M359.2,13.3c-0.5,0-0.8-0.1-1.1-0.4s-0.4-0.6-0.4-1c0-0.4,0.1-0.8,0.4-1c0.3-0.2,0.6-0.3,1.1-0.3
		c1,0,1.5,0.4,1.5,1.3S360.2,13.3,359.2,13.3z M359.2,25.3c-0.4,0-0.7-0.1-0.9-0.4c-0.2-0.2-0.3-0.6-0.3-1v-7.3
		c0-0.9,0.4-1.4,1.2-1.4c0.8,0,1.3,0.5,1.3,1.4v7.3c0,0.4-0.1,0.8-0.3,1C359.9,25.1,359.6,25.3,359.2,25.3z"/>
	<path fill="#808080" d="M364.3,25.3c-0.8,0-1.2-0.4-1.2-1.3v-7.6c0-0.8,0.4-1.3,1.2-1.3c0.8,0,1.2,0.4,1.2,1.3v0.4
		c0.3-0.6,0.8-1,1.3-1.3c0.6-0.3,1.2-0.4,1.9-0.4c2.3,0,3.5,1.3,3.5,4V24c0,0.9-0.4,1.3-1.2,1.3c-0.8,0-1.3-0.4-1.3-1.3v-4.7
		c0-0.8-0.1-1.3-0.4-1.7c-0.3-0.3-0.7-0.5-1.3-0.5c-0.7,0-1.3,0.2-1.8,0.7s-0.7,1.1-0.7,1.8V24C365.6,24.9,365.2,25.3,364.3,25.3z"
		/>
	<path fill="#808080" d="M379.3,28.9c-0.7,0-1.4-0.1-2.1-0.2c-0.7-0.1-1.3-0.3-1.8-0.6c-0.3-0.2-0.5-0.4-0.6-0.6
		c-0.1-0.2,0-0.5,0.1-0.7c0.1-0.2,0.3-0.4,0.5-0.5c0.2-0.1,0.5-0.1,0.7,0c0.6,0.3,1.1,0.5,1.7,0.6c0.5,0.1,1,0.1,1.4,0.1
		c1.8,0,2.7-0.9,2.7-2.6v-1.3c-0.3,0.5-0.7,1-1.3,1.3c-0.6,0.3-1.2,0.5-1.9,0.5c-0.9,0-1.6-0.2-2.3-0.6c-0.7-0.4-1.2-1-1.5-1.7
		c-0.4-0.7-0.5-1.6-0.5-2.6c0-1,0.2-1.8,0.5-2.5c0.4-0.7,0.9-1.3,1.5-1.7c0.7-0.4,1.4-0.6,2.3-0.6c0.7,0,1.3,0.2,1.9,0.5
		c0.6,0.3,1,0.7,1.3,1.3v-0.4c0-0.4,0.1-0.7,0.3-0.9c0.2-0.2,0.5-0.3,0.9-0.3c0.8,0,1.2,0.4,1.2,1.3v7.7c0,1.6-0.4,2.8-1.3,3.6
		C382.2,28.5,380.9,28.9,379.3,28.9z M379.3,23c0.8,0,1.4-0.3,1.8-0.8c0.5-0.5,0.7-1.3,0.7-2.2s-0.2-1.6-0.7-2.2
		c-0.5-0.5-1.1-0.8-1.8-0.8s-1.4,0.3-1.8,0.8c-0.5,0.5-0.7,1.2-0.7,2.2s0.2,1.6,0.7,2.2S378.5,23,379.3,23z"/>
	<path fill="#808080" d="M396.7,25.3c-1,0-1.9-0.2-2.6-0.6c-0.7-0.4-1.3-1-1.7-1.8s-0.6-1.7-0.6-2.7s0.2-1.9,0.6-2.7
		c0.4-0.8,1-1.3,1.7-1.8c0.7-0.4,1.6-0.6,2.6-0.6s1.9,0.2,2.6,0.6c0.7,0.4,1.3,1,1.7,1.8c0.4,0.8,0.6,1.7,0.6,2.7s-0.2,1.9-0.6,2.7
		c-0.4,0.8-1,1.4-1.7,1.8C398.6,25.1,397.7,25.3,396.7,25.3z M396.7,23.4c0.7,0,1.3-0.3,1.8-0.8c0.5-0.5,0.7-1.3,0.7-2.4
		c0-1.1-0.2-1.9-0.7-2.4c-0.5-0.5-1.1-0.8-1.8-0.8s-1.3,0.3-1.8,0.8c-0.5,0.5-0.7,1.3-0.7,2.4c0,1.1,0.2,1.9,0.7,2.4
		C395.4,23.2,396,23.4,396.7,23.4z"/>
	<path fill="#808080" d="M405,25.3c-0.8,0-1.2-0.4-1.2-1.3v-7.6c0-0.8,0.4-1.3,1.2-1.3c0.8,0,1.2,0.4,1.2,1.3v0.4
		c0.3-0.6,0.8-1,1.3-1.3c0.6-0.3,1.2-0.4,1.9-0.4c2.3,0,3.5,1.3,3.5,4V24c0,0.9-0.4,1.3-1.2,1.3c-0.8,0-1.3-0.4-1.3-1.3v-4.7
		c0-0.8-0.1-1.3-0.4-1.7c-0.3-0.3-0.7-0.5-1.3-0.5c-0.7,0-1.3,0.2-1.8,0.7s-0.7,1.1-0.7,1.8V24C406.3,24.9,405.9,25.3,405,25.3z"/>
</g>
<path fill="#FFA300" d="M481.7,47.3c-0.3-0.9-1.1-1.6-2-1.7l-5.5-0.8l-2.4-5c-0.4-0.9-1.3-1.4-2.2-1.4s-1.8,0.5-2.2,1.4l-2.4,5
	l-5.5,0.8c-0.9,0.1-1.7,0.8-2,1.7c-0.3,0.9,0,1.9,0.6,2.6l4,3.9l-0.9,5.5c-0.2,0.9,0.2,1.9,1,2.5c0.8,0.6,1.8,0.6,2.6,0.2l4.9-2.6
	l4.9,2.6c0.4,0.2,0.8,0.3,1.2,0.3c0.5,0,1-0.2,1.5-0.5c0.8-0.6,1.2-1.5,1-2.5l-0.9-5.5l4-3.9C481.8,49.1,482,48.2,481.7,47.3z"/>
<path fill="#FFA300" d="M451.7,47.3c-0.3-0.9-1.1-1.6-2-1.7l-5.5-0.8l-2.4-5c-0.4-0.9-1.3-1.4-2.2-1.4c-1,0-1.8,0.5-2.2,1.4l-2.4,5
	l-5.5,0.8c-0.9,0.1-1.7,0.8-2,1.7c-0.3,0.9,0,1.9,0.6,2.6l4,3.9l-0.9,5.5c-0.2,0.9,0.2,1.9,1,2.5c0.8,0.6,1.8,0.6,2.6,0.2l4.9-2.6
	l4.9,2.6c0.4,0.2,0.8,0.3,1.2,0.3c0.5,0,1-0.2,1.5-0.5c0.8-0.6,1.2-1.5,1-2.5l-0.9-5.5l4-3.9C451.7,49.1,452,48.2,451.7,47.3z"/>
<path fill="#333333" d="M511.8,47.3c-0.3-0.9-1.1-1.6-2-1.7l-5.5-0.8l-2.4-5c-0.4-0.9-1.3-1.4-2.2-1.4c-1,0-1.8,0.5-2.2,1.4l-2.4,5
	l-5.5,0.8c-0.9,0.1-1.7,0.8-2,1.7c-0.3,0.9,0,1.9,0.6,2.6l4,3.9l-0.9,5.5c-0.2,0.9,0.2,1.9,1,2.5c0.8,0.6,1.8,0.6,2.6,0.2l4.9-2.6
	l4.9,2.6c0.4,0.2,0.8,0.3,1.2,0.3c0.5,0,1-0.2,1.5-0.5c0.8-0.6,1.2-1.5,1-2.5l-0.9-5.5l4-3.9C511.8,49.1,512.1,48.2,511.8,47.3z"/>
<g>
	<path fill="#808080" d="M202.8,58.3c-0.9,0-1.3-0.4-1.3-1.3V45.2c0-0.9,0.4-1.3,1.3-1.3c0.9,0,1.3,0.4,1.3,1.3V57
		C204.1,57.8,203.6,58.3,202.8,58.3z"/>
	<path fill="#808080" d="M216.8,58.3c-1,0-1.9-0.2-2.7-0.6c-0.8-0.4-1.3-1-1.8-1.8s-0.6-1.7-0.6-2.7c0-1,0.2-1.9,0.6-2.7
		c0.4-0.8,1-1.3,1.8-1.7c0.8-0.4,1.7-0.6,2.7-0.6c0.4,0,0.9,0.1,1.4,0.2c0.5,0.1,1,0.3,1.5,0.6c0.3,0.2,0.4,0.4,0.5,0.6
		c0,0.3,0,0.5-0.1,0.7s-0.3,0.4-0.5,0.5c-0.2,0.1-0.5,0.1-0.8-0.1c-0.6-0.3-1.2-0.5-1.8-0.5c-0.9,0-1.5,0.3-2,0.8
		c-0.5,0.5-0.7,1.3-0.7,2.3c0,1,0.2,1.8,0.7,2.3s1.1,0.8,2,0.8c0.6,0,1.2-0.2,1.8-0.5c0.3-0.2,0.5-0.2,0.7-0.1
		c0.2,0.1,0.4,0.2,0.5,0.5c0.1,0.2,0.1,0.5,0.1,0.7c-0.1,0.2-0.2,0.5-0.5,0.6c-0.4,0.3-0.9,0.5-1.4,0.6
		C217.7,58.3,217.3,58.3,216.8,58.3z"/>
	<path fill="#808080" d="M224.9,58.3c-0.7,0-1.3-0.1-1.9-0.4s-1-0.6-1.3-1.1c-0.3-0.5-0.5-1-0.5-1.6c0-0.7,0.2-1.3,0.6-1.7
		c0.4-0.4,1-0.7,1.8-0.9c0.8-0.2,2-0.3,3.4-0.3h0.7v-0.4c0-0.7-0.1-1.1-0.4-1.4c-0.3-0.3-0.8-0.4-1.5-0.4c-0.4,0-0.8,0-1.2,0.1
		s-0.9,0.3-1.4,0.5c-0.3,0.1-0.6,0.2-0.8,0c-0.2-0.1-0.4-0.3-0.4-0.5c-0.1-0.2-0.1-0.5,0-0.8c0.1-0.3,0.3-0.4,0.6-0.6
		c0.6-0.3,1.2-0.4,1.8-0.5c0.6-0.1,1.1-0.2,1.5-0.2c1.4,0,2.5,0.3,3.2,1c0.7,0.7,1,1.7,1,3.1V57c0,0.9-0.4,1.3-1.2,1.3
		c-0.8,0-1.2-0.4-1.2-1.3v-0.4c-0.2,0.5-0.6,1-1.1,1.3C226.2,58.2,225.6,58.3,224.9,58.3z M225.4,56.6c0.7,0,1.2-0.2,1.6-0.7
		c0.4-0.5,0.6-1,0.6-1.7v-0.4H227c-1.3,0-2.1,0.1-2.6,0.3s-0.7,0.5-0.7,1c0,0.4,0.2,0.8,0.5,1.1C224.5,56.5,224.9,56.6,225.4,56.6z"
		/>
	<path fill="#808080" d="M233.9,58.3c-0.8,0-1.2-0.4-1.2-1.3v-7.6c0-0.8,0.4-1.3,1.2-1.3c0.8,0,1.2,0.4,1.2,1.3v0.4
		c0.3-0.6,0.8-1,1.3-1.3c0.6-0.3,1.2-0.4,1.9-0.4c2.3,0,3.5,1.3,3.5,4V57c0,0.9-0.4,1.3-1.2,1.3c-0.8,0-1.3-0.4-1.3-1.3v-4.7
		c0-0.8-0.1-1.3-0.4-1.7s-0.7-0.5-1.3-0.5c-0.7,0-1.3,0.2-1.8,0.7c-0.4,0.5-0.7,1.1-0.7,1.8V57C235.1,57.9,234.7,58.3,233.9,58.3z"
		/>
	<path fill="#808080" d="M255.4,58.3c-0.7,0-1.4-0.2-1.9-0.5c-0.6-0.3-1-0.7-1.3-1.3V57c0,0.9-0.4,1.3-1.2,1.3
		c-0.8,0-1.2-0.4-1.2-1.3V45.1c0-0.8,0.4-1.3,1.2-1.3c0.8,0,1.3,0.4,1.3,1.3v4.7c0.3-0.5,0.7-0.9,1.3-1.2c0.6-0.3,1.2-0.5,1.9-0.5
		c0.9,0,1.6,0.2,2.3,0.6c0.6,0.4,1.1,1,1.5,1.8c0.4,0.8,0.5,1.7,0.5,2.7c0,1-0.2,1.9-0.5,2.7c-0.4,0.8-0.9,1.4-1.5,1.8
		C257,58.1,256.3,58.3,255.4,58.3z M254.7,56.4c0.7,0,1.3-0.3,1.8-0.8c0.5-0.5,0.7-1.3,0.7-2.4c0-1.1-0.2-1.9-0.7-2.4
		c-0.5-0.5-1.1-0.8-1.8-0.8c-0.7,0-1.3,0.3-1.8,0.8c-0.5,0.5-0.7,1.3-0.7,2.4c0,1.1,0.2,1.8,0.7,2.4C253.4,56.2,254,56.4,254.7,56.4
		z"/>
	<path fill="#808080" d="M265.3,58.3c-2.4,0-3.6-1.3-3.6-4v-4.8c0-0.8,0.4-1.3,1.2-1.3c0.8,0,1.3,0.4,1.3,1.3v4.9
		c0,0.7,0.1,1.2,0.4,1.5c0.3,0.3,0.7,0.5,1.3,0.5c0.7,0,1.2-0.2,1.6-0.7c0.4-0.5,0.6-1.1,0.6-1.8v-4.4c0-0.8,0.4-1.3,1.2-1.3
		c0.8,0,1.3,0.4,1.3,1.3V57c0,0.9-0.4,1.3-1.2,1.3c-0.8,0-1.2-0.4-1.2-1.3v-0.3C267.6,57.8,266.6,58.3,265.3,58.3z"/>
	<path fill="#808080" d="M274.6,46.3c-0.5,0-0.8-0.1-1.1-0.4c-0.3-0.2-0.4-0.6-0.4-1c0-0.4,0.1-0.8,0.4-1c0.3-0.2,0.6-0.3,1.1-0.3
		c1,0,1.5,0.4,1.5,1.3S275.6,46.3,274.6,46.3z M274.6,58.3c-0.4,0-0.7-0.1-0.9-0.4c-0.2-0.2-0.3-0.6-0.3-1v-7.3
		c0-0.9,0.4-1.4,1.2-1.4c0.8,0,1.3,0.5,1.3,1.4v7.3c0,0.4-0.1,0.8-0.3,1C275.3,58.1,275,58.3,274.6,58.3z"/>
	<path fill="#808080" d="M281.8,58.3c-2.2,0-3.3-1.2-3.3-3.7v-9.5c0-0.8,0.4-1.3,1.2-1.3c0.8,0,1.3,0.4,1.3,1.3v9.3
		c0,1.2,0.5,1.8,1.5,1.8c0.1,0,0.2,0,0.3,0c0.1,0,0.2,0,0.3,0c0.2,0,0.3,0,0.4,0.1c0.1,0.1,0.1,0.4,0.1,0.8c0,0.3-0.1,0.6-0.2,0.8
		c-0.1,0.2-0.4,0.3-0.7,0.3C282.4,58.3,282.1,58.3,281.8,58.3z"/>
	<path fill="#808080" d="M288.5,58.3c-0.9,0-1.6-0.2-2.2-0.6s-1.2-1-1.5-1.8c-0.4-0.8-0.5-1.7-0.5-2.7c0-1.1,0.2-2,0.5-2.7
		c0.4-0.8,0.9-1.3,1.5-1.8s1.4-0.6,2.2-0.6c0.7,0,1.3,0.2,1.9,0.5c0.6,0.3,1,0.7,1.3,1.2v-4.7c0-0.8,0.4-1.3,1.2-1.3
		c0.8,0,1.3,0.4,1.3,1.3V57c0,0.9-0.4,1.3-1.2,1.3c-0.8,0-1.2-0.4-1.2-1.3v-0.4c-0.3,0.5-0.7,1-1.3,1.3
		C289.8,58.2,289.2,58.3,288.5,58.3z M289.2,56.4c0.7,0,1.3-0.3,1.8-0.8s0.7-1.3,0.7-2.4c0-1.1-0.2-1.9-0.7-2.4
		c-0.5-0.5-1.1-0.8-1.8-0.8c-0.7,0-1.3,0.3-1.8,0.8c-0.5,0.5-0.7,1.3-0.7,2.4c0,1.1,0.2,1.8,0.7,2.4
		C287.8,56.2,288.4,56.4,289.2,56.4z"/>
	<path fill="#808080" d="M305.7,58.3c-0.6,0-1.2-0.1-1.8-0.2c-0.6-0.1-1.2-0.3-1.7-0.6c-0.3-0.2-0.5-0.4-0.5-0.6
		c-0.1-0.2-0.1-0.5,0-0.7c0.1-0.2,0.2-0.4,0.4-0.4c0.2-0.1,0.4-0.1,0.7,0.1c0.5,0.3,1,0.4,1.5,0.5c0.5,0.1,0.9,0.2,1.4,0.2
		c0.6,0,1.1-0.1,1.4-0.3c0.3-0.2,0.5-0.5,0.5-0.9c0-0.6-0.4-0.9-1.2-1.1l-2-0.4c-1.7-0.3-2.5-1.2-2.5-2.6c0-0.6,0.2-1.2,0.5-1.7
		c0.4-0.5,0.8-0.8,1.5-1.1c0.6-0.3,1.3-0.4,2.2-0.4c1.2,0,2.2,0.3,3.1,0.8c0.3,0.1,0.4,0.3,0.5,0.6c0,0.2,0,0.5-0.1,0.7
		c-0.1,0.2-0.3,0.4-0.5,0.4c-0.2,0.1-0.5,0.1-0.7-0.1c-0.4-0.2-0.8-0.4-1.2-0.5c-0.4-0.1-0.7-0.1-1.1-0.1c-0.7,0-1.1,0.1-1.5,0.3
		c-0.3,0.2-0.5,0.5-0.5,0.9c0,0.6,0.4,0.9,1.1,1.1l2,0.4c0.9,0.2,1.5,0.5,2,0.9c0.4,0.4,0.7,1,0.7,1.7c0,1-0.4,1.7-1.1,2.3
		C308,58,307,58.3,305.7,58.3z"/>
	<path fill="#808080" d="M316.4,58.3c-1,0-1.9-0.2-2.6-0.6c-0.7-0.4-1.3-1-1.7-1.8c-0.4-0.8-0.6-1.7-0.6-2.7c0-1,0.2-1.9,0.6-2.7
		c0.4-0.8,1-1.3,1.7-1.8c0.7-0.4,1.6-0.6,2.6-0.6c1,0,1.9,0.2,2.6,0.6s1.3,1,1.7,1.8c0.4,0.8,0.6,1.7,0.6,2.7c0,1-0.2,1.9-0.6,2.7
		c-0.4,0.8-1,1.4-1.7,1.8S317.4,58.3,316.4,58.3z M316.4,56.4c0.7,0,1.3-0.3,1.8-0.8s0.7-1.3,0.7-2.4c0-1.1-0.2-1.9-0.7-2.4
		c-0.5-0.5-1.1-0.8-1.8-0.8c-0.7,0-1.3,0.3-1.8,0.8c-0.5,0.5-0.7,1.3-0.7,2.4c0,1.1,0.2,1.8,0.7,2.4C315,56.2,315.6,56.4,316.4,56.4
		z"/>
	<path fill="#808080" d="M324.7,58.3c-0.8,0-1.2-0.4-1.2-1.3v-7.6c0-0.8,0.4-1.3,1.2-1.3c0.8,0,1.2,0.4,1.2,1.3v0.4
		c0.3-0.5,0.7-1,1.2-1.2c0.5-0.3,1.1-0.5,1.8-0.5c1.5,0,2.4,0.6,2.9,1.9c0.3-0.6,0.7-1.1,1.3-1.4c0.6-0.3,1.2-0.5,2-0.5
		c2.2,0,3.3,1.3,3.3,4V57c0,0.9-0.4,1.3-1.3,1.3c-0.8,0-1.2-0.4-1.2-1.3v-4.7c0-0.7-0.1-1.3-0.4-1.6c-0.2-0.3-0.7-0.5-1.2-0.5
		c-0.7,0-1.2,0.2-1.5,0.7c-0.4,0.5-0.6,1.1-0.6,1.9V57c0,0.9-0.4,1.3-1.2,1.3c-0.8,0-1.3-0.4-1.3-1.3v-4.7c0-0.7-0.1-1.3-0.4-1.6
		c-0.2-0.3-0.7-0.5-1.2-0.5c-0.7,0-1.2,0.2-1.5,0.7s-0.6,1.1-0.6,1.9V57C326,57.9,325.5,58.3,324.7,58.3z"/>
	<path fill="#808080" d="M345.8,58.3c-1.1,0-2.1-0.2-2.9-0.6c-0.8-0.4-1.4-1-1.8-1.8c-0.4-0.8-0.7-1.7-0.7-2.7c0-1,0.2-1.9,0.6-2.7
		s1-1.4,1.7-1.8c0.7-0.4,1.6-0.6,2.5-0.6c1.4,0,2.5,0.4,3.3,1.3c0.8,0.9,1.2,2.1,1.2,3.6c0,0.5-0.3,0.7-1,0.7h-6
		c0.2,1.7,1.2,2.6,3,2.6c0.3,0,0.7,0,1.2-0.1c0.4-0.1,0.8-0.2,1.2-0.5c0.3-0.2,0.6-0.3,0.9-0.2s0.4,0.2,0.5,0.4s0.1,0.5,0,0.7
		c-0.1,0.3-0.3,0.5-0.6,0.7c-0.5,0.3-1,0.5-1.6,0.7S346.3,58.3,345.8,58.3z M345.4,49.8c-0.7,0-1.3,0.2-1.8,0.7
		c-0.5,0.5-0.7,1.1-0.8,1.8h4.9c-0.1-0.8-0.3-1.4-0.7-1.9C346.7,50.1,346.1,49.8,345.4,49.8z"/>
	<path fill="#808080" d="M361.7,58.3c-2.6,0-3.9-1.3-3.9-3.8v-4.3h-1c-0.7,0-1-0.3-1-0.9s0.3-0.9,1-0.9h1v-1.8
		c0-0.8,0.4-1.3,1.3-1.3c0.8,0,1.2,0.4,1.2,1.3v1.8h2.1c0.7,0,1,0.3,1,0.9s-0.3,0.9-1,0.9h-2.1v4.1c0,0.6,0.1,1.1,0.4,1.4
		c0.3,0.3,0.7,0.5,1.4,0.5c0.2,0,0.4,0,0.6-0.1s0.3-0.1,0.5-0.1c0.2,0,0.3,0,0.4,0.1c0.1,0.1,0.2,0.3,0.2,0.7c0,0.3,0,0.5-0.1,0.7
		c-0.1,0.2-0.2,0.3-0.5,0.4c-0.2,0.1-0.4,0.1-0.7,0.2S361.9,58.3,361.7,58.3z"/>
	<path fill="#808080" d="M366.4,58.3c-0.8,0-1.2-0.4-1.2-1.3V45.1c0-0.8,0.4-1.3,1.2-1.3c0.8,0,1.3,0.4,1.3,1.3v4.6
		c0.3-0.5,0.8-0.9,1.3-1.2s1.2-0.4,1.9-0.4c2.3,0,3.5,1.3,3.5,4V57c0,0.9-0.4,1.3-1.2,1.3c-0.8,0-1.3-0.4-1.3-1.3v-4.7
		c0-0.8-0.1-1.3-0.4-1.7s-0.7-0.5-1.3-0.5c-0.7,0-1.3,0.2-1.8,0.7s-0.7,1.1-0.7,1.8V57C367.7,57.9,367.2,58.3,366.4,58.3z"/>
	<path fill="#808080" d="M378.1,46.3c-0.5,0-0.8-0.1-1.1-0.4c-0.3-0.2-0.4-0.6-0.4-1c0-0.4,0.1-0.8,0.4-1c0.3-0.2,0.6-0.3,1.1-0.3
		c1,0,1.5,0.4,1.5,1.3S379.1,46.3,378.1,46.3z M378.1,58.3c-0.4,0-0.7-0.1-0.9-0.4c-0.2-0.2-0.3-0.6-0.3-1v-7.3
		c0-0.9,0.4-1.4,1.2-1.4c0.8,0,1.3,0.5,1.3,1.4v7.3c0,0.4-0.1,0.8-0.3,1C378.8,58.1,378.5,58.3,378.1,58.3z"/>
	<path fill="#808080" d="M383.2,58.3c-0.8,0-1.2-0.4-1.2-1.3v-7.6c0-0.8,0.4-1.3,1.2-1.3c0.8,0,1.2,0.4,1.2,1.3v0.4
		c0.3-0.6,0.8-1,1.3-1.3c0.6-0.3,1.2-0.4,1.9-0.4c2.3,0,3.5,1.3,3.5,4V57c0,0.9-0.4,1.3-1.2,1.3c-0.8,0-1.3-0.4-1.3-1.3v-4.7
		c0-0.8-0.1-1.3-0.4-1.7c-0.3-0.3-0.7-0.5-1.3-0.5c-0.7,0-1.3,0.2-1.8,0.7c-0.4,0.5-0.7,1.1-0.7,1.8V57
		C384.5,57.9,384,58.3,383.2,58.3z"/>
	<path fill="#808080" d="M398.2,61.9c-0.7,0-1.4-0.1-2.1-0.2c-0.7-0.1-1.3-0.3-1.8-0.6c-0.3-0.2-0.5-0.4-0.6-0.6
		c-0.1-0.2,0-0.5,0.1-0.7c0.1-0.2,0.3-0.4,0.5-0.5s0.5-0.1,0.7,0c0.6,0.3,1.1,0.5,1.7,0.6c0.5,0.1,1,0.1,1.3,0.1
		c1.8,0,2.7-0.9,2.7-2.6v-1.3c-0.3,0.5-0.7,1-1.3,1.3s-1.2,0.5-1.9,0.5c-0.9,0-1.6-0.2-2.3-0.6c-0.7-0.4-1.2-1-1.5-1.7
		c-0.4-0.7-0.5-1.6-0.5-2.6c0-1,0.2-1.8,0.5-2.5c0.4-0.7,0.9-1.3,1.5-1.7c0.7-0.4,1.4-0.6,2.3-0.6c0.7,0,1.3,0.2,1.9,0.5
		c0.6,0.3,1,0.7,1.3,1.3v-0.4c0-0.4,0.1-0.7,0.3-0.9c0.2-0.2,0.5-0.3,0.9-0.3c0.8,0,1.2,0.4,1.2,1.3v7.7c0,1.6-0.4,2.8-1.3,3.6
		C401,61.5,399.8,61.9,398.2,61.9z M398.2,56c0.8,0,1.4-0.3,1.8-0.8s0.7-1.3,0.7-2.2s-0.2-1.6-0.7-2.2c-0.5-0.5-1.1-0.8-1.8-0.8
		s-1.4,0.3-1.8,0.8c-0.5,0.5-0.7,1.2-0.7,2.2s0.2,1.6,0.7,2.2C396.8,55.7,397.4,56,398.2,56z"/>
	<path fill="#808080" d="M409.3,58.3c-0.6,0-1.2-0.1-1.8-0.2c-0.6-0.1-1.2-0.3-1.7-0.6c-0.3-0.2-0.5-0.4-0.5-0.6
		c-0.1-0.2-0.1-0.5,0-0.7c0.1-0.2,0.2-0.4,0.4-0.4c0.2-0.1,0.5-0.1,0.7,0.1c0.5,0.3,1,0.4,1.5,0.5s0.9,0.2,1.4,0.2
		c0.6,0,1.1-0.1,1.4-0.3c0.3-0.2,0.5-0.5,0.5-0.9c0-0.6-0.4-0.9-1.2-1.1l-2-0.4c-1.7-0.3-2.5-1.2-2.5-2.6c0-0.6,0.2-1.2,0.5-1.7
		c0.4-0.5,0.8-0.8,1.5-1.1c0.6-0.3,1.3-0.4,2.2-0.4c1.2,0,2.2,0.3,3.1,0.8c0.3,0.1,0.4,0.3,0.4,0.6s0,0.5-0.1,0.7
		c-0.1,0.2-0.3,0.4-0.5,0.4c-0.2,0.1-0.5,0.1-0.7-0.1c-0.4-0.2-0.8-0.4-1.2-0.5c-0.4-0.1-0.7-0.1-1.1-0.1c-0.7,0-1.1,0.1-1.5,0.3
		c-0.3,0.2-0.5,0.5-0.5,0.9c0,0.6,0.4,0.9,1.1,1.1l2,0.4c0.9,0.2,1.5,0.5,2,0.9c0.4,0.4,0.7,1,0.7,1.7c0,1-0.4,1.7-1.1,2.3
		S410.6,58.3,409.3,58.3z"/>
</g>
<path fill="#FFA300" d="M481.7,80.3c-0.3-0.9-1.1-1.6-2-1.7l-5.5-0.8l-2.4-5c-0.4-0.9-1.3-1.4-2.2-1.4s-1.8,0.5-2.2,1.4l-2.4,5
	l-5.5,0.8c-0.9,0.1-1.7,0.8-2,1.7c-0.3,0.9,0,1.9,0.6,2.6l4,3.9l-0.9,5.5c-0.2,0.9,0.2,1.9,1,2.5c0.8,0.6,1.8,0.6,2.6,0.2l4.9-2.6
	l4.9,2.6c0.4,0.2,0.8,0.3,1.2,0.3c0.5,0,1-0.2,1.5-0.5c0.8-0.6,1.2-1.5,1-2.5l-0.9-5.5l4-3.9C481.8,82.1,482,81.2,481.7,80.3z"/>
<path fill="#FFA300" d="M451.7,80.3c-0.3-0.9-1.1-1.6-2-1.7l-5.5-0.8l-2.4-5c-0.4-0.9-1.3-1.4-2.2-1.4c-1,0-1.8,0.5-2.2,1.4l-2.4,5
	l-5.5,0.8c-0.9,0.1-1.7,0.8-2,1.7c-0.3,0.9,0,1.9,0.6,2.6l4,3.9l-0.9,5.5c-0.2,0.9,0.2,1.9,1,2.5c0.8,0.6,1.8,0.6,2.6,0.2l4.9-2.6
	l4.9,2.6c0.4,0.2,0.8,0.3,1.2,0.3c0.5,0,1-0.2,1.5-0.5c0.8-0.6,1.2-1.5,1-2.5l-0.9-5.5l4-3.9C451.7,82.1,452,81.2,451.7,80.3z"/>
<path fill="#FFA300" d="M511.8,80.3c-0.3-0.9-1.1-1.6-2-1.7l-5.5-0.8l-2.4-5c-0.4-0.9-1.3-1.4-2.2-1.4c-1,0-1.8,0.5-2.2,1.4l-2.4,5
	l-5.5,0.8c-0.9,0.1-1.7,0.8-2,1.7c-0.3,0.9,0,1.9,0.6,2.6l4,3.9l-0.9,5.5c-0.2,0.9,0.2,1.9,1,2.5c0.8,0.6,1.8,0.6,2.6,0.2l4.9-2.6
	l4.9,2.6c0.4,0.2,0.8,0.3,1.2,0.3c0.5,0,1-0.2,1.5-0.5c0.8-0.6,1.2-1.5,1-2.5l-0.9-5.5l4-3.9C511.8,82.1,512.1,81.2,511.8,80.3z"/>
<g>
	<path fill="#808080" d="M13.1,91.3c-0.9,0-1.3-0.4-1.3-1.3V78.2c0-0.9,0.4-1.3,1.3-1.3c0.9,0,1.3,0.4,1.3,1.3V90
		C14.4,90.8,14,91.3,13.1,91.3z"/>
	<path fill="#808080" d="M27.2,91.3c-1,0-1.9-0.2-2.7-0.6c-0.8-0.4-1.3-1-1.8-1.8s-0.6-1.7-0.6-2.7c0-1,0.2-1.9,0.6-2.7
		s1-1.3,1.8-1.7c0.8-0.4,1.7-0.6,2.7-0.6c0.4,0,0.9,0.1,1.4,0.2c0.5,0.1,1,0.3,1.5,0.6c0.3,0.2,0.4,0.4,0.5,0.6s0,0.5-0.1,0.7
		s-0.3,0.4-0.5,0.5c-0.2,0.1-0.5,0.1-0.8-0.1c-0.6-0.3-1.2-0.5-1.8-0.5c-0.9,0-1.5,0.3-2,0.8c-0.5,0.5-0.7,1.3-0.7,2.3
		c0,1,0.2,1.8,0.7,2.3s1.1,0.8,2,0.8c0.6,0,1.2-0.2,1.8-0.5c0.3-0.2,0.5-0.2,0.7-0.1c0.2,0.1,0.4,0.2,0.5,0.5
		c0.1,0.2,0.1,0.5,0.1,0.7c-0.1,0.2-0.2,0.5-0.5,0.6c-0.4,0.3-0.9,0.5-1.4,0.6C28.1,91.3,27.6,91.3,27.2,91.3z"/>
	<path fill="#808080" d="M35.3,91.3c-0.7,0-1.3-0.1-1.9-0.4s-1-0.6-1.3-1.1c-0.3-0.5-0.5-1-0.5-1.6c0-0.7,0.2-1.3,0.6-1.7
		c0.4-0.4,1-0.7,1.8-0.9c0.8-0.2,2-0.3,3.4-0.3h0.7v-0.4c0-0.7-0.1-1.1-0.4-1.4c-0.3-0.3-0.8-0.4-1.5-0.4c-0.4,0-0.8,0-1.2,0.1
		s-0.9,0.3-1.4,0.5c-0.3,0.1-0.6,0.2-0.8,0c-0.2-0.1-0.4-0.3-0.4-0.5c-0.1-0.2-0.1-0.5,0-0.8c0.1-0.3,0.3-0.4,0.6-0.6
		c0.6-0.3,1.2-0.4,1.8-0.5c0.6-0.1,1.1-0.2,1.5-0.2c1.4,0,2.5,0.3,3.2,1c0.7,0.7,1,1.7,1,3.1V90c0,0.9-0.4,1.3-1.2,1.3
		c-0.8,0-1.2-0.4-1.2-1.3v-0.4c-0.2,0.5-0.6,1-1.1,1.3C36.5,91.2,36,91.3,35.3,91.3z M35.8,89.6c0.7,0,1.2-0.2,1.6-0.7
		c0.4-0.5,0.6-1,0.6-1.7v-0.4h-0.7c-1.3,0-2.1,0.1-2.6,0.3s-0.7,0.5-0.7,1c0,0.4,0.2,0.8,0.5,1.1C34.8,89.5,35.3,89.6,35.8,89.6z"/>
	<path fill="#808080" d="M44.2,91.3c-0.8,0-1.2-0.4-1.2-1.3v-7.6c0-0.8,0.4-1.3,1.2-1.3c0.8,0,1.2,0.4,1.2,1.3v0.4
		c0.3-0.6,0.8-1,1.3-1.3s1.2-0.4,1.9-0.4c2.3,0,3.5,1.3,3.5,4V90c0,0.9-0.4,1.3-1.2,1.3c-0.8,0-1.3-0.4-1.3-1.3v-4.7
		c0-0.8-0.1-1.3-0.4-1.7s-0.7-0.5-1.3-0.5c-0.7,0-1.3,0.2-1.8,0.7c-0.4,0.5-0.7,1.1-0.7,1.8V90C45.5,90.9,45.1,91.3,44.2,91.3z"/>
	<path fill="#808080" d="M62,91.3c-0.8,0-1.3-0.4-1.3-1.3v-6.8h-0.9c-0.7,0-1-0.3-1-0.9s0.3-0.9,1-0.9h0.9v0c0-1.3,0.3-2.4,1-3.1
		s1.7-1.1,3-1.2l0.6-0.1c0.4,0,0.7,0,0.9,0.2c0.2,0.2,0.3,0.4,0.3,0.6c0,0.2,0,0.5-0.2,0.7c-0.1,0.2-0.3,0.3-0.5,0.3l-0.5,0
		c-0.7,0.1-1.2,0.2-1.5,0.6c-0.3,0.3-0.5,0.8-0.5,1.5v0.4h5.2c0.8,0,1.2,0.4,1.2,1.3v7.2c0,0.4-0.1,0.8-0.3,1s-0.5,0.4-0.9,0.4
		c-0.4,0-0.7-0.1-0.9-0.4s-0.3-0.6-0.3-1v-6.7h-4V90C63.3,90.9,62.9,91.3,62,91.3z M68.5,79.3c-0.9,0-1.4-0.4-1.4-1.3
		c0-0.9,0.5-1.3,1.4-1.3c1,0,1.4,0.4,1.4,1.3c0,0.4-0.1,0.7-0.4,1C69.4,79.2,69,79.3,68.5,79.3z"/>
	<path fill="#808080" d="M76.9,94.9c-0.7,0-1.4-0.1-2.1-0.2c-0.7-0.1-1.3-0.3-1.8-0.6c-0.3-0.2-0.5-0.4-0.6-0.6
		c-0.1-0.2,0-0.5,0.1-0.7c0.1-0.2,0.3-0.4,0.5-0.5c0.2-0.1,0.5-0.1,0.7,0c0.6,0.3,1.1,0.5,1.7,0.6c0.5,0.1,1,0.1,1.4,0.1
		c1.8,0,2.7-0.9,2.7-2.6v-1.3c-0.3,0.5-0.7,1-1.3,1.3c-0.6,0.3-1.2,0.5-1.9,0.5c-0.9,0-1.6-0.2-2.3-0.6c-0.7-0.4-1.2-1-1.5-1.7
		C72,87.8,71.8,87,71.8,86c0-1,0.2-1.8,0.5-2.5c0.4-0.7,0.9-1.3,1.5-1.7c0.7-0.4,1.4-0.6,2.3-0.6c0.7,0,1.3,0.2,1.9,0.5
		c0.6,0.3,1,0.7,1.3,1.3v-0.4c0-0.4,0.1-0.7,0.3-0.9c0.2-0.2,0.5-0.3,0.9-0.3c0.8,0,1.2,0.4,1.2,1.3v7.7c0,1.6-0.4,2.8-1.3,3.6
		C79.7,94.5,78.5,94.9,76.9,94.9z M76.8,89c0.8,0,1.4-0.3,1.8-0.8c0.5-0.5,0.7-1.3,0.7-2.2s-0.2-1.6-0.7-2.2
		c-0.5-0.5-1.1-0.8-1.8-0.8s-1.4,0.3-1.8,0.8c-0.5,0.5-0.7,1.2-0.7,2.2s0.2,1.6,0.7,2.2C75.5,88.7,76.1,89,76.8,89z"/>
	<path fill="#808080" d="M88,91.3c-2.4,0-3.6-1.3-3.6-4v-4.8c0-0.8,0.4-1.3,1.2-1.3c0.8,0,1.3,0.4,1.3,1.3v4.9
		c0,0.7,0.1,1.2,0.4,1.5c0.3,0.3,0.7,0.5,1.3,0.5c0.7,0,1.2-0.2,1.6-0.7c0.4-0.5,0.6-1.1,0.6-1.8v-4.4c0-0.8,0.4-1.3,1.2-1.3
		c0.8,0,1.3,0.4,1.3,1.3V90c0,0.9-0.4,1.3-1.2,1.3c-0.8,0-1.2-0.4-1.2-1.3v-0.3C90.3,90.8,89.3,91.3,88,91.3z"/>
	<path fill="#808080" d="M97.3,91.3c-0.9,0-1.3-0.4-1.3-1.3v-7.6c0-0.8,0.4-1.3,1.2-1.3c0.8,0,1.2,0.4,1.2,1.3v0.6
		c0.5-1.1,1.5-1.8,3.1-1.9c0.6-0.1,0.9,0.3,1,1c0.1,0.7-0.3,1.1-1,1.2l-0.4,0c-1.6,0.2-2.5,1-2.5,2.5V90
		C98.5,90.9,98.1,91.3,97.3,91.3z"/>
	<path fill="#808080" d="M108.5,91.3c-1.1,0-2.1-0.2-2.9-0.6c-0.8-0.4-1.4-1-1.8-1.8c-0.4-0.8-0.7-1.7-0.7-2.7c0-1,0.2-1.9,0.6-2.7
		s1-1.4,1.7-1.8c0.7-0.4,1.6-0.6,2.5-0.6c1.4,0,2.5,0.4,3.3,1.3c0.8,0.9,1.2,2.1,1.2,3.6c0,0.5-0.3,0.7-1,0.7h-6
		c0.2,1.7,1.2,2.6,3,2.6c0.3,0,0.7,0,1.2-0.1c0.4-0.1,0.8-0.2,1.2-0.5c0.3-0.2,0.6-0.3,0.9-0.2c0.2,0.1,0.4,0.2,0.5,0.4
		c0.1,0.2,0.1,0.5,0,0.7c-0.1,0.3-0.3,0.5-0.6,0.7c-0.5,0.3-1,0.5-1.6,0.7C109.6,91.3,109,91.3,108.5,91.3z M108.1,82.8
		c-0.7,0-1.3,0.2-1.8,0.7c-0.5,0.5-0.7,1.1-0.8,1.8h4.9c-0.1-0.8-0.3-1.4-0.7-1.9C109.4,83.1,108.8,82.8,108.1,82.8z"/>
	<path fill="#808080" d="M124.4,91.3c-2.6,0-3.9-1.3-3.9-3.8v-4.3h-1c-0.7,0-1-0.3-1-0.9s0.3-0.9,1-0.9h1v-1.8
		c0-0.8,0.4-1.3,1.3-1.3c0.8,0,1.2,0.4,1.2,1.3v1.8h2.1c0.7,0,1,0.3,1,0.9s-0.3,0.9-1,0.9H123v4.1c0,0.6,0.1,1.1,0.4,1.4
		c0.3,0.3,0.7,0.5,1.4,0.5c0.2,0,0.4,0,0.6-0.1s0.3-0.1,0.5-0.1c0.2,0,0.3,0,0.4,0.1c0.1,0.1,0.2,0.3,0.2,0.7c0,0.3,0,0.5-0.1,0.7
		c-0.1,0.2-0.2,0.3-0.5,0.4c-0.2,0.1-0.4,0.1-0.7,0.2S124.6,91.3,124.4,91.3z"/>
	<path fill="#808080" d="M129.1,91.3c-0.8,0-1.2-0.4-1.2-1.3V78.1c0-0.8,0.4-1.3,1.2-1.3c0.8,0,1.3,0.4,1.3,1.3v4.6
		c0.3-0.5,0.8-0.9,1.3-1.2s1.2-0.4,1.9-0.4c2.3,0,3.5,1.3,3.5,4V90c0,0.9-0.4,1.3-1.2,1.3c-0.8,0-1.3-0.4-1.3-1.3v-4.7
		c0-0.8-0.1-1.3-0.4-1.7s-0.7-0.5-1.3-0.5c-0.7,0-1.3,0.2-1.8,0.7c-0.4,0.5-0.7,1.1-0.7,1.8V90C130.4,90.9,130,91.3,129.1,91.3z"/>
	<path fill="#808080" d="M140.8,79.3c-0.5,0-0.8-0.1-1.1-0.3c-0.3-0.2-0.4-0.6-0.4-1c0-0.4,0.1-0.8,0.4-1c0.3-0.2,0.6-0.3,1.1-0.3
		c1,0,1.5,0.4,1.5,1.3C142.3,78.9,141.8,79.3,140.8,79.3z M140.8,91.3c-0.4,0-0.7-0.1-0.9-0.4c-0.2-0.2-0.3-0.6-0.3-1v-7.3
		c0-0.9,0.4-1.4,1.2-1.4c0.8,0,1.3,0.5,1.3,1.4v7.3c0,0.4-0.1,0.8-0.3,1S141.2,91.3,140.8,91.3z"/>
	<path fill="#808080" d="M145.9,91.3c-0.8,0-1.2-0.4-1.2-1.3v-7.6c0-0.8,0.4-1.3,1.2-1.3c0.8,0,1.2,0.4,1.2,1.3v0.4
		c0.3-0.6,0.8-1,1.3-1.3s1.2-0.4,1.9-0.4c2.3,0,3.5,1.3,3.5,4V90c0,0.9-0.4,1.3-1.2,1.3c-0.8,0-1.3-0.4-1.3-1.3v-4.7
		c0-0.8-0.1-1.3-0.4-1.7s-0.7-0.5-1.3-0.5c-0.7,0-1.3,0.2-1.8,0.7c-0.4,0.5-0.7,1.1-0.7,1.8V90C147.2,90.9,146.8,91.3,145.9,91.3z"
		/>
	<path fill="#808080" d="M160.9,94.9c-0.7,0-1.4-0.1-2.1-0.2c-0.7-0.1-1.3-0.3-1.8-0.6c-0.3-0.2-0.5-0.4-0.6-0.6
		c-0.1-0.2,0-0.5,0.1-0.7c0.1-0.2,0.3-0.4,0.5-0.5c0.2-0.1,0.5-0.1,0.7,0c0.6,0.3,1.1,0.5,1.7,0.6c0.5,0.1,1,0.1,1.4,0.1
		c1.8,0,2.7-0.9,2.7-2.6v-1.3c-0.3,0.5-0.7,1-1.3,1.3c-0.6,0.3-1.2,0.5-1.9,0.5c-0.9,0-1.6-0.2-2.3-0.6c-0.7-0.4-1.2-1-1.5-1.7
		c-0.4-0.7-0.5-1.6-0.5-2.6c0-1,0.2-1.8,0.5-2.5c0.4-0.7,0.9-1.3,1.5-1.7c0.7-0.4,1.4-0.6,2.3-0.6c0.7,0,1.3,0.2,1.9,0.5
		c0.6,0.3,1,0.7,1.3,1.3v-0.4c0-0.4,0.1-0.7,0.3-0.9c0.2-0.2,0.5-0.3,0.9-0.3c0.8,0,1.2,0.4,1.2,1.3v7.7c0,1.6-0.4,2.8-1.3,3.6
		C163.8,94.5,162.5,94.9,160.9,94.9z M160.9,89c0.8,0,1.4-0.3,1.8-0.8c0.5-0.5,0.7-1.3,0.7-2.2s-0.2-1.6-0.7-2.2
		c-0.5-0.5-1.1-0.8-1.8-0.8s-1.4,0.3-1.8,0.8c-0.5,0.5-0.7,1.2-0.7,2.2s0.2,1.6,0.7,2.2C159.5,88.7,160.1,89,160.9,89z"/>
	<path fill="#808080" d="M172,91.3c-0.6,0-1.2-0.1-1.8-0.2c-0.6-0.1-1.2-0.3-1.7-0.6c-0.3-0.2-0.5-0.4-0.5-0.6
		c-0.1-0.2-0.1-0.5,0-0.7c0.1-0.2,0.2-0.4,0.4-0.4c0.2-0.1,0.5-0.1,0.7,0.1c0.5,0.3,1,0.4,1.5,0.5c0.5,0.1,0.9,0.2,1.4,0.2
		c0.6,0,1.1-0.1,1.4-0.3c0.3-0.2,0.5-0.5,0.5-0.9c0-0.6-0.4-0.9-1.2-1.1l-2-0.4c-1.7-0.3-2.5-1.2-2.5-2.6c0-0.6,0.2-1.2,0.5-1.7
		c0.4-0.5,0.8-0.8,1.5-1.1c0.6-0.3,1.3-0.4,2.2-0.4c1.2,0,2.2,0.3,3.1,0.8c0.3,0.1,0.4,0.3,0.5,0.6c0,0.2,0,0.5-0.1,0.7
		c-0.1,0.2-0.3,0.4-0.5,0.4c-0.2,0.1-0.5,0.1-0.7-0.1c-0.4-0.2-0.8-0.4-1.2-0.5c-0.4-0.1-0.7-0.1-1.1-0.1c-0.7,0-1.1,0.1-1.5,0.3
		c-0.3,0.2-0.5,0.5-0.5,0.9c0,0.6,0.4,0.9,1.1,1.1l2,0.4c0.9,0.2,1.5,0.5,2,0.9c0.4,0.4,0.7,1,0.7,1.7c0,1-0.4,1.7-1.1,2.3
		C174.3,91,173.3,91.3,172,91.3z"/>
	<path fill="#808080" d="M188.1,91.3c-1,0-1.9-0.2-2.6-0.6c-0.7-0.4-1.3-1-1.7-1.8c-0.4-0.8-0.6-1.7-0.6-2.7c0-1,0.2-1.9,0.6-2.7
		c0.4-0.8,1-1.3,1.7-1.8c0.7-0.4,1.6-0.6,2.6-0.6s1.9,0.2,2.6,0.6c0.7,0.4,1.3,1,1.7,1.8c0.4,0.8,0.6,1.7,0.6,2.7
		c0,1-0.2,1.9-0.6,2.7c-0.4,0.8-1,1.4-1.7,1.8S189.1,91.3,188.1,91.3z M188.1,89.4c0.7,0,1.3-0.3,1.8-0.8c0.5-0.5,0.7-1.3,0.7-2.4
		c0-1.1-0.2-1.9-0.7-2.4c-0.5-0.5-1.1-0.8-1.8-0.8s-1.3,0.3-1.8,0.8c-0.5,0.5-0.7,1.3-0.7,2.4c0,1.1,0.2,1.8,0.7,2.4
		C186.8,89.2,187.4,89.4,188.1,89.4z"/>
	<path fill="#808080" d="M198.7,91.3c-2.4,0-3.6-1.3-3.6-4v-4.8c0-0.8,0.4-1.3,1.2-1.3c0.8,0,1.3,0.4,1.3,1.3v4.9
		c0,0.7,0.1,1.2,0.4,1.5c0.3,0.3,0.7,0.5,1.3,0.5c0.7,0,1.2-0.2,1.6-0.7c0.4-0.5,0.6-1.1,0.6-1.8v-4.4c0-0.8,0.4-1.3,1.2-1.3
		c0.8,0,1.3,0.4,1.3,1.3V90c0,0.9-0.4,1.3-1.2,1.3c-0.8,0-1.2-0.4-1.2-1.3v-0.3C201,90.8,200,91.3,198.7,91.3z"/>
	<path fill="#808080" d="M211.2,91.3c-2.6,0-3.9-1.3-3.9-3.8v-4.3h-1c-0.7,0-1-0.3-1-0.9s0.3-0.9,1-0.9h1v-1.8
		c0-0.8,0.4-1.3,1.3-1.3c0.8,0,1.2,0.4,1.2,1.3v1.8h2.1c0.7,0,1,0.3,1,0.9s-0.3,0.9-1,0.9h-2.1v4.1c0,0.6,0.1,1.1,0.4,1.4
		c0.3,0.3,0.7,0.5,1.4,0.5c0.2,0,0.4,0,0.6-0.1s0.3-0.1,0.5-0.1c0.2,0,0.3,0,0.4,0.1c0.1,0.1,0.2,0.3,0.2,0.7c0,0.3,0,0.5-0.1,0.7
		c-0.1,0.2-0.2,0.3-0.5,0.4c-0.2,0.1-0.4,0.1-0.7,0.2S211.4,91.3,211.2,91.3z"/>
	<path fill="#808080" d="M223.1,91.3c-0.7,0-1.3-0.1-1.9-0.4s-1-0.6-1.3-1.1c-0.3-0.5-0.5-1-0.5-1.6c0-0.7,0.2-1.3,0.6-1.7
		c0.4-0.4,1-0.7,1.8-0.9c0.8-0.2,2-0.3,3.4-0.3h0.7v-0.4c0-0.7-0.1-1.1-0.4-1.4c-0.3-0.3-0.8-0.4-1.5-0.4c-0.4,0-0.8,0-1.2,0.1
		s-0.9,0.3-1.4,0.5c-0.3,0.1-0.6,0.2-0.8,0c-0.2-0.1-0.4-0.3-0.4-0.5c-0.1-0.2-0.1-0.5,0-0.8c0.1-0.3,0.3-0.4,0.6-0.6
		c0.6-0.3,1.2-0.4,1.8-0.5c0.6-0.1,1.1-0.2,1.5-0.2c1.4,0,2.5,0.3,3.2,1c0.7,0.7,1,1.7,1,3.1V90c0,0.9-0.4,1.3-1.2,1.3
		c-0.8,0-1.2-0.4-1.2-1.3v-0.4c-0.2,0.5-0.6,1-1.1,1.3C224.3,91.2,223.7,91.3,223.1,91.3z M223.6,89.6c0.7,0,1.2-0.2,1.6-0.7
		c0.4-0.5,0.6-1,0.6-1.7v-0.4h-0.7c-1.3,0-2.1,0.1-2.6,0.3s-0.7,0.5-0.7,1c0,0.4,0.2,0.8,0.5,1.1C222.6,89.5,223,89.6,223.6,89.6z"
		/>
	<path fill="#808080" d="M232,91.3c-0.8,0-1.2-0.4-1.2-1.3v-7.6c0-0.8,0.4-1.3,1.2-1.3c0.8,0,1.2,0.4,1.2,1.3v0.4
		c0.3-0.6,0.8-1,1.3-1.3s1.2-0.4,1.9-0.4c2.3,0,3.5,1.3,3.5,4V90c0,0.9-0.4,1.3-1.2,1.3c-0.8,0-1.3-0.4-1.3-1.3v-4.7
		c0-0.8-0.1-1.3-0.4-1.7s-0.7-0.5-1.3-0.5c-0.7,0-1.3,0.2-1.8,0.7c-0.4,0.5-0.7,1.1-0.7,1.8V90C233.3,90.9,232.9,91.3,232,91.3z"/>
	<path fill="#808080" d="M246.2,91.3c-0.9,0-1.6-0.2-2.2-0.6c-0.6-0.4-1.1-1-1.5-1.8c-0.4-0.8-0.5-1.7-0.5-2.7c0-1.1,0.2-2,0.5-2.7
		c0.4-0.8,0.9-1.3,1.5-1.8c0.6-0.4,1.4-0.6,2.2-0.6c0.7,0,1.3,0.2,1.9,0.5c0.6,0.3,1,0.7,1.3,1.2v-4.7c0-0.8,0.4-1.3,1.2-1.3
		c0.8,0,1.3,0.4,1.3,1.3V90c0,0.9-0.4,1.3-1.2,1.3s-1.2-0.4-1.2-1.3v-0.4c-0.3,0.5-0.7,1-1.3,1.3C247.6,91.2,246.9,91.3,246.2,91.3z
		 M246.9,89.4c0.7,0,1.3-0.3,1.8-0.8c0.5-0.5,0.7-1.3,0.7-2.4c0-1.1-0.2-1.9-0.7-2.4c-0.5-0.5-1.1-0.8-1.8-0.8s-1.3,0.3-1.8,0.8
		c-0.5,0.5-0.7,1.3-0.7,2.4c0,1.1,0.2,1.8,0.7,2.4C245.6,89.2,246.2,89.4,246.9,89.4z"/>
	<path fill="#808080" d="M261.2,91.3c-0.8,0-1.2-0.4-1.2-1.3v-7.6c0-0.8,0.4-1.3,1.2-1.3c0.8,0,1.2,0.4,1.2,1.3v0.4
		c0.3-0.5,0.7-0.9,1.2-1.2c0.5-0.3,1.1-0.4,1.8-0.4c1.5,0,2.4,0.6,2.9,1.9c0.3-0.6,0.7-1.1,1.3-1.4s1.2-0.5,2-0.5
		c2.2,0,3.3,1.3,3.3,4V90c0,0.9-0.4,1.3-1.3,1.3c-0.8,0-1.2-0.4-1.2-1.3v-4.7c0-0.7-0.1-1.3-0.4-1.6c-0.2-0.3-0.7-0.5-1.2-0.5
		c-0.7,0-1.2,0.2-1.5,0.7c-0.4,0.5-0.6,1.1-0.6,1.9V90c0,0.9-0.4,1.3-1.2,1.3c-0.8,0-1.3-0.4-1.3-1.3v-4.7c0-0.7-0.1-1.3-0.4-1.6
		s-0.7-0.5-1.2-0.5c-0.7,0-1.2,0.2-1.5,0.7c-0.4,0.5-0.6,1.1-0.6,1.9V90C262.4,90.9,262,91.3,261.2,91.3z"/>
	<path fill="#808080" d="M280.7,91.3c-0.7,0-1.3-0.1-1.9-0.4s-1-0.6-1.3-1.1c-0.3-0.5-0.5-1-0.5-1.6c0-0.7,0.2-1.3,0.6-1.7
		s1-0.7,1.8-0.9c0.8-0.2,2-0.3,3.4-0.3h0.7v-0.4c0-0.7-0.1-1.1-0.4-1.4c-0.3-0.3-0.8-0.4-1.5-0.4c-0.4,0-0.8,0-1.2,0.1
		c-0.4,0.1-0.9,0.3-1.4,0.5c-0.3,0.1-0.6,0.2-0.8,0c-0.2-0.1-0.4-0.3-0.4-0.5c-0.1-0.2-0.1-0.5,0-0.8c0.1-0.3,0.3-0.4,0.6-0.6
		c0.6-0.3,1.2-0.4,1.8-0.5c0.6-0.1,1.1-0.2,1.6-0.2c1.4,0,2.5,0.3,3.2,1c0.7,0.7,1,1.7,1,3.1V90c0,0.9-0.4,1.3-1.2,1.3
		c-0.8,0-1.2-0.4-1.2-1.3v-0.4c-0.2,0.5-0.6,1-1.1,1.3C281.9,91.2,281.3,91.3,280.7,91.3z M281.2,89.6c0.7,0,1.2-0.2,1.6-0.7
		s0.7-1,0.7-1.7v-0.4h-0.7c-1.3,0-2.1,0.1-2.6,0.3c-0.5,0.2-0.7,0.5-0.7,1c0,0.4,0.2,0.8,0.5,1.1C280.2,89.5,280.6,89.6,281.2,89.6z
		"/>
	<path fill="#808080" d="M289.6,91.3c-0.8,0-1.2-0.4-1.2-1.3V78.1c0-0.8,0.4-1.3,1.2-1.3c0.8,0,1.3,0.4,1.3,1.3v7.4h0l3.3-3.5
		c0.3-0.3,0.5-0.5,0.7-0.6c0.2-0.1,0.5-0.2,0.8-0.2s0.6,0.1,0.8,0.3c0.2,0.2,0.3,0.4,0.3,0.6c0,0.3-0.1,0.5-0.4,0.8l-3,3.2l3.3,3.6
		c0.2,0.3,0.3,0.5,0.3,0.8c0,0.3-0.1,0.5-0.3,0.6c-0.2,0.2-0.5,0.2-0.8,0.2c-0.4,0-0.7-0.1-0.9-0.2c-0.2-0.1-0.5-0.4-0.7-0.7
		l-3.5-3.6h0V90C290.9,90.9,290.5,91.3,289.6,91.3z"/>
	<path fill="#808080" d="M303.7,91.3c-1.1,0-2.1-0.2-2.9-0.6s-1.4-1-1.8-1.8c-0.4-0.8-0.7-1.7-0.7-2.7c0-1,0.2-1.9,0.6-2.7
		s1-1.4,1.7-1.8c0.7-0.4,1.6-0.6,2.5-0.6c1.4,0,2.5,0.4,3.3,1.3s1.2,2.1,1.2,3.6c0,0.5-0.3,0.7-1,0.7h-6c0.2,1.7,1.2,2.6,3,2.6
		c0.3,0,0.7,0,1.2-0.1c0.4-0.1,0.8-0.2,1.2-0.5c0.3-0.2,0.6-0.3,0.9-0.2s0.4,0.2,0.5,0.4s0.1,0.5,0,0.7c-0.1,0.3-0.3,0.5-0.6,0.7
		c-0.5,0.3-1,0.5-1.6,0.7C304.8,91.3,304.2,91.3,303.7,91.3z M303.4,82.8c-0.7,0-1.3,0.2-1.8,0.7c-0.5,0.5-0.7,1.1-0.8,1.8h4.9
		c-0.1-0.8-0.3-1.4-0.7-1.9S304.1,82.8,303.4,82.8z"/>
	<path fill="#808080" d="M318.7,91.3c-0.6,0-1.2-0.1-1.8-0.2c-0.6-0.1-1.2-0.3-1.7-0.6c-0.3-0.2-0.5-0.4-0.5-0.6
		c-0.1-0.2-0.1-0.5,0-0.7c0.1-0.2,0.2-0.4,0.4-0.4s0.5-0.1,0.7,0.1c0.5,0.3,1,0.4,1.5,0.5c0.5,0.1,0.9,0.2,1.4,0.2
		c0.6,0,1.1-0.1,1.4-0.3c0.3-0.2,0.5-0.5,0.5-0.9c0-0.6-0.4-0.9-1.2-1.1l-2-0.4c-1.7-0.3-2.5-1.2-2.5-2.6c0-0.6,0.2-1.2,0.5-1.7
		c0.4-0.5,0.8-0.8,1.5-1.1c0.6-0.3,1.3-0.4,2.2-0.4c1.2,0,2.2,0.3,3.1,0.8c0.3,0.1,0.4,0.3,0.5,0.6c0,0.2,0,0.5-0.1,0.7
		c-0.1,0.2-0.3,0.4-0.5,0.4s-0.5,0.1-0.7-0.1c-0.4-0.2-0.8-0.4-1.2-0.5c-0.4-0.1-0.7-0.1-1.1-0.1c-0.7,0-1.1,0.1-1.5,0.3
		s-0.5,0.5-0.5,0.9c0,0.6,0.4,0.9,1.1,1.1l2,0.4c0.9,0.2,1.5,0.5,2,0.9c0.4,0.4,0.7,1,0.7,1.7c0,1-0.4,1.7-1.1,2.3
		C321,91,320,91.3,318.7,91.3z"/>
	<path fill="#808080" d="M329.3,91.3c-2.6,0-3.9-1.3-3.9-3.8v-4.3h-1c-0.7,0-1-0.3-1-0.9s0.3-0.9,1-0.9h1v-1.8
		c0-0.8,0.4-1.3,1.3-1.3c0.8,0,1.2,0.4,1.2,1.3v1.8h2.1c0.7,0,1,0.3,1,0.9s-0.3,0.9-1,0.9h-2.1v4.1c0,0.6,0.1,1.1,0.4,1.4
		c0.3,0.3,0.7,0.5,1.4,0.5c0.2,0,0.4,0,0.6-0.1c0.2,0,0.3-0.1,0.5-0.1c0.2,0,0.3,0,0.4,0.1c0.1,0.1,0.2,0.3,0.2,0.7
		c0,0.3,0,0.5-0.1,0.7s-0.2,0.3-0.5,0.4c-0.2,0.1-0.4,0.1-0.7,0.2C329.8,91.3,329.5,91.3,329.3,91.3z"/>
	<path fill="#808080" d="M336,91.3c-2.4,0-3.6-1.3-3.6-4v-4.8c0-0.8,0.4-1.3,1.2-1.3c0.8,0,1.3,0.4,1.3,1.3v4.9
		c0,0.7,0.1,1.2,0.4,1.5s0.7,0.5,1.3,0.5c0.7,0,1.2-0.2,1.6-0.7s0.6-1.1,0.6-1.8v-4.4c0-0.8,0.4-1.3,1.2-1.3c0.8,0,1.3,0.4,1.3,1.3
		V90c0,0.9-0.4,1.3-1.2,1.3c-0.8,0-1.2-0.4-1.2-1.3v-0.3C338.4,90.8,337.4,91.3,336,91.3z"/>
	<path fill="#808080" d="M346,91.3c-0.8,0-1.3-0.4-1.3-1.3v-6.8h-0.9c-0.7,0-1-0.3-1-0.9s0.3-0.9,1-0.9h0.9v0c0-1.4,0.3-2.4,1-3.1
		c0.7-0.7,1.7-1.1,3-1.2l0.7-0.1c0.3,0,0.6,0,0.8,0.2c0.2,0.2,0.2,0.4,0.2,0.6c0,0.2-0.1,0.5-0.2,0.7s-0.3,0.3-0.6,0.3l-0.3,0
		c-0.8,0.1-1.3,0.2-1.7,0.6c-0.3,0.3-0.5,0.8-0.5,1.5v0.4h1.7c0.7,0,1,0.3,1,0.9s-0.3,0.9-1,0.9h-1.7V90
		C347.2,90.9,346.8,91.3,346,91.3z"/>
	<path fill="#808080" d="M352.8,91.3c-0.8,0-1.3-0.4-1.3-1.3v-6.8h-0.9c-0.7,0-1-0.3-1-0.9s0.3-0.9,1-0.9h0.9v0c0-1.4,0.3-2.4,1-3.1
		c0.7-0.7,1.7-1.1,3-1.2l0.7-0.1c0.3,0,0.6,0,0.8,0.2c0.2,0.2,0.2,0.4,0.2,0.6c0,0.2-0.1,0.5-0.2,0.7c-0.1,0.2-0.3,0.3-0.6,0.3
		l-0.3,0c-0.8,0.1-1.3,0.2-1.7,0.6c-0.3,0.3-0.5,0.8-0.5,1.5v0.4h1.7c0.7,0,1,0.3,1,0.9s-0.3,0.9-1,0.9h-1.7V90
		C354.1,90.9,353.6,91.3,352.8,91.3z"/>
	<path fill="#808080" d="M367.4,91.3c-0.7,0-1.2-0.3-1.4-1l-2.9-7.4c-0.2-0.5-0.2-0.9,0-1.2s0.5-0.5,1-0.5c0.3,0,0.5,0.1,0.7,0.2
		c0.2,0.1,0.3,0.4,0.5,0.8l2.2,6l2.3-6.2c0.2-0.6,0.6-0.8,1.1-0.8c0.6,0,0.9,0.3,1.1,0.8l2.3,6.2l2.2-6.1c0.1-0.4,0.3-0.6,0.5-0.7
		c0.2-0.1,0.4-0.2,0.7-0.2c0.5,0,0.8,0.2,0.9,0.5c0.1,0.3,0.1,0.7,0,1.2l-2.9,7.4c-0.3,0.7-0.8,1-1.4,1c-0.7,0-1.2-0.3-1.4-1l-2-5.4
		l-2,5.4C368.6,90.9,368.1,91.3,367.4,91.3z"/>
	<path fill="#808080" d="M384.9,91.3c-1,0-1.9-0.2-2.6-0.6s-1.3-1-1.7-1.8c-0.4-0.8-0.6-1.7-0.6-2.7c0-1,0.2-1.9,0.6-2.7
		c0.4-0.8,1-1.3,1.7-1.8c0.7-0.4,1.6-0.6,2.6-0.6s1.9,0.2,2.6,0.6c0.7,0.4,1.3,1,1.7,1.8c0.4,0.8,0.6,1.7,0.6,2.7
		c0,1-0.2,1.9-0.6,2.7c-0.4,0.8-1,1.4-1.7,1.8C386.8,91.1,385.9,91.3,384.9,91.3z M384.9,89.4c0.7,0,1.3-0.3,1.8-0.8
		c0.5-0.5,0.7-1.3,0.7-2.4c0-1.1-0.2-1.9-0.7-2.4c-0.5-0.5-1.1-0.8-1.8-0.8s-1.3,0.3-1.8,0.8c-0.5,0.5-0.7,1.3-0.7,2.4
		c0,1.1,0.2,1.8,0.7,2.4C383.6,89.2,384.2,89.4,384.9,89.4z"/>
	<path fill="#808080" d="M393.3,91.3c-0.9,0-1.3-0.4-1.3-1.3v-7.6c0-0.8,0.4-1.3,1.2-1.3c0.8,0,1.2,0.4,1.2,1.3v0.6
		c0.5-1.1,1.5-1.8,3.1-1.9c0.6-0.1,0.9,0.3,1,1c0.1,0.7-0.3,1.1-1,1.2l-0.4,0c-1.6,0.2-2.5,1-2.5,2.5V90
		C394.5,90.9,394.1,91.3,393.3,91.3z"/>
	<path fill="#808080" d="M401.1,91.3c-0.8,0-1.2-0.4-1.2-1.3V78.1c0-0.8,0.4-1.3,1.2-1.3c0.8,0,1.3,0.4,1.3,1.3v7.4h0l3.3-3.5
		c0.3-0.3,0.5-0.5,0.7-0.6c0.2-0.1,0.5-0.2,0.8-0.2s0.6,0.1,0.8,0.3c0.2,0.2,0.3,0.4,0.3,0.6c0,0.3-0.1,0.5-0.4,0.8l-3,3.2l3.3,3.6
		c0.2,0.3,0.3,0.5,0.3,0.8c0,0.3-0.1,0.5-0.3,0.6c-0.2,0.2-0.5,0.2-0.8,0.2c-0.4,0-0.7-0.1-0.9-0.2c-0.2-0.1-0.5-0.4-0.7-0.7
		l-3.5-3.6h0V90C402.3,90.9,401.9,91.3,401.1,91.3z"/>
	<path fill="#808080" d="M411.7,91.2c-0.5,0-0.8-0.1-1.1-0.4c-0.3-0.3-0.4-0.6-0.4-1.1c0-0.4,0.1-0.8,0.4-1.1
		c0.3-0.3,0.6-0.4,1.1-0.4c0.5,0,0.8,0.1,1.1,0.4s0.4,0.6,0.4,1.1c0,0.4-0.1,0.8-0.4,1.1C412.6,91.1,412.2,91.2,411.7,91.2z
		 M411.7,87.1c-0.5,0-0.8-0.3-0.8-0.9l-0.6-7.6c0-0.5,0.1-0.9,0.3-1.2c0.3-0.3,0.6-0.5,1.1-0.5c0.5,0,0.8,0.1,1.1,0.5
		c0.2,0.3,0.3,0.7,0.3,1.2l-0.6,7.6C412.5,86.8,412.2,87.1,411.7,87.1z"/>
</g>
</svg>
