<?xml version="1.0" encoding="utf-8"?>
<!-- Generator: Adobe Illustrator 25.0.1, SVG Export Plug-In . SVG Version: 6.00 Build 0)  -->
<svg version="1.1" baseProfile="tiny" id="Layer_1" xmlns="http://www.w3.org/2000/svg" xmlns:xlink="http://www.w3.org/1999/xlink"
	 x="0px" y="0px" width="150px" height="150px" viewBox="0 0 150 150" overflow="visible" xml:space="preserve">
<g id="MicWkH_1_">
	<g>
		<g>
			<path fill="#FF585F" d="M49.8,104c17.1,0,33.3,0,49.8,0c0-12.3,0-24.3,0-36.7c14,0,27.6,0,41.6,0c0,24.5,0,48.9,0,73.7
				c-44.1,0-88.1,0-132.6,0c0-24.4,0-49,0-73.8c13.6,0,27.1,0,41.2,0C49.8,79.3,49.8,91.4,49.8,104z"/>
			<path fill="#FF585F" d="M50.3,8.3c16.6,0,32.8,0,49.1,0c0,12.3,0,24.3,0,36.5c-16.4,0-32.7,0-49.1,0
				C50.3,32.6,50.3,20.6,50.3,8.3z"/>
		</g>
	</g>
</g>
</svg>
