<?xml version="1.0" encoding="utf-8"?>
<!-- Generator: Adobe Illustrator 25.0.1, SVG Export Plug-In . SVG Version: 6.00 Build 0)  -->
<svg version="1.1" id="Layer_1" xmlns="http://www.w3.org/2000/svg" xmlns:xlink="http://www.w3.org/1999/xlink" x="0px" y="0px"
	 width="150px" height="150px" viewBox="0 0 150 150" style="enable-background:new 0 0 150 150;" xml:space="preserve">
<style type="text/css">
	.st0{fill:#FF585F;}
</style>
<g id="bPQqFh_1_">
	<g>
		<g>
			<path class="st0" d="M46.5,108.1c-8.2-0.4-15.1-3.5-20.8-9.5c-3-3.1-5.1-6.8-6.5-11.1c1.2,0.1,2.2,0.3,3.3,0.4
				c1.1,0.1,2.1,0.1,3.2,0.1c1.1,0,2.2-0.2,3.2-0.3c1.1-0.1,2.1-0.4,3.1-0.6c0,0,0-0.1,0-0.1c-0.5-0.1-1-0.3-1.5-0.4
				C30,86.4,29.5,86.2,29,86c-0.5-0.2-1-0.4-1.6-0.6c-0.5-0.2-1.1-0.4-1.6-0.7c-0.5-0.2-1-0.5-1.5-0.7c-0.5-0.3-1-0.6-1.5-0.9
				c-0.5-0.3-0.9-0.6-1.4-0.9c-0.5-0.3-0.9-0.7-1.4-1c-0.4-0.3-0.9-0.7-1.3-1.1c-0.4-0.4-0.8-0.8-1.2-1.2c-0.4-0.4-0.8-0.8-1.2-1.2
				c-0.4-0.4-0.7-0.9-1.1-1.3c-0.3-0.4-0.7-0.9-1-1.3c-0.3-0.5-0.6-0.9-0.9-1.4c-0.3-0.5-0.6-1-0.9-1.5c-0.3-0.5-0.5-1-0.8-1.5
				c-0.2-0.5-0.5-1-0.7-1.6c-0.2-0.5-0.4-1-0.6-1.6c-0.2-0.5-0.4-1.1-0.5-1.6c-0.2-0.5-0.3-1.1-0.4-1.6c-0.1-0.6-0.2-1.1-0.3-1.7
				c-0.1-0.5-0.1-1.1-0.2-1.6C9,60.6,8.9,60,8.9,59.4c0-0.5-0.1-1.1,0-1.7c4.1,2.2,8.4,3.4,13.1,3.6c-0.2-0.2-0.2-0.3-0.3-0.3
				c-3.6-2.6-6.5-5.7-8.7-9.5c-1.7-3-2.9-6.3-3.5-9.7c-0.3-1.7-0.5-3.4-0.4-5.2c0.1-4.2,0.9-8.2,2.7-12c0.3-0.7,0.7-1.3,1-2
				c0.1-0.2,0.2-0.3,0.3-0.5C26.3,37.8,42.9,47.7,63,51.6c3.6,0.7,9.9,1.4,10.7,1.1c0-0.2-0.1-0.4-0.1-0.6c-0.3-1.6-0.5-3.2-0.6-4.8
				c-0.2-4.3,0.6-8.5,2.2-12.5c1.2-3,2.9-5.6,5-8c3-3.5,6.7-6.1,11-7.9c2.4-1,5-1.7,7.6-2c1.7-0.2,3.5-0.3,5.2-0.2
				c3.5,0.2,6.8,1,10,2.3c2.9,1.2,5.5,2.9,7.9,5c0.6,0.5,1.2,1.1,1.7,1.6c0.3,0.3,0.5,0.4,0.9,0.3c1.7-0.5,3.5-0.8,5.2-1.3
				c4.3-1.3,8.4-3.1,12.4-5.3c0.1-0.1,0.3-0.1,0.4-0.2c0,0,0.1,0,0.1,0c0,0.8-1.4,4.1-2.8,6.3c-1.2,2-2.6,3.7-4.2,5.4
				c-1.6,1.6-3.4,3.1-5.3,4.4c5.7-0.6,11.1-2.1,16.3-4.3c-0.1,0.1-0.1,0.3-0.2,0.4c-1.7,2.5-3.6,4.9-5.7,7.1
				c-2.5,2.7-5.2,5.1-8.2,7.3c-0.4,0.3-0.5,0.6-0.5,1c0,1.8,0,3.7,0,5.5c0,2-0.2,4-0.4,6c-0.3,3-0.8,6.1-1.5,9.1
				c-0.9,4.1-2.1,8.1-3.5,12c-1.3,3.4-2.8,6.8-4.5,10.1c-2,3.8-4.3,7.5-6.8,11c-2,2.7-4.1,5.3-6.4,7.7c-3.9,4.2-8.3,8-13,11.3
				c-3.5,2.5-7.3,4.6-11.2,6.5c-2.5,1.2-5.1,2.2-7.7,3.1c-3.9,1.4-7.9,2.4-12,3.2c-2.5,0.5-5.1,0.9-7.6,1.1
				c-1.5,0.1-3.1,0.3-4.6,0.3c-2.7,0.1-5.4,0.1-8.1,0.1c-2-0.1-4.1-0.3-6.1-0.5c-3.5-0.3-6.9-1-10.3-1.8c-2.8-0.7-5.5-1.5-8.2-2.4
				c-3.5-1.2-6.9-2.7-10.1-4.4c-2.2-1.1-4.3-2.4-6.4-3.6c-0.2-0.1-0.3-0.2-0.4-0.4c11.8,1.2,23-0.7,33.6-6
				C40.3,112.5,43.5,110.5,46.5,108.1z"/>
		</g>
	</g>
</g>
</svg>
