<?xml version="1.0" encoding="utf-8"?>
<!-- Generator: Adobe Illustrator 25.0.1, SVG Export Plug-In . SVG Version: 6.00 Build 0)  -->
<svg version="1.1" id="Layer_1" xmlns="http://www.w3.org/2000/svg" xmlns:xlink="http://www.w3.org/1999/xlink" x="0px" y="0px"
	 width="150px" height="150px" viewBox="0 0 150 150" style="enable-background:new 0 0 150 150;" xml:space="preserve">
<style type="text/css">
	.st0{fill:#FF585F;}
</style>
<g id="dI9xYm_1_">
	<g>
		<g>
			<path class="st0" d="M83.2,51.6c0,4.6,0,8.6,0,12.8c0.9-0.3,1.4-0.4,1.6-0.6c9.6-13,23-15.1,37.5-11.9
				c14,3.1,21.7,13.1,24.5,26.8c1,4.8,1.1,9.9,1.2,14.9c0.1,14.4-0.1,28.8,0.1,43.3c0,3.9-1.1,5.3-5.1,5.2c-7.1-0.3-14.3-0.2-21.4,0
				c-3.7,0.1-5-1-4.9-4.8c0.2-14.6,0.2-29.1,0-43.7c0-2.9-0.6-6-1.5-8.8C112.4,76.4,106.3,73,97,74c-6.8,0.8-13.3,7.1-13.6,14.4
				c-0.5,15.8-0.4,31.7-0.5,47.5c0,6,0,6-6,6c-6.9,0-13.7-0.1-20.6,0c-3.2,0.1-4.2-1.2-4.2-4.3c0.1-27.4,0.1-54.8,0.1-82.2
				c0-1.9,0-3.9,2.8-3.9C64.2,51.6,73.3,51.6,83.2,51.6z"/>
			<path class="st0" d="M6.1,96.1c0-13.3,0.1-26.5-0.1-39.8c-0.1-3.8,1.2-5,4.9-4.9c6.1,0.3,12.3,0.2,18.4,0c2.8-0.1,3.8,1,3.8,3.8
				c0,27.5,0,55.1,0,82.6c0,2.9-1.1,4.1-4,4.1c-6.1-0.1-12.3-0.2-18.4,0c-3.5,0.1-4.8-1.2-4.7-4.7C6.2,123.5,6.1,109.8,6.1,96.1z"/>
			<path class="st0" d="M35.5,23.4c0,9.2-6.7,15.4-16.7,15.4C9.2,38.8,1.9,32,2,23.3C2.2,14.5,9.7,7.8,19.2,8
				C29,8.2,35.5,14.3,35.5,23.4z"/>
		</g>
	</g>
</g>
</svg>
