<?xml version="1.0" encoding="utf-8"?>
<!-- Generator: Adobe Illustrator 25.0.1, SVG Export Plug-In . SVG Version: 6.00 Build 0)  -->
<svg version="1.1" baseProfile="tiny" id="Layer_1" xmlns="http://www.w3.org/2000/svg" xmlns:xlink="http://www.w3.org/1999/xlink"
	 x="0px" y="0px" width="150px" height="150px" viewBox="0 0 150 150" overflow="visible" xml:space="preserve">
<g id="FHUGFt_1_">
	<g>
		<g>
			<path fill="#FF585F" d="M73,3c1.6,0,3.2,0,4.8,0c0.2,0,0.4,0.1,0.6,0.1c2.3,0,4.6,0.3,6.9,0.6c4.6,0.6,9.2,1.7,13.6,3.2
				c8.6,3,16.4,7.5,23.3,13.5c6.1,5.3,11.2,11.4,15.2,18.4c5.9,10.2,9.1,21.2,9.4,33c0,0.3,0.1,0.5,0.1,0.8c0,1.5,0,3.1,0,4.6
				c0,0.2-0.1,0.5-0.1,0.7c0,0.9-0.1,1.8-0.1,2.7c-0.2,3.1-0.7,6.2-1.3,9.3c-1.6,7.4-4.3,14.3-8.1,20.8c-5.7,9.8-13.3,17.8-22.8,24
				c-5.4,3.5-11.2,6.3-17.4,8.3c-5.9,1.9-11.9,2.9-18.1,3.2c-4.3,0.2-8.5,0-12.8-0.5c-3.6-0.4-7.2-1.1-10.7-2.2
				c-12.5-3.7-23.2-10.2-32.2-19.6c-6.8-7.2-12-15.5-15.4-24.9c-2.8-7.6-4-15.4-4.2-23.5c-0.1-3.6,0.2-7.1,0.7-10.7
				c0.5-3.8,1.3-7.5,2.4-11.1c3.9-12.5,10.7-23.3,20.4-32.1c5.5-5,11.7-9.1,18.5-12.2c8.4-3.9,17.3-5.9,26.6-6.2
				C72.7,3.1,72.9,3,73,3z M85.4,82.9c-0.1,0-0.2,0-0.2,0c-0.1,0-0.2,0-0.3,0.1c-2.2,0.5-4.3,1.2-6.3,2c-4.7,1.8-9.1,4.3-13.2,7.3
				c-6.3,4.5-11.8,9.7-16.9,15.5c-3.3,3.8-6.1,7.8-8.5,12.2c-0.3,0.6-0.6,1.2-0.9,1.8c8.9,7,19,11.2,30.2,12.3
				c9.4,0.9,18.5-0.3,27.3-3.7C94.6,114,90.9,98.2,85.4,82.9z M77.5,64c-0.2,0-0.3,0.1-0.4,0.1c-5.8,1.8-11.6,3.3-17.6,4.5
				c-3.6,0.7-7.2,1.3-10.8,1.7c-3.1,0.4-6.3,0.7-9.4,1c-3.9,0.4-7.8,0.5-11.7,0.5c-3.7,0-7.4-0.1-11.2-0.1c-0.2,0-0.3,0-0.5,0
				c-0.6,7,0.6,16.8,4.1,25.1c2.6,6.3,6.2,11.9,10.7,17c0.1-0.2,0.2-0.3,0.2-0.4c2.4-4.7,5.4-9,8.9-13c3.7-4.3,7.8-8.2,12.2-11.9
				c5.2-4.3,10.7-8.1,16.7-11.1c3.9-1.9,8-3.5,12.3-4.5c0.2,0,0.3-0.1,0.5-0.1C80.3,69.9,79,67,77.5,64z M48.4,21.5
				c-9.2,4.7-16.6,11.4-22.3,19.8c-3.9,5.7-6.7,11.8-8.5,18.5c6.2,0.4,12.4,0.3,18.5,0c6.1-0.3,12.2-1,18.2-2c6-1,12-2.4,17.9-4.2
				C65.7,41.9,58,31,48.4,21.5z M107.7,124.6c8.6-5.6,15.3-12.8,20.2-21.7c3.7-6.8,6-14,6.9-21.8c-12.3-0.9-24.6-1-36.9,0
				C102.7,95.3,105.9,109.8,107.7,124.6z M113.6,28.7c-8.4-6.9-17.7-11.4-28.4-13c-8.2-1.3-16.2-1-24.3,1.3
				c9.4,9.7,16.8,20.7,23.3,32.5c0.2-0.1,0.3-0.1,0.4-0.2c4-1.7,8-3.7,11.7-5.9c5.3-3.2,10.2-6.9,14.4-11.4
				C111.7,30.8,112.6,29.8,113.6,28.7z M120.8,35.9c-0.1,0.2-0.2,0.3-0.3,0.5c-1.8,2.6-3.9,5-6.2,7.3c-4.2,4-8.9,7.4-13.8,10.3
				c-3.4,2-6.9,3.7-10.4,5.3c-0.2,0.1-0.4,0.2-0.6,0.3c1.6,3.9,3.2,7.7,4.9,11.6c13.5-1.3,27-1.2,40.6-0.6
				C134.1,57.4,129.3,46,120.8,35.9z"/>
		</g>
	</g>
</g>
</svg>
