<?xml version="1.0" encoding="utf-8"?>
<!-- Generator: Adobe Illustrator 25.0.1, SVG Export Plug-In . SVG Version: 6.00 Build 0)  -->
<svg version="1.1" baseProfile="tiny" id="Layer_1" xmlns="http://www.w3.org/2000/svg" xmlns:xlink="http://www.w3.org/1999/xlink"
	 x="0px" y="0px" width="150px" height="150px" viewBox="0 0 150 150" overflow="visible" xml:space="preserve">
<g id="_x32_FdhUf_1_">
	<g>
		<g>
			<path fill="#FF585F" d="M74.6,1.9c40.5,0,73.4,32.8,73.4,73.2c0.1,40.5-32.9,73.7-73.9,73.4c-40.1-0.2-73-32.7-73-73.5
				C1.2,34.7,34.1,1.9,74.6,1.9z M115.9,72.4c-0.3-1-0.5-1.9-0.7-2.8c-1.7-6.1-5.1-11.1-10-15c-4.4-3.5-9.3-5.6-14.9-6.2
				c-3.8-0.4-7.6-0.2-11.1,1.5c-1.8,0.8-1.6,0.5-1.6,2.5c0.1,16.1,0.3,32.1,0.4,48.2c0,1.5,0,1.5,1.4,1.5c13,0,26,0,39,0
				c0.7,0,1.3,0,2,0.1c2.5,0.2,5-0.1,7.3-1.1c9.2-4,12.4-15.1,6.6-23.2c-2.8-3.9-6.6-6-11.4-6.3C120.5,71.2,118.2,71.5,115.9,72.4z
				 M76.4,68.4c-0.1-3.2-0.2-8.6-0.4-13.9c0-0.6-0.2-1.3-0.5-1.9c-0.2-0.4-0.8-0.8-1.3-0.8c-0.4,0-1,0.5-1.1,0.9
				c-0.3,0.7-0.4,1.5-0.4,2.2c-0.3,9-0.4,17.9-0.8,26.9c-0.3,6.3,0.3,12.6,0.7,18.8c0,0.9,0.6,1.5,1.3,1.7c0.8,0.1,1.5-0.3,1.9-1.2
				c0.2-0.5,0.2-1,0.3-1.5c0.2-2.6,0.3-5.2,0.5-7.8c0.1-2.2,0.4-4.5,0.3-6.7C76.8,80.2,76.6,75.4,76.4,68.4z M71.1,73
				C71.1,73,71.1,73,71.1,73c-0.1-5.4-0.3-10.7-0.5-16.1c0-0.4-0.1-0.9-0.3-1.3c-0.3-0.6-0.7-1-1.5-1c-0.7,0-1.1,0.5-1.3,1.1
				c-0.2,0.8-0.3,1.7-0.3,2.5c-0.1,4.9-0.3,9.8-0.4,14.7c-0.1,4.4-0.4,8.7-0.3,13.1c0.1,4.8,0.5,9.6,0.8,14.4c0,0.2,0,0.4,0.1,0.5
				c0.3,0.4,0.7,1,1.1,1.2c0.4,0.1,1-0.2,1.3-0.5c0.3-0.3,0.5-0.8,0.6-1.3c0.1-0.6,0.1-1.2,0.1-1.9c0.2-4.6,0.6-9.2,0.7-13.8
				C71.5,80.7,71.2,76.9,71.1,73z M65.7,75.1C65.7,75.1,65.7,75.1,65.7,75.1c-0.2-4.3-0.4-8.6-0.5-12.9c0-0.5,0-1-0.2-1.4
				c-0.2-0.4-0.7-1-1.1-1c-0.4,0-1.1,0.5-1.3,0.9c-0.3,0.5-0.3,1.3-0.4,1.9c-0.2,6-0.1,12-0.4,17.9c-0.3,6.7,0.2,13.4,0.7,20
				c0,0.4,0.2,0.8,0.3,1.1c0.5,0.8,1.3,0.9,1.8,0.1c0.3-0.5,0.5-1.2,0.6-1.8c0.2-2,0.4-4,0.6-6c0.2-1.9,0.5-3.9,0.5-5.8
				C66.1,83.8,65.9,79.4,65.7,75.1z M51.4,75.9C51.5,75.9,51.5,75.9,51.4,75.9c0,0.7,0,1.5-0.1,2.2c-0.3,7.3,0,14.5,0.5,21.8
				c0,0.6,0.2,1.2,0.5,1.8c0.3,0.7,1.1,0.7,1.5,0.1c0.3-0.5,0.5-1.1,0.6-1.7c0.2-2.1,0.4-4.1,0.6-6.2c0.2-2.2,0.5-4.5,0.5-6.7
				c-0.2-8.4-0.6-16.8-1-25.2c0-0.9-0.1-1.8-0.3-2.6c-0.1-0.4-0.6-0.9-0.9-0.9c-0.4,0-0.9,0.3-1.1,0.7c-0.3,0.5-0.4,1.1-0.4,1.6
				C51.7,65.8,51.6,70.8,51.4,75.9z M56.8,75C56.7,75,56.7,75,56.8,75c0,0.8,0,1.7-0.1,2.5c-0.4,7.5-0.1,15,0.5,22.5
				c0,0.5,0.1,1.1,0.4,1.6c0.3,0.7,1.1,0.8,1.6,0.2c0.3-0.4,0.5-1,0.5-1.5c0.2-1.5,0.3-3,0.4-4.6c0.3-3.8,0.8-7.6,0.6-11.4
				c-0.4-7.3-0.6-14.6-0.9-21.9c0-0.9-0.1-1.9-0.3-2.8c-0.1-0.3-0.6-0.7-0.9-0.8c-0.3,0-0.9,0.3-1.1,0.6c-0.3,0.6-0.5,1.3-0.5,1.9
				C56.9,65.9,56.9,70.5,56.8,75z M50,75C50,75,50,75,50,75c-0.2-3.2-0.3-6.4-0.4-9.6c-0.1-1.6-0.1-3.2-0.3-4.7c0-0.6-0.3-1.2-1-1.3
				c-0.8-0.1-1.2,0.4-1.3,1.1c-0.2,0.6-0.2,1.2-0.3,1.9c-0.1,3.3-0.2,6.7-0.3,10c-0.1,4.5-0.4,9-0.3,13.5c0,4.1,0.4,8.2,0.6,12.4
				c0,0.9,0.1,1.7,0.2,2.6c0.1,0.9,0.6,1.5,1.2,1.5c0.8-0.1,1-0.8,1.2-1.5c0-0.1,0-0.2,0-0.2c0.3-4.2,0.7-8.4,0.8-12.6
				C50.3,83.6,50.1,79.3,50,75z M41.3,75.9c-0.1,2.2-0.1,4.4-0.3,6.6c-0.3,6.1,0.5,12.2,0.8,18.3c0,0.2,0.1,0.5,0.2,0.6
				c0.3,0.3,0.6,0.7,0.9,0.7c0.3,0,0.8-0.4,0.9-0.7c0.2-0.5,0.3-1.2,0.3-1.8c0.2-2.8,0.5-5.6,0.6-8.3c0.1-2.6,0.2-5.2,0.2-7.8
				c0-0.9-0.1-1.8-0.1-2.7c-0.2-5.6-0.4-11.2-0.7-16.8c0-0.6-0.2-1.2-0.4-1.7c-0.4-0.7-1.1-0.7-1.5,0c-0.2,0.4-0.3,0.8-0.4,1.2
				C41.6,67.6,41.5,71.7,41.3,75.9z M36.3,80c-0.1,0-0.1,0-0.2,0c0.1,4.6,0.1,9.1,0.3,13.7c0.1,2.3,0.3,4.7,0.5,7
				c0,0.2,0.1,0.4,0.1,0.6c0.2,0.5,0.5,1,1.1,0.8c0.4-0.1,0.9-0.7,0.9-1.1c0.2-1.4,0.3-2.8,0.4-4.2c0.2-3.2,0.7-6.4,0.6-9.6
				c0-4.3-0.4-8.6-0.6-12.8c-0.1-2.3-0.3-4.6-0.4-7c0-0.6-0.4-1.2-1-1.2c-0.7,0-0.9,0.6-1.1,1.1c0,0.2,0,0.3-0.1,0.5
				C36.7,71.9,36.5,75.9,36.3,80z M26.2,87.6c0.4,4.5,0.8,8.8,1.2,13.1c0,0.2,0.1,0.5,0.2,0.7c0.2,0.2,0.4,0.4,0.6,0.4
				c0.2,0,0.5-0.3,0.6-0.5c0.1-0.2,0.2-0.5,0.2-0.7c0.3-3.2,0.6-6.3,0.8-9.5c0.1-1.5,0.3-3,0.2-4.5c-0.3-3.9-0.7-7.7-1-11.6
				c-0.1-0.6,0-1.5-0.8-1.5c-0.8,0-0.7,0.9-0.8,1.5c-0.2,1.7-0.3,3.3-0.5,5C26.7,82.6,26.4,85.2,26.2,87.6z M31.1,88.1
				c0.1,1.4,0.2,2.6,0.3,3.8c0.3,3,0.5,5.9,0.9,8.9c0,0.4,0.5,0.7,0.8,1.1c0.3-0.4,0.7-0.7,0.7-1.1c0.3-3.1,0.6-6.1,0.8-9.2
				c0.1-1.5,0.3-2.9,0.2-4.4c-0.3-3.7-0.7-7.3-1-11c0-0.4-0.1-0.8-0.2-1.1c-0.1-0.2-0.3-0.4-0.5-0.4c-0.2,0-0.5,0.2-0.5,0.4
				c-0.2,0.4-0.3,0.8-0.3,1.3c-0.2,1.5-0.3,3.1-0.5,4.6C31.6,83.4,31.3,85.8,31.1,88.1z M24.8,87.9c0-0.1,0-0.3,0-0.5
				c-0.3-4.1-0.7-8.2-1-12.3c0-0.4-0.4-0.7-0.6-1.1c-0.2,0.3-0.7,0.7-0.7,1c-0.3,2.8-0.6,5.5-0.8,8.3c-0.1,1.5-0.4,3-0.3,4.5
				c0.2,3.3,0.5,6.6,0.7,9.9c0.1,1,0.1,1.9,0.3,2.9c0.1,0.5,0.2,1,0.8,0.9c0.3-0.1,0.6-0.6,0.6-1C24.1,96.3,24.5,92.2,24.8,87.9z
				 M19.9,88.2c0-0.3,0-0.4,0-0.6c-0.3-3.5-0.7-6.9-1-10.3c0-0.2-0.1-0.4-0.2-0.5c-0.1-0.2-0.3-0.4-0.5-0.4c-0.2,0-0.5,0.2-0.5,0.4
				c-0.2,0.5-0.3,0.9-0.3,1.4c-0.2,1.7-0.4,3.3-0.5,5c-0.2,1.9-0.4,3.8-0.4,5.6c0.1,2.3,0.4,4.7,0.6,7c0.1,1,0.1,1.9,0.3,2.8
				c0.1,0.3,0.5,0.6,0.7,0.8c0.2-0.3,0.6-0.6,0.6-0.9C19.2,95.1,19.6,91.6,19.9,88.2z M15,87.8c-0.3-2.2-0.6-4.5-0.9-6.8
				c0-0.2-0.4-0.4-0.6-0.6C13.3,80.6,13,80.7,13,81c-0.2,0.8-0.2,1.6-0.4,2.3c-1,3.8-0.3,7.5,0.2,11.3c0,0.3,0.4,0.5,0.7,0.8
				c0.2-0.3,0.6-0.5,0.6-0.8C14.5,92.4,14.7,90.1,15,87.8z"/>
		</g>
	</g>
</g>
</svg>
