<?xml version="1.0" encoding="utf-8"?>
<!-- Generator: Adobe Illustrator 25.0.1, SVG Export Plug-In . SVG Version: 6.00 Build 0)  -->
<svg version="1.1" baseProfile="tiny" id="Layer_1" xmlns="http://www.w3.org/2000/svg" xmlns:xlink="http://www.w3.org/1999/xlink"
	 x="0px" y="0px" width="150px" height="150px" viewBox="0 0 150 150" overflow="visible" xml:space="preserve">
<g id="BCFNXv_1_">
	<g>
		<g>
			<path fill="#FF585F" d="M88.8,108.9c3.5-0.7,6.8-1.3,10-2.1c14.1-3.9,22-13.6,23.1-28.2c0.3-4.4,0.5-8.7-0.6-13.1
				c-1-4.2-2.9-8-5.7-11.3c-0.7-0.8-0.9-1.5-0.6-2.6c1.7-5.7,1.2-11.4-0.9-17c-0.2-0.5-1.2-1.1-1.8-1.1c-3.5-0.1-6.8,1.1-9.9,2.6
				c-2.7,1.3-5.2,2.9-7.8,4.3c-0.6,0.3-1.5,0.5-2.2,0.4c-11.5-2.8-23-2.8-34.5,0c-0.7,0.2-1.7,0-2.4-0.4c-4.8-3-9.8-5.7-15.5-6.7
				c-3.4-0.6-3.8-0.4-4.7,2.9c-1.5,5.2-1.7,10.3-0.1,15.5c0.2,0.5-0.1,1.4-0.4,1.8c-5.5,6.5-7.3,14-6.7,22.4
				c0.4,5.1,1.2,10.1,3.4,14.8c4.1,8.9,11.4,13.7,20.5,16c2.5,0.7,5.2,1,7.7,1.5c0.5,0.1,1,0.2,1.7,0.4c-2.5,2.7-3.7,5.7-4.4,9
				c-0.1,0.4-0.7,0.9-1.1,1.1c-8.2,3.5-15.5,1.2-20.3-6.4c-2.4-3.7-5.5-6.5-10-7.4c-1-0.2-2.1-0.2-3.1,0c-0.6,0.1-1.4,0.6-1.5,0.9
				c-0.1,0.6,0.4,1.3,0.8,1.8c0.4,0.5,0.9,0.9,1.5,1.2c4,2.3,6.5,5.9,8.2,10c2.8,6.8,8.1,9.9,15.1,10.4c3.3,0.2,6.6-0.2,10.1-0.3
				c0,0.3,0.1,1,0.1,1.6c0,3.6,0,7.1,0.1,10.7c0,3.9-2.1,5.5-5.8,4.2c-15.4-5.4-28-14.7-37.1-28.3C-15.7,73.2,9.3,14.6,61,4.6
				c39.2-7.6,76.7,16.6,86,55.1c8.7,36.2-12.5,74.3-47.8,85.9c-3.6,1.2-5.7-0.3-5.7-4.1c0-5.8,0-11.7,0.1-17.5
				C93.6,118.4,92.9,113.2,88.8,108.9z"/>
			<path fill="#FF585F" d="M49.1,121.3c0.6,0.6,1.1,1,1.5,1.4c-0.6,0.4-1.1,1-1.7,1.1c-0.4,0.1-0.9-0.6-1.3-1
				C48,122.3,48.5,121.9,49.1,121.3z"/>
			<path fill="#FF585F" d="M37.6,116.9c0.7,1,1.3,1.6,1.6,2.3c0,0.1-0.8,0.9-0.9,0.8c-0.6-0.4-1.2-0.9-1.6-1.5
				C36.6,118.3,37.1,117.8,37.6,116.9z"/>
			<path fill="#FF585F" d="M43.3,123.3c-0.7-0.7-1.2-1.1-1.7-1.6c0.4-0.3,0.9-1,1.1-0.9c0.7,0.2,1.2,0.8,1.8,1.2
				C44.3,122.4,43.9,122.7,43.3,123.3z"/>
			<path fill="#FF585F" d="M54.9,120.6c0.6,0.5,1,0.9,1.4,1.2c-0.6,0.4-1.2,1-1.8,1.2c-0.3,0.1-0.8-0.6-1.2-0.9
				C53.7,121.7,54.2,121.2,54.9,120.6z"/>
			<path fill="#FF585F" d="M35.9,114.9c-0.6,0.4-1.1,0.9-1.2,0.9c-0.5-0.4-1-0.9-1.4-1.5c-0.1-0.1,0.7-0.9,0.8-0.9
				C34.6,113.8,35.1,114.3,35.9,114.9z"/>
			<path fill="#FF585F" d="M32.9,111c-0.7,0.4-1.1,0.7-1.3,0.6c-0.5-0.3-0.9-0.8-1.2-1.3c0-0.1,0.6-0.8,0.6-0.7
				C31.6,110,32.1,110.4,32.9,111z"/>
		</g>
	</g>
</g>
</svg>
