<?xml version="1.0" encoding="utf-8"?>
<!-- Generator: Adobe Illustrator 25.0.1, SVG Export Plug-In . SVG Version: 6.00 Build 0)  -->
<svg version="1.1" baseProfile="tiny" id="Layer_1" xmlns="http://www.w3.org/2000/svg" xmlns:xlink="http://www.w3.org/1999/xlink"
	 x="0px" y="0px" width="150px" height="150px" viewBox="0 0 150 150" overflow="visible" xml:space="preserve">
<g id="sP2MoE_1_">
	<g>
		<g>
			<path fill="#FF585F" d="M86,76.1c0.2,20.5-16.1,41.1-41.3,41c-25-0.1-41.1-20.7-41-41.3C3.8,55.1,20,34.6,45,34.7
				C70,34.8,86.4,55.4,86,76.1z"/>
			<path fill="#FF585F" d="M131.4,76c-0.3,9.3-1.7,18.4-6,26.8c-1.4,2.7-3.2,5.4-5.3,7.5c-6.9,6.9-14.6,6.3-20.9-0.8
				c-4-4.4-6.3-9.8-7.9-15.4c-3.7-13.9-3.4-27.6,1.6-41.2c1.9-5.1,4.6-9.8,9-13.2c5.1-4,10.5-4.1,15.8-0.3c4.5,3.2,7.1,7.7,9.1,12.7
				c2.5,6.2,4,12.6,4.1,19.2C131.1,72.9,131.3,74.4,131.4,76z"/>
			<path fill="#FF585F" d="M148.8,76c0.1,9.1-0.5,18-2.7,26.7c-0.6,2.2-1.3,4.5-2.4,6.4c-1.6,2.8-3.7,2.8-5.1-0.1
				c-1.3-2.6-2.4-5.5-3-8.3c-2.3-11.9-3-24-1.7-36.1c0.5-5.1,1.3-10.2,2.2-15.3c0.4-2.1,1.3-4.2,2.3-6.1c1.6-3.1,4-3.1,5.6,0.1
				c1,1.9,1.7,4.1,2.2,6.2C148.4,58.1,149,67.1,148.8,76z"/>
		</g>
	</g>
</g>
</svg>
