<?xml version="1.0" encoding="utf-8"?>
<!-- Generator: Adobe Illustrator 25.0.1, SVG Export Plug-In . SVG Version: 6.00 Build 0)  -->
<svg version="1.1" baseProfile="tiny" id="Layer_1" xmlns="http://www.w3.org/2000/svg" xmlns:xlink="http://www.w3.org/1999/xlink"
	 x="0px" y="0px" width="150px" height="200px" viewBox="0 0 150 200" overflow="visible" xml:space="preserve">
<path fill="#333333" d="M88.1,178.9c-0.3-0.9-1.1-1.6-2-1.7l-5.5-0.8l-2.4-5c-0.4-0.9-1.3-1.4-2.2-1.4c-1,0-1.8,0.5-2.2,1.4l-2.4,5
	l-5.5,0.8c-0.9,0.1-1.7,0.8-2,1.7c-0.3,0.9,0,1.9,0.6,2.6l4,3.9l-0.9,5.5c-0.2,0.9,0.2,1.9,1,2.5c0.8,0.6,1.8,0.6,2.6,0.2l4.9-2.6
	l4.9,2.6c0.4,0.2,0.8,0.3,1.2,0.3c0.5,0,1-0.2,1.5-0.5c0.8-0.6,1.2-1.5,1-2.5l-0.9-5.5l4-3.9C88.2,180.8,88.4,179.8,88.1,178.9z"/>
<path fill="#333333" d="M58.1,178.9c-0.3-0.9-1.1-1.6-2-1.7l-5.5-0.8l-2.4-5c-0.4-0.9-1.3-1.4-2.2-1.4c-1,0-1.8,0.5-2.2,1.4l-2.4,5
	l-5.5,0.8c-0.9,0.1-1.7,0.8-2,1.7c-0.3,0.9,0,1.9,0.6,2.6l4,3.9l-0.9,5.5c-0.2,0.9,0.2,1.9,1,2.5c0.8,0.6,1.8,0.6,2.6,0.2l4.9-2.6
	l4.9,2.6c0.4,0.2,0.8,0.3,1.2,0.3c0.5,0,1-0.2,1.5-0.5c0.8-0.6,1.2-1.5,1-2.5l-0.9-5.5l4-3.9C58.1,180.8,58.4,179.8,58.1,178.9z"/>
<path fill="#333333" d="M118.2,178.9c-0.3-0.9-1.1-1.6-2-1.7l-5.5-0.8l-2.4-5c-0.4-0.9-1.3-1.4-2.2-1.4s-1.8,0.5-2.2,1.4l-2.4,5
	l-5.5,0.8c-0.9,0.1-1.7,0.8-2,1.7c-0.3,0.9,0,1.9,0.6,2.6l4,3.9l-0.9,5.5c-0.2,0.9,0.2,1.9,1,2.5c0.8,0.6,1.8,0.6,2.6,0.2l4.9-2.6
	l4.9,2.6c0.4,0.2,0.8,0.3,1.2,0.3c0.5,0,1-0.2,1.5-0.5c0.8-0.6,1.2-1.5,1-2.5l-0.9-5.5l4-3.9C118.2,180.8,118.5,179.8,118.2,178.9z"
	/>
<text transform="matrix(1 0 0 1 32.59 155.0423)" fill="#808080" font-family="'Nunito-Bold'" font-size="20px">P</text>
<text transform="matrix(1 0 0 1 45.5699 155.0423)" fill="#808080" font-family="'Nunito-Bold'" font-size="20px">Y</text>
<text transform="matrix(1 0 0 1 58.2897 155.0423)" fill="#808080" font-family="'Nunito-Bold'" font-size="20px">T</text>
<text transform="matrix(1 0 0 1 70.7096 155.0423)" fill="#808080" font-family="'Nunito-Bold'" font-size="20px">H</text>
<text transform="matrix(1 0 0 1 86.1696 155.0423)" fill="#808080" font-family="'Nunito-Bold'" font-size="20px">O</text>
<text transform="matrix(1 0 0 1 101.8693 155.0423)" fill="#808080" font-family="'Nunito-Bold'" font-size="20px">N</text>
<g id="RIrAzR_1_">
	<g>
		<g>
			<path fill="#CCCCCC" d="M79.2,14.9c1,0.1,2.1,0.2,3.1,0.3c4.5,0.4,9,1.2,13,3.5c1.3,0.7,2.6,1.7,3.7,2.8c2.2,2.1,3,4.8,3,7.9
				c-0.1,7.4,0,14.8,0,22.2c0,1.5-0.1,3.1-0.4,4.6c-1.1,5-4.4,8-9.3,9.4c-1.7,0.5-3.4,0.7-5.2,0.7c-8.3,0.1-16.6,0-24.9,0
				c-2.5,0-5,0.4-7.3,1.5c-4,1.9-6.2,5.3-7.1,9.5c-0.3,1.3-0.4,2.7-0.5,4.1c-0.1,3.9,0,7.8,0,11.6c0,1,0,1-0.9,1c-2.5,0-4.9,0-7.4,0
				c-4.1,0.1-7.3-1.6-10-4.6c-2.6-3-3.9-6.5-4.7-10.3c-1.1-4.9-1.3-9.8-1-14.7c0.2-3.9,0.8-7.6,2.2-11.2c1.5-3.8,3.8-6.9,7.4-8.9
				c2.1-1.2,4.5-1.8,6.9-1.8c11.9,0,23.7,0,35.6,0c1,0,1,0,1-1.1c0-0.6,0-1.1,0-1.7c0.1-0.7-0.2-0.9-0.9-0.9c-2.1,0-4.2,0-6.3,0
				c-5.9,0-11.8,0-17.7,0c-0.9,0-0.9,0-0.9-0.9c0-3.9,0-7.7,0-11.6c0-2.3,1.1-4.1,2.7-5.7c2.1-2,4.7-3.1,7.4-3.9
				c3.5-1,7-1.5,10.6-1.7c0.3,0,0.7-0.1,1-0.1C74.6,14.9,76.9,14.9,79.2,14.9z M61.7,32.3c2.6,0,4.6-2,4.6-4.6c0-2.6-2-4.6-4.6-4.6
				c-2.5,0-4.7,2.1-4.6,4.7C57.1,30.3,59.1,32.3,61.7,32.3z"/>
			<path fill="#CCCCCC" d="M129,75.1c-0.3,1.3-0.5,2.7-0.9,4c-0.9,3.4-2.2,6.7-4.7,9.3c-2.9,3.1-6.4,4.8-10.7,4.8
				c-11.8,0-23.6,0-35.4,0c-1.4,0-1.3-0.1-1.3,1.3c0,0.4,0,0.8,0,1.2c0,1.1,0,1.1,1.2,1.1c0.3,0,0.6,0,0.9,0c7.6,0,15.1,0,22.7,0
				c1,0,1,0,1,0.9c0,3.6,0,7.2,0.1,10.7c0.1,2.9-1.2,5.2-3.4,7c-2.6,2.1-5.7,3.2-8.9,3.9c-5.3,1.2-10.7,1.4-16.1,1.2
				c-3.8-0.2-7.5-0.5-11.2-1.6c-3.4-1-6.7-2.4-9.1-5.1c-1.9-2.1-2.9-4.5-2.7-7.4c0-0.3,0-0.6,0-0.9c0-7.5,0-15.1,0-22.6
				c0-2.4,0.5-4.6,1.6-6.7c1.4-2.7,3.7-4.5,6.5-5.6c2.1-0.8,4.4-1.2,6.7-1.2c8.5,0,17,0,25.5,0c2.7,0,5.3-0.5,7.6-1.9
				c3.5-2,5.4-5.3,6.4-9.1c0.5-2.1,0.5-4.2,0.5-6.4c0-3.1,0-6.3,0-9.4c0-0.7,0.2-0.9,0.9-0.9c2.5,0,5,0,7.4,0
				c4.1-0.1,7.3,1.7,9.9,4.7c2.7,3.2,4,7,4.8,11c0.2,1,0.4,2,0.6,3C129,65.2,129,70.1,129,75.1z M86.2,107.9c0,2.6,2,4.7,4.6,4.7
				c2.5,0,4.7-2.1,4.7-4.7c0-2.5-2-4.6-4.6-4.6C88.3,103.3,86.2,105.2,86.2,107.9z"/>
		</g>
	</g>
</g>
</svg>
