<?xml version="1.0" encoding="utf-8"?>
<!-- Generator: Adobe Illustrator 25.0.1, SVG Export Plug-In . SVG Version: 6.00 Build 0)  -->
<svg version="1.1" baseProfile="tiny" id="Layer_1" xmlns="http://www.w3.org/2000/svg" xmlns:xlink="http://www.w3.org/1999/xlink"
	 x="0px" y="0px" width="150px" height="200px" viewBox="0 0 150 200" overflow="visible" xml:space="preserve">
<path fill="#333333" d="M88.1,178.9c-0.3-0.9-1.1-1.6-2-1.7l-5.5-0.8l-2.4-5c-0.4-0.9-1.3-1.4-2.2-1.4c-1,0-1.8,0.5-2.2,1.4l-2.4,5
	l-5.5,0.8c-0.9,0.1-1.7,0.8-2,1.7c-0.3,0.9,0,1.9,0.6,2.6l4,3.9l-0.9,5.5c-0.2,0.9,0.2,1.9,1,2.5c0.8,0.6,1.8,0.6,2.6,0.2l4.9-2.6
	l4.9,2.6c0.4,0.2,0.8,0.3,1.2,0.3c0.5,0,1-0.2,1.5-0.5c0.8-0.6,1.2-1.5,1-2.5l-0.9-5.5l4-3.9C88.2,180.8,88.4,179.8,88.1,178.9z"/>
<path fill="#FFA300" d="M58.1,178.9c-0.3-0.9-1.1-1.6-2-1.7l-5.5-0.8l-2.4-5c-0.4-0.9-1.3-1.4-2.2-1.4c-1,0-1.8,0.5-2.2,1.4l-2.4,5
	l-5.5,0.8c-0.9,0.1-1.7,0.8-2,1.7c-0.3,0.9,0,1.9,0.6,2.6l4,3.9l-0.9,5.5c-0.2,0.9,0.2,1.9,1,2.5c0.8,0.6,1.8,0.6,2.6,0.2l4.9-2.6
	l4.9,2.6c0.4,0.2,0.8,0.3,1.2,0.3c0.5,0,1-0.2,1.5-0.5c0.8-0.6,1.2-1.5,1-2.5l-0.9-5.5l4-3.9C58.1,180.8,58.4,179.8,58.1,178.9z"/>
<path fill="#333333" d="M118.2,178.9c-0.3-0.9-1.1-1.6-2-1.7l-5.5-0.8l-2.4-5c-0.4-0.9-1.3-1.4-2.2-1.4s-1.8,0.5-2.2,1.4l-2.4,5
	l-5.5,0.8c-0.9,0.1-1.7,0.8-2,1.7c-0.3,0.9,0,1.9,0.6,2.6l4,3.9l-0.9,5.5c-0.2,0.9,0.2,1.9,1,2.5c0.8,0.6,1.8,0.6,2.6,0.2l4.9-2.6
	l4.9,2.6c0.4,0.2,0.8,0.3,1.2,0.3c0.5,0,1-0.2,1.5-0.5c0.8-0.6,1.2-1.5,1-2.5l-0.9-5.5l4-3.9C118.2,180.8,118.5,179.8,118.2,178.9z"
	/>
<g>
	<path fill="#808080" d="M35.4,155.2c-0.9,0-1.3-0.4-1.3-1.3v-11.6c0-0.9,0.4-1.3,1.3-1.3h4.8c1.5,0,2.7,0.4,3.6,1.1
		c0.8,0.7,1.3,1.8,1.3,3.1c0,1.1-0.3,1.9-0.8,2.6c-0.5,0.7-1.3,1.1-2.4,1.4c0.7,0.2,1.2,0.7,1.7,1.5l1.5,2.8
		c0.2,0.4,0.3,0.8,0.1,1.2c-0.1,0.4-0.5,0.5-1,0.5c-0.4,0-0.7-0.1-0.9-0.2c-0.2-0.2-0.4-0.4-0.6-0.7l-2-3.7
		c-0.2-0.5-0.5-0.8-0.9-0.9c-0.3-0.2-0.7-0.2-1.2-0.2h-1.9v4.5C36.6,154.8,36.2,155.2,35.4,155.2z M36.6,147.5h3.1
		c1.9,0,2.8-0.8,2.8-2.3c0-1.5-0.9-2.3-2.8-2.3h-3.1V147.5z"/>
	<path fill="#808080" d="M49.2,155c-0.9,0-1.4-0.5-1.4-1.4v-11.4c0-0.9,0.5-1.4,1.4-1.4h7.1c0.7,0,1,0.3,1,1c0,0.7-0.3,1-1,1h-6v3.9
		h5.6c0.7,0,1,0.3,1,1c0,0.7-0.3,1-1,1h-5.6v4.1h6c0.7,0,1,0.3,1,1c0,0.7-0.3,1-1,1H49.2z"/>
	<path fill="#808080" d="M59.6,155.2c-0.5,0-0.8-0.2-1-0.5c-0.2-0.3-0.2-0.7,0-1.2l5.3-11.7c0.2-0.4,0.4-0.7,0.6-0.8
		s0.5-0.2,0.9-0.2c0.3,0,0.6,0.1,0.8,0.2c0.2,0.2,0.5,0.4,0.6,0.8l5.3,11.7c0.2,0.5,0.2,0.9,0,1.2c-0.2,0.3-0.5,0.5-1,0.5
		c-0.4,0-0.7-0.1-0.9-0.3c-0.2-0.2-0.4-0.5-0.6-0.8l-1-2.3h-6.9l-1,2.3c-0.2,0.4-0.4,0.7-0.5,0.8C60.2,155.1,60,155.2,59.6,155.2z
		 M65.4,143.7l-2.5,6h5.1L65.4,143.7L65.4,143.7z"/>
	<path fill="#808080" d="M80.6,155.2c-1.5,0-2.7-0.3-3.8-0.9c-1-0.6-1.9-1.4-2.4-2.5c-0.6-1.1-0.8-2.4-0.8-3.8
		c0-1.5,0.3-2.8,0.8-3.8s1.4-1.9,2.4-2.5c1-0.6,2.3-0.9,3.8-0.9c0.7,0,1.5,0.1,2.2,0.3c0.7,0.2,1.3,0.5,1.9,0.8
		c0.3,0.2,0.6,0.5,0.6,0.8c0.1,0.3,0,0.6-0.1,0.9s-0.4,0.4-0.7,0.5c-0.3,0.1-0.6,0-1-0.2c-0.4-0.3-0.9-0.5-1.3-0.6
		c-0.5-0.1-1-0.2-1.5-0.2c-1.4,0-2.5,0.4-3.3,1.3c-0.7,0.9-1.1,2.1-1.1,3.7s0.4,2.8,1.1,3.7c0.7,0.9,1.8,1.3,3.3,1.3
		c0.5,0,1-0.1,1.5-0.2c0.5-0.1,1-0.3,1.4-0.6c0.4-0.2,0.7-0.3,1-0.2s0.5,0.2,0.6,0.5c0.1,0.2,0.2,0.5,0.1,0.8
		c-0.1,0.3-0.2,0.6-0.5,0.8c-0.5,0.4-1.2,0.7-1.9,0.9C82.1,155.1,81.4,155.2,80.6,155.2z"/>
	<path fill="#808080" d="M92.1,155.2c-0.9,0-1.3-0.4-1.3-1.3v-10.8H87c-0.7,0-1.1-0.4-1.1-1.1c0-0.7,0.4-1.1,1.1-1.1h10.4
		c0.7,0,1.1,0.4,1.1,1.1c0,0.7-0.4,1.1-1.1,1.1h-3.9v10.8C93.4,154.8,93,155.2,92.1,155.2z"/>
	<path fill="#808080" d="M98.1,155.2c-0.4,0-0.7-0.1-0.9-0.3c-0.2-0.2-0.3-0.5-0.3-0.8c0-0.3,0.1-0.5,0.2-0.7
		c0.2-0.2,0.4-0.3,0.7-0.3l0.6,0c1.2-0.1,1.8-0.7,1.8-2v-9c0-0.9,0.4-1.3,1.3-1.3c0.9,0,1.3,0.4,1.3,1.3v9c0,1.3-0.3,2.2-1,2.9
		s-1.7,1.1-3,1.2L98.1,155.2z"/>
	<path fill="#808080" d="M110.7,155.2c-0.9,0-1.8-0.1-2.6-0.3s-1.6-0.5-2.2-0.9c-0.3-0.2-0.5-0.4-0.6-0.7c-0.1-0.3,0-0.6,0.1-0.8
		c0.1-0.3,0.3-0.4,0.5-0.5c0.2-0.1,0.5-0.1,0.8,0.1c0.6,0.3,1.2,0.6,1.9,0.8c0.7,0.2,1.3,0.2,2.1,0.2c1.1,0,1.8-0.2,2.3-0.5
		c0.5-0.4,0.7-0.8,0.7-1.4c0-0.5-0.2-0.8-0.5-1.1c-0.3-0.3-0.9-0.5-1.8-0.7l-2.2-0.5c-2.5-0.5-3.8-1.8-3.8-3.9
		c0-0.9,0.2-1.6,0.7-2.3c0.5-0.7,1.1-1.2,1.9-1.5c0.8-0.4,1.8-0.5,2.9-0.5c0.8,0,1.6,0.1,2.3,0.3c0.7,0.2,1.4,0.5,1.9,0.9
		c0.3,0.2,0.4,0.4,0.5,0.7c0.1,0.3,0,0.5-0.1,0.8s-0.3,0.4-0.6,0.5c-0.3,0.1-0.6,0-0.9-0.2c-0.5-0.3-1-0.5-1.5-0.6s-1.1-0.2-1.6-0.2
		c-0.9,0-1.6,0.2-2.2,0.6c-0.5,0.4-0.8,0.9-0.8,1.5c0,0.5,0.2,0.9,0.5,1.2s0.9,0.5,1.6,0.7l2.2,0.5c1.3,0.3,2.3,0.7,3,1.3
		c0.6,0.6,1,1.4,1,2.4c0,0.8-0.2,1.6-0.7,2.2c-0.5,0.6-1.1,1.1-1.9,1.5C112.8,155.1,111.8,155.2,110.7,155.2z"/>
</g>
<g id="ELmchd_1_">
	<g>
		<g>
			<path fill="#CCCCCC" d="M37.1,102.6c0-5,0.6-9.5,1.7-14c0-0.6,0-1.1-0.6-1.1C32.6,85.8,27,83,22,79.7c-2.2-1.7-4.5-3.9-6.2-6.2
				c-3.4-4.5-2.8-9.5,0.6-14c2.8-3.4,6.2-6.2,9.5-7.8c3.9-2.2,8.4-3.9,12.3-5.6c0.6,0,1.1-0.6,0.6-1.7c-1.1-5.6-1.7-11.2-1.7-16.8
				c0-4.5,1.1-8.4,3.4-12.3c2.2-3.9,6.2-5.6,10.6-5c5.6,0.6,10.6,3.4,15.1,6.7c2.8,2.2,5,4.5,7.8,6.7c0.6,0.6,1.1,0,1.7-0.6
				c2.2-1.7,4.5-3.9,6.7-5.6c3.9-2.8,7.8-5.6,12.9-6.7c2.8-0.6,5.6-1.1,8.4,0c3.4,1.1,5.6,3.9,7.3,7.3c1.1,2.8,1.7,5.6,1.7,9
				c0,5.6-1.1,11.2-2.2,17.4c0,0.6,0,1.1,0.6,1.1c5.6,1.7,11.2,4.5,16.2,7.8c2.2,1.7,4.5,3.9,6.7,6.7c2.8,4.5,2.8,9-0.6,13.4
				c-2.2,3.4-5.6,5.6-9,7.8c-3.9,2.2-8.4,4.5-12.9,5.6c-0.6,0-1.1,0.6-0.6,1.1c1.1,4.5,1.7,9,1.7,13.4c0,5-0.6,9.5-2.8,14
				c-2.8,5-6.7,6.7-12.3,6.2c-4.5-0.6-8.4-2.2-11.8-5c-3.9-2.2-7.3-5-10.6-7.8c-0.6-0.6-1.1-0.6-1.7,0c-4.5,3.9-9,7.8-14,10.1
				c-2.8,2.2-5.6,3.4-9,3.4c-5,0.6-9.5-2.2-11.2-7.8C37.7,110.5,37.1,106.5,37.1,102.6z M74.6,86.9c3.4,0,6.7-0.6,10.1-0.6
				c0.6,0,1.1-0.6,1.7-1.1c3.9-6.2,7.3-11.8,10.1-18.5c0-0.6,0-1.1,0-1.7c-1.7-2.8-2.8-5.6-4.5-8.4c-2.2-3.4-3.9-6.7-6.2-10.1
				c0-0.6-0.6-0.6-1.1-0.6c-2.2,0-3.9-0.6-6.2-0.6c-5,0-10.1,0-15.1,0.6c-0.6,0-1.1,0.6-1.1,1.1c-3.9,5.6-7.3,11.8-10.1,17.9
				c-0.6,1.1-0.6,1.7,0,2.8c2.8,6.2,6.2,12.3,10.1,17.9c0,0.6,1.1,0.6,1.1,0.6C67.3,86.4,71.3,86.4,74.6,86.9z M130.6,65.7
				c0-0.6-0.6-1.7-1.1-2.8c-1.1-2.2-3.4-3.9-5.6-5c-4.5-3.4-9.5-5-14.6-6.7c-0.6,0-1.1,0-1.1,0.6c-1.7,4.5-3.4,9.5-5,14
				c0,0.6,0,1.1,0,1.1c1.7,4.5,3.4,9.5,5,14c0,0.6,0.6,0.6,1.1,0.6c2.8-1.1,5.6-2.2,7.8-3.4c3.9-1.7,7.3-3.9,10.1-7.3
				C129.5,69.6,130.6,68.5,130.6,65.7z M70.7,104.3L70.7,104.3C67.3,99.8,64,95.9,60.6,92c-0.6-0.6-0.6-0.6-1.1-0.6
				c-4.5-1.1-9.5-1.7-14-2.2c-0.6,0-1.1,0-1.1,0.6c-1.1,5-1.7,10.6-1.1,15.7c0,2.8,0.6,5,1.7,7.8c1.1,2.2,2.8,3.4,5.6,3.4
				c2.2-0.6,4.5-1.1,6.2-2.2c3.9-1.7,7.3-4.5,10.6-7.3C68.5,106.5,69.6,105.4,70.7,104.3z M78.5,28.1c1.1,1.1,1.7,1.7,2.8,2.8
				c2.2,3.4,5,6.2,7.3,9.5l0.6,0.6c5,1.1,10.1,1.7,14.6,2.8c0.6,0,1.1,0,1.1-0.6c1.1-5,1.7-10.6,1.1-16.2c0-2.8-0.6-5.6-2.2-7.8
				c0-1.7-1.1-2.8-3.4-3.4c-1.1,0-1.7,0-2.8,0c-2.8,0.6-5.6,1.7-8.4,3.4C85.8,22,81.9,24.8,78.5,28.1z M18.6,65.7
				c0,1.7,0.6,2.8,1.1,3.9c1.1,1.1,2.2,2.8,3.9,3.9c4.5,3.9,10.1,6.2,15.7,7.8c0.6,0,0.6,0,1.1-0.6c1.7-4.5,3.4-9.5,5-14
				c0-0.6,0-0.6,0-1.1c-1.7-4.5-3.4-9.5-5-14c0-0.6-0.6-0.6-1.1-0.6c-5,1.7-10.1,3.9-14.6,6.7c-2.2,1.7-3.9,3.4-5.6,5.6
				C19.2,64.5,18.6,65.1,18.6,65.7z M49.4,15.8c-0.6,0-1.1,0-1.7,0.6c-2.2,0.6-2.8,2.2-3.4,3.4c-1.1,2.8-1.7,5.6-1.7,8.4
				c0,5,0.6,10.1,1.7,15.1c0,0.6,0.6,0.6,1.1,0.6c5-1.1,9.5-1.7,14.6-2.8c0.6,0,0.6,0,1.1-0.6c2.8-3.4,5.6-7.3,9-10.6
				c0.6-0.6,1.1-1.1,1.1-1.7c0-0.6-0.6-1.1-1.1-1.1c-3.9-3.4-7.8-6.7-12.9-9C54.5,16.9,52.2,16.4,49.4,15.8z M106.5,103.7
				c0-5.6-0.6-9.5-1.7-14c0-0.6-0.6-0.6-1.1-0.6c-4.5,0.6-9,1.7-13.4,2.2c-1.1,0-1.7,0.6-2.2,1.7c-2.8,3.4-5.6,7.3-9,10.6
				c-0.6,0.6-0.6,1.1,0,1.7c2.8,2.8,6.2,5,9,7.3c2.8,1.7,6.2,3.4,10.1,3.9c3.4,0.6,5.6-0.6,6.7-3.9
				C106.5,109.3,106.5,106,106.5,103.7z M81.3,92.5c-4.5,0-9,0-13.4,0v0.6c2.2,2.2,3.9,5,6.2,7.3c0.6,0.6,0.6,0.6,1.1,0
				c0.6-1.1,1.7-1.7,2.2-2.8C78.5,95.9,80.2,94.2,81.3,92.5z M81.3,39.9L81.3,39.9c-2.2-2.8-4.5-5.6-6.7-8.4
				c-2.2,2.8-4.5,5.6-6.7,7.8l0,0C72.4,39.9,76.9,39.9,81.3,39.9z M93.1,85.3c3.4-0.6,6.2-1.1,9.5-1.7c0.6,0,0.6-0.6,0.6-1.1
				c-0.6-2.2-1.7-4.5-2.2-6.7c0-0.6-0.6-1.7-1.1-2.2C98.1,77.4,95.9,81.3,93.1,85.3z M48.9,58.9c2.2-3.9,4.5-7.8,6.7-11.8
				c0,0,0,0-0.6,0c-2.8,0.6-5.6,1.1-9,1.7c-0.6,0-0.6,0.6,0,1.1c0.6,1.7,1.1,3.9,1.7,5.6C48.3,56.7,48.3,57.8,48.9,58.9z M93.7,47.2
				L93.7,47.2c2.2,3.9,4.5,7.8,6.7,11.8c1.1-3.4,2.2-6.7,3.4-10.1C100.4,48.3,97,47.7,93.7,47.2z M55.6,85.3
				c-2.2-3.9-4.5-7.8-6.7-11.8l0,0c-1.1,2.8-2.2,6.2-2.8,9c0,0.6,0,0.6,0.6,0.6c1.7,0.6,3.4,0.6,4.5,1.1
				C52.8,84.7,53.9,85.3,55.6,85.3z"/>
			<path fill="#CCCCCC" d="M85.8,66.2c0,6.7-5,11.8-11.8,11.8c-6.2,0-11.2-5-11.2-11.8s5-11.8,11.8-11.8
				C81.3,54.5,86.4,60.1,85.8,66.2z"/>
		</g>
	</g>
</g>
</svg>
