<?xml version="1.0" encoding="utf-8"?>
<!-- Generator: Adobe Illustrator 25.0.1, SVG Export Plug-In . SVG Version: 6.00 Build 0)  -->
<svg version="1.1" baseProfile="tiny" id="Layer_1" xmlns="http://www.w3.org/2000/svg" xmlns:xlink="http://www.w3.org/1999/xlink"
	 x="0px" y="0px" width="150px" height="200px" viewBox="0 0 150 200" overflow="visible" xml:space="preserve">
<path fill="#333333" d="M88.1,178.9c-0.3-0.9-1.1-1.6-2-1.7l-5.5-0.8l-2.4-5c-0.4-0.9-1.3-1.4-2.2-1.4c-1,0-1.8,0.5-2.2,1.4l-2.4,5
	l-5.5,0.8c-0.9,0.1-1.7,0.8-2,1.7c-0.3,0.9,0,1.9,0.6,2.6l4,3.9l-0.9,5.5c-0.2,0.9,0.2,1.9,1,2.5c0.8,0.6,1.8,0.6,2.6,0.2l4.9-2.6
	l4.9,2.6c0.4,0.2,0.8,0.3,1.2,0.3c0.5,0,1-0.2,1.5-0.5c0.8-0.6,1.2-1.5,1-2.5l-0.9-5.5l4-3.9C88.2,180.8,88.4,179.8,88.1,178.9z"/>
<path fill="#FFA300" d="M58.1,178.9c-0.3-0.9-1.1-1.6-2-1.7l-5.5-0.8l-2.4-5c-0.4-0.9-1.3-1.4-2.2-1.4c-1,0-1.8,0.5-2.2,1.4l-2.4,5
	l-5.5,0.8c-0.9,0.1-1.7,0.8-2,1.7c-0.3,0.9,0,1.9,0.6,2.6l4,3.9l-0.9,5.5c-0.2,0.9,0.2,1.9,1,2.5c0.8,0.6,1.8,0.6,2.6,0.2l4.9-2.6
	l4.9,2.6c0.4,0.2,0.8,0.3,1.2,0.3c0.5,0,1-0.2,1.5-0.5c0.8-0.6,1.2-1.5,1-2.5l-0.9-5.5l4-3.9C58.1,180.8,58.4,179.8,58.1,178.9z"/>
<path fill="#333333" d="M118.2,178.9c-0.3-0.9-1.1-1.6-2-1.7l-5.5-0.8l-2.4-5c-0.4-0.9-1.3-1.4-2.2-1.4s-1.8,0.5-2.2,1.4l-2.4,5
	l-5.5,0.8c-0.9,0.1-1.7,0.8-2,1.7c-0.3,0.9,0,1.9,0.6,2.6l4,3.9l-0.9,5.5c-0.2,0.9,0.2,1.9,1,2.5c0.8,0.6,1.8,0.6,2.6,0.2l4.9-2.6
	l4.9,2.6c0.4,0.2,0.8,0.3,1.2,0.3c0.5,0,1-0.2,1.5-0.5c0.8-0.6,1.2-1.5,1-2.5l-0.9-5.5l4-3.9C118.2,180.8,118.5,179.8,118.2,178.9z"
	/>
<g>
	<path fill="#808080" d="M40.3,155.2c-0.9,0-1.3-0.4-1.3-1.3v-10.8h-3.9c-0.7,0-1.1-0.4-1.1-1.1c0-0.7,0.4-1.1,1.1-1.1h10.4
		c0.7,0,1.1,0.4,1.1,1.1c0,0.7-0.4,1.1-1.1,1.1h-3.9v10.8C41.5,154.8,41.1,155.2,40.3,155.2z"/>
	<path fill="#808080" d="M49.4,155c-0.9,0-1.4-0.5-1.4-1.4v-11.4c0-0.9,0.5-1.4,1.4-1.4h7.1c0.7,0,1,0.3,1,1c0,0.7-0.3,1-1,1h-6v3.9
		h5.6c0.7,0,1,0.3,1,1c0,0.7-0.3,1-1,1h-5.6v4.1h6c0.7,0,1,0.3,1,1c0,0.7-0.3,1-1,1H49.4z"/>
	<path fill="#808080" d="M61.1,155.2c-0.8,0-1.2-0.4-1.2-1.2v-11.9c0-0.4,0.1-0.7,0.3-1c0.2-0.2,0.5-0.3,0.8-0.3
		c0.3,0,0.5,0.1,0.7,0.2c0.2,0.1,0.3,0.3,0.5,0.6l7.1,9.3V142c0-0.8,0.4-1.2,1.2-1.2c0.8,0,1.2,0.4,1.2,1.2v12
		c0,0.4-0.1,0.7-0.3,0.9c-0.2,0.2-0.4,0.3-0.8,0.3c-0.3,0-0.5-0.1-0.7-0.2c-0.2-0.1-0.4-0.3-0.6-0.6l-7.1-9.3v8.8
		C62.3,154.8,61.9,155.2,61.1,155.2z"/>
	<path fill="#808080" d="M79.8,155.2c-0.9,0-1.8-0.1-2.6-0.3s-1.6-0.5-2.2-0.9c-0.3-0.2-0.5-0.4-0.6-0.7c-0.1-0.3,0-0.6,0.1-0.8
		c0.1-0.3,0.3-0.4,0.5-0.5c0.2-0.1,0.5-0.1,0.9,0.1c0.6,0.3,1.2,0.6,1.9,0.8c0.7,0.2,1.3,0.2,2.1,0.2c1.1,0,1.8-0.2,2.3-0.5
		c0.5-0.4,0.7-0.8,0.7-1.4c0-0.5-0.2-0.8-0.5-1.1s-0.9-0.5-1.8-0.7l-2.2-0.5c-2.5-0.5-3.8-1.8-3.8-3.9c0-0.9,0.2-1.6,0.7-2.3
		c0.5-0.7,1.1-1.2,1.9-1.5c0.8-0.4,1.8-0.5,2.9-0.5c0.8,0,1.6,0.1,2.3,0.3c0.7,0.2,1.4,0.5,1.9,0.9c0.3,0.2,0.4,0.4,0.5,0.7
		c0.1,0.3,0,0.5-0.1,0.8c-0.1,0.2-0.3,0.4-0.6,0.5s-0.6,0-0.9-0.2c-0.5-0.3-1-0.5-1.5-0.6s-1.1-0.2-1.6-0.2c-0.9,0-1.6,0.2-2.2,0.6
		c-0.5,0.4-0.8,0.9-0.8,1.5c0,0.5,0.2,0.9,0.5,1.2c0.3,0.3,0.9,0.5,1.6,0.7l2.2,0.5c1.3,0.3,2.3,0.7,3,1.3c0.6,0.6,1,1.4,1,2.4
		c0,0.8-0.2,1.6-0.7,2.2c-0.5,0.6-1.1,1.1-1.9,1.5C81.9,155.1,80.9,155.2,79.8,155.2z"/>
	<path fill="#808080" d="M93.8,155.2c-1.4,0-2.5-0.3-3.6-0.9c-1-0.6-1.8-1.4-2.4-2.5c-0.6-1.1-0.8-2.4-0.8-3.8
		c0-1.5,0.3-2.8,0.8-3.8c0.6-1.1,1.3-1.9,2.4-2.5c1-0.6,2.2-0.9,3.6-0.9s2.6,0.3,3.6,0.9c1,0.6,1.8,1.4,2.4,2.5s0.8,2.4,0.8,3.8
		c0,1.5-0.3,2.8-0.8,3.9s-1.3,1.9-2.4,2.5C96.4,154.9,95.2,155.2,93.8,155.2z M93.8,153c1.3,0,2.3-0.4,3-1.3
		c0.7-0.9,1.1-2.1,1.1-3.7c0-1.6-0.4-2.8-1.1-3.7c-0.7-0.9-1.7-1.3-3-1.3c-1.3,0-2.3,0.4-3,1.3c-0.7,0.9-1.1,2.1-1.1,3.7
		c0,1.6,0.4,2.8,1.1,3.7C91.5,152.6,92.5,153,93.8,153z"/>
	<path fill="#808080" d="M104.5,155.2c-0.9,0-1.3-0.4-1.3-1.3v-11.6c0-0.9,0.4-1.3,1.3-1.3h4.8c1.5,0,2.7,0.4,3.6,1.1
		c0.8,0.7,1.3,1.8,1.3,3.1c0,1.1-0.3,1.9-0.8,2.6c-0.5,0.7-1.3,1.1-2.4,1.4c0.7,0.2,1.2,0.7,1.7,1.5l1.5,2.8
		c0.2,0.4,0.3,0.8,0.1,1.2c-0.1,0.4-0.5,0.5-1,0.5c-0.4,0-0.7-0.1-0.9-0.2c-0.2-0.2-0.4-0.4-0.6-0.7l-2-3.7
		c-0.2-0.5-0.5-0.8-0.9-0.9c-0.3-0.2-0.7-0.2-1.2-0.2h-1.9v4.5C105.8,154.8,105.3,155.2,104.5,155.2z M105.8,147.5h3.1
		c1.9,0,2.8-0.8,2.8-2.3c0-1.5-0.9-2.3-2.8-2.3h-3.1V147.5z"/>
</g>
<g id="x4e65o_1_">
	<g>
		<g>
			<path fill="#CCCCCC" d="M97.9,48.1c0,0.5-0.1,0.8-0.1,1.1c0,3.4,0,6.7,0,10.1c0,0.6,0.2,1,0.8,1.3c4.3,2.3,8.6,4.6,12.9,6.9
				c0.5,0.3,0.8,0.6,0.8,1.2c0,6.3,0.1,12.6,0.1,18.9c0,0.1,0,0.3,0,0.6c-4.9-2.6-9.6-5.2-14.6-7.9c-0.1,0.6-0.1,1-0.1,1.4
				c0,9.2,0,18.5,0,27.7c0,0.8-0.3,1.2-1,1.6c-5.7,3.1-11.5,6.2-17.2,9.3c-0.3,0.1-0.5,0.3-0.9,0.5c0-35.5,0-70.9,0-106.3
				c0.3,0.1,0.5,0.2,0.7,0.3c13.9,7.5,27.8,14.9,41.7,22.4c0.6,0.3,0.9,0.8,0.9,1.4c0,6.9,0,13.7,0,20.6c0,1.3-0.5,1.5-1.6,0.9
				c-7.1-3.8-14.2-7.7-21.2-11.5C98.8,48.5,98.4,48.4,97.9,48.1z"/>
			<path fill="#CCCCCC" d="M55.7,48.1c-9.3,5.3-18.4,10.6-27.7,15.8c0-0.3-0.1-0.6-0.1-0.8c0-7,0-14,0-21.1c0-1.2,0.4-1.8,1.4-2.4
				C44,31.5,58.5,23.2,73,15c0.3-0.2,0.6-0.3,0.9-0.5c0,35.5,0,70.9,0,106.4c-0.3-0.2-0.6-0.3-0.9-0.4c-5.5-3.2-11-6.3-16.5-9.5
				c-0.6-0.4-0.8-0.8-0.8-1.5c0-20.1,0-40.1,0-60.2C55.7,49.1,55.7,48.7,55.7,48.1z"/>
		</g>
	</g>
</g>
</svg>
