<?xml version="1.0" encoding="utf-8"?>
<!-- Generator: Adobe Illustrator 25.0.1, SVG Export Plug-In . SVG Version: 6.00 Build 0)  -->
<svg version="1.1" baseProfile="tiny" id="Layer_1" xmlns="http://www.w3.org/2000/svg" xmlns:xlink="http://www.w3.org/1999/xlink"
	 x="0px" y="0px" width="150px" height="200px" viewBox="0 0 150 200" overflow="visible" xml:space="preserve">
<path fill="#FFA300" d="M88.1,178.9c-0.3-0.9-1.1-1.6-2-1.7l-5.5-0.8l-2.4-5c-0.4-0.9-1.3-1.4-2.2-1.4c-1,0-1.8,0.5-2.2,1.4l-2.4,5
	l-5.5,0.8c-0.9,0.1-1.7,0.8-2,1.7c-0.3,0.9,0,1.9,0.6,2.6l4,3.9l-0.9,5.5c-0.2,0.9,0.2,1.9,1,2.5c0.8,0.6,1.8,0.6,2.6,0.2l4.9-2.6
	l4.9,2.6c0.4,0.2,0.8,0.3,1.2,0.3c0.5,0,1-0.2,1.5-0.5c0.8-0.6,1.2-1.5,1-2.5l-0.9-5.5l4-3.9C88.2,180.8,88.4,179.8,88.1,178.9z"/>
<path fill="#FFA300" d="M58.1,178.9c-0.3-0.9-1.1-1.6-2-1.7l-5.5-0.8l-2.4-5c-0.4-0.9-1.3-1.4-2.2-1.4c-1,0-1.8,0.5-2.2,1.4l-2.4,5
	l-5.5,0.8c-0.9,0.1-1.7,0.8-2,1.7c-0.3,0.9,0,1.9,0.6,2.6l4,3.9l-0.9,5.5c-0.2,0.9,0.2,1.9,1,2.5c0.8,0.6,1.8,0.6,2.6,0.2l4.9-2.6
	l4.9,2.6c0.4,0.2,0.8,0.3,1.2,0.3c0.5,0,1-0.2,1.5-0.5c0.8-0.6,1.2-1.5,1-2.5l-0.9-5.5l4-3.9C58.1,180.8,58.4,179.8,58.1,178.9z"/>
<path fill="#FFA300" d="M118.2,178.9c-0.3-0.9-1.1-1.6-2-1.7l-5.5-0.8l-2.4-5c-0.4-0.9-1.3-1.4-2.2-1.4s-1.8,0.5-2.2,1.4l-2.4,5
	l-5.5,0.8c-0.9,0.1-1.7,0.8-2,1.7c-0.3,0.9,0,1.9,0.6,2.6l4,3.9l-0.9,5.5c-0.2,0.9,0.2,1.9,1,2.5c0.8,0.6,1.8,0.6,2.6,0.2l4.9-2.6
	l4.9,2.6c0.4,0.2,0.8,0.3,1.2,0.3c0.5,0,1-0.2,1.5-0.5c0.8-0.6,1.2-1.5,1-2.5l-0.9-5.5l4-3.9C118.2,180.8,118.5,179.8,118.2,178.9z"
	/>
<g>
	<path fill="#808080" d="M48.6,155.2c-0.7,0-1.2-0.3-1.5-1L42,142.5c-0.2-0.5-0.2-0.9,0-1.2c0.2-0.3,0.6-0.5,1-0.5
		c0.4,0,0.7,0.1,0.9,0.2c0.2,0.2,0.4,0.4,0.5,0.8l4.3,10l4.3-10c0.1-0.3,0.3-0.6,0.5-0.7s0.5-0.2,0.8-0.2c0.4,0,0.8,0.2,1,0.5
		c0.2,0.3,0.2,0.7,0,1.2l-5.2,11.7c-0.1,0.3-0.3,0.6-0.6,0.8C49.3,155.1,49,155.2,48.6,155.2z"/>
	<path fill="#808080" d="M58.6,155.2c-0.9,0-1.3-0.4-1.3-1.3v-11.8c0-0.9,0.4-1.3,1.3-1.3c0.9,0,1.3,0.4,1.3,1.3v11.8
		C59.9,154.8,59.4,155.2,58.6,155.2z"/>
	<path fill="#808080" d="M64.3,155c-0.9,0-1.4-0.5-1.4-1.4v-11.4c0-0.9,0.5-1.4,1.4-1.4h7.1c0.7,0,1,0.3,1,1c0,0.7-0.3,1-1,1h-6v3.9
		H71c0.7,0,1,0.3,1,1c0,0.7-0.3,1-1,1h-5.6v4.1h6c0.7,0,1,0.3,1,1c0,0.7-0.3,1-1,1H64.3z"/>
	<path fill="#808080" d="M79.8,155.2c-0.7,0-1.1-0.4-1.4-1.1l-4.2-11.8c-0.1-0.4-0.1-0.8,0.1-1.1c0.2-0.3,0.6-0.4,1.1-0.4
		c0.4,0,0.6,0.1,0.8,0.2c0.2,0.2,0.4,0.4,0.5,0.8l3.2,9.5l3.4-9.5c0.3-0.7,0.7-1.1,1.3-1.1c0.3,0,0.6,0.1,0.8,0.3
		c0.2,0.2,0.3,0.4,0.5,0.8l3.3,9.6l3.3-9.7c0.1-0.3,0.3-0.6,0.5-0.8c0.2-0.2,0.5-0.3,0.8-0.3c0.4,0,0.7,0.1,0.9,0.4
		c0.2,0.3,0.2,0.7,0.1,1.1l-4.2,11.8c-0.1,0.4-0.3,0.6-0.5,0.8s-0.5,0.3-0.9,0.3c-0.4,0-0.6-0.1-0.9-0.3c-0.2-0.2-0.4-0.4-0.5-0.8
		l-3.3-9.3l-3.3,9.3c-0.1,0.4-0.3,0.6-0.5,0.8S80.1,155.2,79.8,155.2z"/>
	<path fill="#808080" d="M101.7,155.2c-0.9,0-1.8-0.1-2.6-0.3s-1.6-0.5-2.2-0.9c-0.3-0.2-0.5-0.4-0.6-0.7c-0.1-0.3,0-0.6,0.1-0.8
		c0.1-0.3,0.3-0.4,0.5-0.5c0.2-0.1,0.5-0.1,0.8,0.1c0.6,0.3,1.2,0.6,1.9,0.8c0.7,0.2,1.3,0.2,2.1,0.2c1.1,0,1.8-0.2,2.3-0.5
		c0.5-0.4,0.7-0.8,0.7-1.4c0-0.5-0.2-0.8-0.5-1.1c-0.3-0.3-0.9-0.5-1.8-0.7l-2.2-0.5c-2.5-0.5-3.8-1.8-3.8-3.9
		c0-0.9,0.2-1.6,0.7-2.3c0.5-0.7,1.1-1.2,1.9-1.5c0.8-0.4,1.8-0.5,2.9-0.5c0.8,0,1.6,0.1,2.3,0.3c0.7,0.2,1.4,0.5,1.9,0.9
		c0.3,0.2,0.4,0.4,0.5,0.7c0.1,0.3,0,0.5-0.1,0.8s-0.3,0.4-0.6,0.5c-0.3,0.1-0.6,0-0.9-0.2c-0.5-0.3-1-0.5-1.5-0.6s-1.1-0.2-1.6-0.2
		c-0.9,0-1.6,0.2-2.2,0.6c-0.5,0.4-0.8,0.9-0.8,1.5c0,0.5,0.2,0.9,0.5,1.2s0.9,0.5,1.6,0.7l2.2,0.5c1.3,0.3,2.3,0.7,3,1.3
		c0.6,0.6,1,1.4,1,2.4c0,0.8-0.2,1.6-0.7,2.2c-0.5,0.6-1.1,1.1-1.9,1.5C103.8,155.1,102.8,155.2,101.7,155.2z"/>
</g>
<path fill="#CCCCCC" d="M104.9,16.9H46.3c-11.1,0-20.1,9-20.1,20.1v58.6c0,11.1,9,20.1,20.1,20.1h58.6c11.1,0,20.1-9,20.1-20.1V37
	C125,25.9,116,16.9,104.9,16.9z M51.1,73.5c-4,0-7.2-3.2-7.2-7.2s3.2-7.2,7.2-7.2h11.2c4,0,7.2,3.2,7.2,7.2s-3.2,7.2-7.2,7.2H51.1z
	 M100.2,98H72.1c-4,0-7.2-3.2-7.2-7.2c0-4,3.2-7.2,7.2-7.2h28.1c4,0,7.2,3.2,7.2,7.2C107.4,94.8,104.1,98,100.2,98z M100.2,49H51.1
	c-4,0-7.2-3.2-7.2-7.2s3.2-7.2,7.2-7.2h49.1c4,0,7.2,3.2,7.2,7.2S104.1,49,100.2,49z"/>
</svg>
